<?xml version="1.0" encoding="UTF-8" standalone="no"?>
<svg
   width="2048"
   height="2048"
   version="1.1"
   viewBox="0 0 2048 2048"
   id="svg5540"
   sodipodi:docname="image.svg"
   inkscape:version="1.2.1 (9c6d41e410, 2022-07-14)"
   xmlns:inkscape="http://www.inkscape.org/namespaces/inkscape"
   xmlns:sodipodi="http://sodipodi.sourceforge.net/DTD/sodipodi-0.dtd"
   xmlns="http://www.w3.org/2000/svg"
   xmlns:svg="http://www.w3.org/2000/svg">
  <defs
     id="defs5544" />
  <sodipodi:namedview
     id="namedview5542"
     pagecolor="#505050"
     bordercolor="#eeeeee"
     borderopacity="1"
     inkscape:showpageshadow="0"
     inkscape:pageopacity="0"
     inkscape:pagecheckerboard="0"
     inkscape:deskcolor="#505050"
     showgrid="false"
     inkscape:zoom="0.051696777"
     inkscape:cx="-454.57379"
     inkscape:cy="696.36836"
     inkscape:window-width="1920"
     inkscape:window-height="1027"
     inkscape:window-x="-8"
     inkscape:window-y="-8"
     inkscape:window-maximized="1"
     inkscape:current-layer="svg5540" />
  <circle
     cx="1024"
     cy="1024"
     r="968.2"
     fill="#fff"
     id="circle5532" />
  <path
     d="m1024 0a1024 1024 0 00-1024 1024 1024 1024 0 001024 1024 1024 1024 0 001024-1024 1024 1024 0 00-1024-1024zm.0234 71.99a952 951.9 0 01952 951.9 952 951.9 0 01-952 951.9 952 951.9 0 01-952-951.9 952 951.9 0 01952-951.9z"
     fill="#010000"
     style="paint-order:stroke fill markers"
     id="path5534" />
  <g
     id="g6087"
     transform="matrix(1.4574018,0,0,2.2223002,-462.29656,-1244.2479)">
    <path
       d="m 884.75212,778.23986 c 41.57006,-16.5948 214.34208,-68.96196 348.01158,88.95753 133.6696,157.91951 -68.6,419.22521 -230.4765,413.92331 -161.87647,-5.211 -264.87152,-88.238 -227.28763,-227.9797 37.5801,-139.74175 252.57133,-276.26447 348.96073,-99.48553 96.3894,176.81683 -46.2396,233.39523 -99.958,209.12033 -53.75629,-24.2598 -110.28401,-44.3841 -83.7475,-93.9565 62.45,-116.71652 83.9753,117.2846 154.9291,45.7096 76.7243,-77.4071 -151.7022,-275.69643 -219.39117,-150.61056 -74.44647,137.58316 -33.51799,254.82986 77.7493,280.99826 112.25817,26.4184 196.27137,-45.6338 233.24787,-89.1469 36.9765,-43.513 88.1134,-172.04515 -63.7407,-304.62935 -151.89209,-132.54634 -263.99838,79.37632 -317.64084,34.05304 -75.62334,-63.88733 37.87241,-90.51021 79.41969,-107.09743 z"
       id="path5536"
       style="stroke-width:0.379169" />
    <ellipse
       cx="1025.6351"
       cy="1060.0031"
       fill="#010000"
       style="stroke-width:1.07162;paint-order:stroke fill markers"
       id="circle5538"
       rx="127.12405"
       ry="110.7" />
    <path
       style="color:#000000;fill:#000000;-inkscape-stroke:none"
       d="m 1010.7012,645.87695 c -154.27851,0 -302.24201,72.7256 -413.67581,132.94727 -111.4338,60.22167 -139.54101,145.43741 -139.54102,239.13088 0,93.6934 28.10722,178.9092 139.54102,239.1308 111.4338,60.2217 259.3973,132.9493 413.67581,132.9493 154.2784,0 302.242,-72.7276 413.6758,-132.9493 111.4338,-60.2216 139.541,-145.4374 139.541,-239.1308 0,-93.69347 -28.1072,-178.90921 -139.541,-239.13088 -111.4338,-60.22167 -259.3974,-132.94727 -413.6758,-132.94727 z m 0,90 c 147.1223,0 288.2155,31.97838 389.9043,86.9336 101.6888,54.95521 153.3125,125.95326 153.3125,195.14455 0,69.1913 -51.6237,140.1893 -153.3125,195.1445 -101.6888,54.9552 -242.782,86.9356 -389.9043,86.9356 -147.12241,0 -288.21554,-31.9804 -389.90433,-86.9356 -101.68878,-54.9552 -153.3125,-125.9532 -153.3125,-195.1445 0,-69.19129 51.62372,-140.18934 153.3125,-195.14455 101.68879,-54.95522 242.78192,-86.9336 389.90433,-86.9336 z"
       id="path6078"
       sodipodi:nodetypes="ssssssssssssssssss" />
  </g>
</svg>
