<?xml version="1.0" encoding="UTF-8"?>
<svg width="400" height="400" version="1.1" viewBox="0 0 102.4 400" xmlns="http://www.w3.org/2000/svg">
 <defs>
  <radialGradient id="e" cx="58.696" cy="125.79" r="50" gradientTransform="matrix(5.8954 -.00017427 .0016567 .42375 -295.5 -14.609)" gradientUnits="userSpaceOnUse">
   <stop stop-color="#fff" offset="0"/>
   <stop stop-color="#eea7cb" offset=".5"/>
   <stop stop-color="#eea7cb" stop-opacity="0" offset="1"/>
  </radialGradient>
  <linearGradient id="a" x1="27.656" x2="38.588" y1="24.071" y2="2.0786" gradientTransform="matrix(3.5938 0 0 .3125 -171.12 0)" gradientUnits="userSpaceOnUse">
   <stop stop-color="#fff" offset="0"/>
   <stop stop-color="#fff" stop-opacity="0" offset="1"/>
  </linearGradient>
  <radialGradient id="b" cx="126.32" cy="110.97" r="50" gradientTransform="matrix(.13142 -.52583 7.0243 .013274 -610.27 100.96)" gradientUnits="userSpaceOnUse">
   <stop stop-color="#fff" offset="0"/>
   <stop stop-color="#f0e9f2" stop-opacity="0" offset="1"/>
  </radialGradient>
  <radialGradient id="c" cx="19.558" cy="-34.117" r="50" gradientTransform="matrix(-.62155 .36462 -7.6132 -.098129 -119.79 -.84987)" gradientUnits="userSpaceOnUse">
   <stop stop-color="#fff" offset="0"/>
   <stop stop-color="#ede0d4" offset=".5"/>
   <stop stop-color="#e7ceb8" stop-opacity="0" offset="1"/>
  </radialGradient>
  <radialGradient id="d" cx="78.206" cy="125.25" r="50" gradientTransform="matrix(5.6725 -.032925 .23104 .30098 -328.8 2.1477)" gradientUnits="userSpaceOnUse">
   <stop stop-color="#fff" offset="0"/>
   <stop stop-color="#dfeea7" offset=".5"/>
   <stop stop-color="#dfeea7" stop-opacity="0" offset="1"/>
  </radialGradient>
 </defs>
 <g transform="matrix(.86956 0 0 10 -.0016199 0)">
  <rect x="-171.12" y="-3.5527e-15" width="460" height="40" fill="url(#c)" stroke-width=".35936"/>
  <rect x="-171.12" y="-3.5527e-15" width="460" height="40" fill="url(#e)" stroke-width=".35936"/>
  <rect transform="translate(-1.5526e-6)" x="-171.12" y="1e-6" width="460" height="40" fill="url(#d)" stroke-width=".35936" style="mix-blend-mode:lighten"/>
  <rect x="-171.12" y="-3.5527e-15" width="460" height="40" display="none" fill="url(#b)" stroke-width=".35936"/>
  <path transform="translate(-1.5526e-6)" d="m-171.12 0v39.925s0.5432-24.04 84.164-24.037c83.621 0.0023 198.74 5.1366 294.66 4.9353 95.917-0.2013 81.181-20.822 81.181-20.822z" fill="url(#a)" stroke-width=".35936"/>
 </g>
</svg>
