<svg width="128" height="128" version="1.1" viewBox="0 0 128 128" xmlns="http://www.w3.org/2000/svg">
 <defs>
  <radialGradient id="biloua" cx="5.3789" cy="5.3789" r="62" gradientTransform="matrix(9.3661e-6 1.891 -1.891 1.1385e-5 15.55 -4.7927)" gradientUnits="userSpaceOnUse">
   <stop stop-color="#5c4680" offset="0"/>
   <stop stop-color="#2a2542" offset="0.2"/>
   <stop stop-color="#000" offset="0.4"/>
   <stop stop-color="#2a2542" offset="1"/>
  </radialGradient>
  <radialGradient id="biloub" cx="64" cy="128" r="92" gradientUnits="userSpaceOnUse">
   <stop stop-color="#fff" offset="0"/>
   <stop stop-color="rgb(223, 238, 167)" offset=".5"/>
   <stop stop-color="rgb(223, 238, 167)" stop-opacity="0" offset="1"/>
  </radialGradient>
  <radialGradient id="bilouc" cx="15.023" cy="-37.564" r="58.621" gradientTransform="matrix(0 2 -2 0 16.136 -5.3795)" gradientUnits="userSpaceOnUse">
   <stop stop-color="#e7ceb8" offset="0"/>
   <stop stop-color="#e7ceb8" offset=".5"/>
   <stop stop-color="#e7ceb8" stop-opacity="0" offset="1"/>
  </radialGradient>
  <radialGradient id="biloud" cx="123.08" cy="104.66" r="58.621" gradientTransform="matrix(0 -2 2 -1.9982e-8 -122.62 367.86)" gradientUnits="userSpaceOnUse">
   <stop stop-color="#fff" offset="0"/>
   <stop stop-color="#f0e9f2" stop-opacity="0" offset="1"/>
  </radialGradient>
  <linearGradient id="biloue" x1="30" x2="60" y1="40" y2="60" gradientUnits="userSpaceOnUse">
   <stop stop-color="#fff" offset="0"/>
   <stop stop-color="#fff" stop-opacity="0" offset="1"/>
  </linearGradient>
 </defs>
 <circle cx="64" cy="64" r="60.512" fill="#5c4680"/>
 <circle cx="64" cy="64" r="60.512" fill="url(#bilouc)"/>
 <circle cx="64" cy="64" r="60.512" fill="url(#biloub)"/>
 <circle cx="64" cy="64" r="60.512" fill="url(#biloud)"/>
 <path fill="url(#biloue)" d="m64 5.3789c-32.375 5.7e-5 -58.621 26.246-58.621 58.621 0.023097 17.322 7.7057 33.747 20.986 44.867-7.1774-9.9285-12.602-18.925-12.651-31.176-8.64e-4 -32.376 17.91-34.352 50.286-34.353 13.885 0.005775 37.19-22.262 47.777-13.278-10.99-15.478-28.795-24.675-47.777-24.682z"/>
 <path fill="url(#biloua)" d="m64 0a64 64 0 0 0-64 64 64 64 0 0 0 64 64 64 64 0 0 0 64-64 64 64 0 0 0-64-64zm0.0014 4.4994a59.5 59.494 0 0 1 59.5 59.494 59.5 59.494 0 0 1-59.5 59.494 59.5 59.494 0 0 1-59.5-59.494 59.5 59.494 0 0 1 59.5-59.494z" />
 <g fill="url(#biloua)" transform="matrix(.091088 0 0 .13889 -28.894 -77.765)">
  <path d="m884.75 778.24c41.57-16.595 214.34-68.962 348.01 88.958 133.67 157.92-68.6 419.23-230.48 413.92-161.88-5.211-264.87-88.238-227.29-227.98 37.58-139.74 252.57-276.26 348.96-99.486 96.389 176.82-46.24 233.4-99.958 209.12-53.756-24.26-110.28-44.384-83.748-93.956 62.45-116.72 83.975 117.28 154.93 45.71 76.724-77.407-151.7-275.7-219.39-150.61-74.446 137.58-33.518 254.83 77.749 281 112.26 26.418 196.27-45.634 233.25-89.147 36.976-43.513 88.113-172.05-63.741-304.63-151.89-132.55-264 79.376-317.64 34.053-75.623-63.887 37.872-90.51 79.42-107.1z" stroke-width="6.0667"/>
  <ellipse cx="1025.6" cy="1060" rx="127.12" ry="110.7" stroke-width="17.146" />
  <path d="m1010.7 645.88c-154.28 0-302.24 72.726-413.68 132.95s-139.54 145.44-139.54 239.13c0 93.693 28.107 178.91 139.54 239.13 111.43 60.222 259.4 132.95 413.68 132.95 154.28 0 302.24-72.728 413.68-132.95 111.43-60.222 139.54-145.44 139.54-239.13 0-93.693-28.107-178.91-139.54-239.13s-259.4-132.95-413.68-132.95zm0 90c147.12 0 288.22 31.978 389.9 86.934 101.69 54.955 153.31 125.95 153.31 195.14 0 69.191-51.624 140.19-153.31 195.14s-242.78 86.936-389.9 86.936c-147.12 0-288.22-31.98-389.9-86.936-101.69-54.955-153.31-125.95-153.31-195.14 0-69.191 51.624-140.19 153.31-195.14 101.69-54.955 242.78-86.934 389.9-86.934z" stroke-width="16"/>
 </g>
</svg>
