<svg xmlns="http://www.w3.org/2000/svg" viewBox="0 -0.5 32 32" shape-rendering="crispEdges">
<metadata>Made with Pixels to Svg https://codepen.io/shshaw/pen/XbxvNj</metadata>
<path stroke="#0da595" d="M0 0h12M14 0h10M0 1h12M14 1h10M4 2h2M14 2h2M20 2h2M24 2h2M4 3h2M14 3h2M20 3h2M24 3h2M2 4h2M6 4h2M16 4h2M22 4h6M2 5h2M6 5h2M16 5h2M22 5h6M0 6h4M8 6h2M18 6h12M0 7h4M8 7h2M18 7h12M0 8h4M24 8h6M0 9h4M24 9h6M0 10h4M28 10h2M0 11h4M28 11h2M0 12h2M10 12h2M20 12h4M28 12h2M0 13h2M10 13h2M20 13h4M28 13h2M4 20h2M26 20h2M4 21h2M26 21h2M2 22h2M6 22h2M10 22h12M24 22h2M2 23h2M6 23h2M10 23h12M24 23h2M8 24h2M20 24h4M8 25h2M20 25h4" />
<path stroke="#000000" d="M12 0h2M24 0h2M12 1h2M24 1h2M2 2h2M26 2h2M2 3h2M26 3h2M4 4h2M28 4h2M4 5h2M28 5h2M6 6h2M30 6h2M6 7h2M30 7h2M16 8h4M22 8h2M30 8h2M16 9h4M22 9h2M30 9h2M26 10h2M30 10h2M26 11h2M30 11h2M4 12h2M8 12h2M30 12h2M4 13h2M8 13h2M30 13h2M0 14h2M10 14h2M22 14h2M30 14h2M0 15h2M10 15h2M22 15h2M30 15h2M0 16h4M8 16h4M20 16h4M28 16h4M0 17h4M8 17h4M20 17h4M28 17h4M2 18h4M26 18h4M2 19h4M26 19h4M2 20h2M6 20h2M24 20h2M28 20h2M2 21h2M6 21h2M24 21h2M28 21h2M8 22h2M22 22h2M28 22h2M8 23h2M22 23h2M28 23h2M2 24h2M28 24h2M2 25h2M28 25h2M4 26h4M24 26h4M4 27h4M24 27h4M6 28h2M14 28h4M24 28h2M6 29h2M14 29h4M24 29h2M8 30h16M8 31h16" />
<path stroke="#69cef8" d="M6 2h8M16 2h4M22 2h2M6 3h8M16 3h4M22 3h2M8 4h8M18 4h4M8 5h8M18 5h4M4 6h2M10 6h8M4 7h2M10 7h8M4 8h4M4 9h4M4 22h2M26 22h2M4 23h2M26 23h2M10 24h4M18 24h2M10 25h4M18 25h2" />
<path stroke="#9c4655" d="M8 8h8M20 8h2M8 9h8M20 9h2M4 10h22M4 11h22M8 28h2M20 28h4M8 29h2M20 29h4" />
<path stroke="#086697" d="M2 12h2M26 12h2M2 13h2M26 13h2M2 14h4M26 14h4M2 15h4M26 15h4M4 16h2M26 16h2M4 17h2M26 17h2" />
<path stroke="#ecd29a" d="M6 12h2M12 12h8M24 12h2M6 13h2M12 13h8M24 13h2M6 14h2M12 14h8M24 14h2M6 15h2M12 15h8M24 15h2M6 16h2M6 17h2M8 26h16M8 27h16" />
<path stroke="#ffffff" d="M8 14h2M20 14h2M8 15h2M20 15h2M14 24h4M14 25h4" />
<path stroke="#ecdd95" d="M12 16h8M24 16h2M12 17h8M24 17h2M6 18h20M6 19h20M8 20h16M8 21h16M4 24h4M24 24h4M4 25h4M24 25h4" />
<path stroke="#c3916f" d="M10 28h4M18 28h2M10 29h4M18 29h2" />
</svg>