<?xml version="1.0" encoding="UTF-8" standalone="no"?>
<svg
   width="2048"
   height="2048"
   version="1.1"
   viewBox="0 0 2048 2048"
   id="svg14"
   sodipodi:docname="animation.svg"
   inkscape:version="1.2.1 (9c6d41e410, 2022-07-14)"
   xmlns:inkscape="http://www.inkscape.org/namespaces/inkscape"
   xmlns:sodipodi="http://sodipodi.sourceforge.net/DTD/sodipodi-0.dtd"
   xmlns="http://www.w3.org/2000/svg"
   xmlns:svg="http://www.w3.org/2000/svg">
  <defs
     id="defs18">
    <pattern
       id="EMFhbasepattern"
       patternUnits="userSpaceOnUse"
       width="6"
       height="6"
       x="0"
       y="0" />
    <pattern
       id="EMFhbasepattern-1"
       patternUnits="userSpaceOnUse"
       width="6"
       height="6"
       x="0"
       y="0" />
    <pattern
       id="EMFhbasepattern-2"
       patternUnits="userSpaceOnUse"
       width="6"
       height="6"
       x="0"
       y="0" />
    <pattern
       id="EMFhbasepattern-9"
       patternUnits="userSpaceOnUse"
       width="6"
       height="6"
       x="0"
       y="0" />
    <pattern
       id="EMFhbasepattern-24"
       patternUnits="userSpaceOnUse"
       width="6"
       height="6"
       x="0"
       y="0" />
  </defs>
  <sodipodi:namedview
     id="namedview16"
     pagecolor="#505050"
     bordercolor="#eeeeee"
     borderopacity="1"
     inkscape:showpageshadow="0"
     inkscape:pageopacity="0"
     inkscape:pagecheckerboard="0"
     inkscape:deskcolor="#505050"
     showgrid="false"
     inkscape:zoom="0.20678711"
     inkscape:cx="26.597403"
     inkscape:cy="923.65525"
     inkscape:window-width="1920"
     inkscape:window-height="1027"
     inkscape:window-x="-8"
     inkscape:window-y="-8"
     inkscape:window-maximized="1"
     inkscape:current-layer="svg14" />
  <circle
     cx="1024"
     cy="1024"
     r="968.2"
     fill="#fff"
     id="circle2" />
  <path
     d="m1024 0a1024 1024 0 00-1024 1024 1024 1024 0 001024 1024 1024 1024 0 001024-1024 1024 1024 0 00-1024-1024zm.0234 71.99a952 951.9 0 01952 951.9 952 951.9 0 01-952 951.9 952 951.9 0 01-952-951.9 952 951.9 0 01952-951.9z"
     fill="#010000"
     style="paint-order:stroke fill markers"
     id="path4" />
  <path
     style="fill:#000000;fill-opacity:1;fill-rule:nonzero;stroke:none;stroke-width:4.09453"
     d="m 1724.221,486.87975 c -9.5537,-45.03994 -28.6617,-92.80946 -65.5124,-122.83606 -8.1892,-6.82421 -34.1211,-2.72968 -30.0266,12.28359 8.1892,36.85081 27.297,70.97194 35.4861,109.18758 4.0945,20.47266 6.824,40.94531 6.824,62.78288 0,9.55396 1.3652,19.10776 0,27.29682 0,1.36491 0,2.7298 -1.3647,4.09455 -4.0945,-4.09455 -10.9188,-6.82418 -17.7428,-9.55381 4.0944,-47.76966 -19.108,-92.80949 -47.7697,-131.02515 -35.4861,-47.76958 -83.2553,-85.9852 -135.1195,-114.64693 -57.3235,-30.02662 -120.1066,-47.76957 -184.2542,-54.59381 -35.4859,-2.72966 -156.9572,-16.37815 -154.2274,43.67502 1.3647,16.37815 28.6618,15.01333 36.8507,6.82425 12.2837,-12.28359 50.4992,-6.82425 66.8773,-5.45941 27.2972,1.36488 53.229,5.45941 80.526,12.2836 50.4991,12.28361 100.9986,30.02661 146.0384,60.05317 36.8508,24.56721 69.6071,57.32348 94.1742,94.17429 12.2837,17.74302 23.2026,36.85079 34.121,57.32344 -1.3646,-1.36474 -2.7294,-1.36474 -4.0944,-2.72964 -35.4858,-13.64849 -79.1609,-27.29682 -109.1874,2.72964 -6.8242,8.18907 -2.7298,20.47267 4.0946,25.93211 19.1075,15.01323 40.9454,10.91868 62.7828,16.37812 23.2023,5.45943 43.675,16.37812 65.5124,27.29683 34.121,16.37814 84.6205,46.40475 113.2822,4.09453 21.8374,-32.75625 10.9186,-90.07972 2.7294,-125.56561 z"
     id="path12099" />
  <path
     style="fill:#000000;fill-opacity:1;fill-rule:nonzero;stroke:none;stroke-width:4.09453"
     d="m 738.80336,989.14248 c -4.09455,-8.18897 -9.55398,-15.01333 -17.74304,-17.74281 -2.72963,-8.18906 -12.2836,-12.28359 -19.10776,-13.64866 -9.55397,-2.72947 -24.56719,0 -31.39152,9.55413 -16.37813,27.29664 1.36488,61.41806 30.02662,72.33656 13.64849,5.4596 31.39135,2.7298 38.2157,-10.9185 5.45926,-12.2836 5.45926,-27.297 0,-39.58072 z"
     id="path12101" />
  <path
     style="fill:#000000;fill-opacity:1;fill-rule:nonzero;stroke:none;stroke-width:4.09453"
     d="m 837.07213,912.71099 c -9.55396,-6.82384 -17.74301,-9.55364 -28.66172,-10.91837 -9.55396,-19.10793 -51.86419,-19.10793 -58.68836,4.09453 -13.64849,47.76917 51.86403,79.1609 88.71482,60.05293 6.82434,-4.09454 16.37813,-10.91854 15.0134,-20.47283 -1.3649,-13.64817 -5.45943,-23.20197 -16.37814,-32.75626 z"
     id="path12103" />
  <path
     style="fill:#000000;fill-opacity:1;fill-rule:nonzero;stroke:none;stroke-width:4.09453"
     d="m 1260.174,931.81908 c -6.8242,35.48606 -21.8376,69.60712 -40.9454,99.63362 -16.3781,25.9322 -45.0398,47.7696 -55.9585,76.4314 -4.0945,9.5537 15.0132,10.9188 20.4726,8.189 69.6071,-21.8375 98.2689,-120.10624 106.4578,-184.25402 1.3648,-12.28359 -27.297,-12.28359 -30.0265,0 z"
     id="path12105" />
  <path
     style="fill:#000000;fill-opacity:1;fill-rule:nonzero;stroke:none;stroke-width:4.09453"
     d="m 1392.5637,1200.6936 c -27.2968,2.7294 -53.2286,10.9185 -77.7959,23.2021 -21.8376,9.5542 -49.1344,23.2024 -54.5938,47.7697 -1.365,6.8243 12.2836,9.5537 16.3781,9.5537 24.5672,1.3651 43.675,-15.013 64.1476,-27.2966 21.8376,-13.6487 43.675,-25.9323 65.5128,-39.5806 12.2837,-8.189 -6.8243,-15.0133 -13.6488,-13.6483 z"
     id="path12107" />
  <path
     style="fill:#000000;fill-opacity:1;fill-rule:nonzero;stroke:none;stroke-width:4.09453"
     d="m 1855.2461,664.30955 c -2.7294,1.36474 -5.4593,4.09453 -8.1891,6.82417 0,0 -1.3647,0 -2.7294,1.3649 -36.8508,21.8374 -72.3369,40.94532 -105.0931,68.24216 -32.7564,28.66173 -62.7827,60.05309 -91.4445,92.80952 -28.6617,34.12098 -53.229,69.60705 -75.0667,107.82242 -10.9185,16.37829 -20.4726,35.48623 -27.2966,53.22906 -2.7297,6.82442 -5.4597,12.28362 -6.8244,17.74332 -27.2969,-27.29705 -55.9587,-55.95882 -92.8096,-61.41809 -5.4591,-1.36523 -16.3782,0 -16.3782,6.824 -1.3646,23.2025 13.6488,38.21585 28.6618,54.59409 6.8244,8.189 15.0135,15.0131 21.8379,21.8374 0,1.3647 0,1.3647 0,1.3647 -16.3782,0 -31.3916,4.0945 -45.0399,15.0134 -9.5543,2.7298 -19.1079,8.1891 -25.9325,15.0135 -6.8237,2.7294 -13.648,5.4592 -19.1074,6.8239 -38.2159,12.2836 -76.4316,27.2969 -114.6472,40.9453 -36.8508,15.0134 -75.0664,28.6618 -113.2821,42.3105 -9.5538,4.0945 -20.4726,8.189 -31.3913,10.9185 1.3647,-1.3648 2.7297,-1.3648 2.7297,-2.7295 35.4858,-62.783 47.7695,-144.6737 54.5939,-215.64559 2.7295,-35.48622 5.4592,-72.33702 2.7295,-109.18765 -1.3649,-34.12116 -4.0945,-76.43123 -21.8376,-106.45785 -5.4592,-9.55397 -24.5672,-12.2836 -32.7562,-4.09452 0,-1.36491 0,-1.36491 0,-2.72965 16.3782,-6.82433 31.3914,-21.83757 39.5806,-39.58058 4.0945,-2.72964 5.4593,-6.82418 4.0945,-10.91871 1.3648,-2.72963 2.7297,-5.45942 2.7297,-8.18906 6.8241,-35.4859 4.0945,-79.16102 -34.1212,-92.80936 -20.4727,-6.82433 -42.3101,-2.7298 -58.6882,9.5538 2.7295,-5.45927 6.8242,-10.9187 10.9187,-16.37813 17.743,-24.56719 34.1212,-50.49914 50.4993,-76.43123 8.1891,-12.28366 19.1078,-27.29691 0,-34.12115 -31.3915,-10.91877 -60.0533,28.66174 -81.8908,64.14779 -6.8242,-23.20246 -25.932,-47.76966 -38.2156,-65.51263 -21.8376,-30.02658 -47.76975,-55.95862 -75.06648,-81.89066 -28.66176,-24.5672 -57.3235,-49.1344 -88.71501,-70.97194 -16.37814,-10.91874 -38.21553,-27.29687 -60.0531,-31.39141 -17.74303,-21.83754 -49.13439,-39.5805 -75.0665,-42.31021 0,0 -1.36473,0 -1.36473,0 -1.3649,0 -1.3649,0 -2.72979,0 -1.36473,0 -1.36473,0 -1.36473,0 -1.3649,0 -1.3649,0 -2.7298,0 -1.36474,0 -2.72964,-1.36483 -4.09454,0 -1.36473,0 -2.72963,0 -4.09452,0 -12.28361,2.72971 -24.5672,9.55396 -23.20231,23.20238 1.3649,24.56721 19.10776,42.31016 35.4859,61.41799 16.37813,20.47268 35.48606,40.94536 54.59383,61.41802 35.4859,39.58051 73.70158,79.16097 111.91727,116.01182 38.21553,35.4859 76.43127,70.97195 117.37661,103.72822 2.7297,2.72963 5.4594,5.45928 9.554,8.18907 -6.8243,12.2836 -13.6486,23.2023 -20.4727,34.121 -13.64855,24.56719 -32.75629,53.22892 -31.39142,81.89065 1.36478,6.82433 16.37817,6.82433 20.47267,2.7298 19.10775,-20.47267 34.12115,-45.03986 50.49925,-68.24232 1.3648,0 2.7297,1.36489 4.0945,1.36489 4.0945,2.72963 8.1891,6.82417 10.9188,12.28361 -2.7297,17.74302 1.3647,34.12115 15.0132,46.40475 1.3649,4.09454 1.3649,8.18907 1.3649,10.9187 5.4594,23.20231 9.554,46.40477 10.9188,69.60706 5.4593,50.49929 8.189,100.99859 8.189,151.49755 1.3648,53.22916 -1.3647,106.45815 -16.3781,158.32235 -4.0946,16.3781 -9.554,32.7561 -15.0132,49.1343 -9.554,5.4593 -15.0134,17.7429 -17.7431,27.297 -1.3648,1.3648 -2.7297,4.0945 -4.0946,6.824 -5.4594,0 -10.9186,0 -16.378,0 2.7297,-13.6484 5.4594,-25.9319 6.8242,-40.9453 13.6484,-148.76796 -85.98534,-282.52284 -217.01036,-342.57594 0,0 0,-1.36489 -1.3649,-1.36489 -6.82416,-9.55396 -17.74287,-16.37814 -30.02646,-19.10777 19.10777,-38.21569 21.8374,-90.07971 21.8374,-129.66031 0,-25.93193 2.72979,-46.40459 -20.47267,-61.41799 -17.74286,-12.28359 -40.94532,-15.01323 -61.41799,-12.28359 -46.4046,6.82432 -84.62028,42.31021 -117.37656,72.33685 -17.74302,16.37812 -34.12115,32.75625 -47.76958,50.49911 -12.2836,-27.29682 -25.93203,-51.86401 -50.49923,-70.97178 -32.75628,-25.93209 -88.71492,-38.21569 -121.47118,-5.45943 -17.74297,16.37812 -19.10779,42.31022 -23.20234,64.14762 -4.09453,28.66173 -6.82422,55.95872 -9.55394,83.25556 -2.72965,34.12115 -5.45935,68.24232 -4.09453,102.36315 -5.45937,4.09453 -9.5539,9.5543 -13.64842,15.01356 -1.36483,2.7298 -9.5539,13.64817 -13.64845,23.20246 0,0 -1.36487,-1.36522 -1.36487,-1.36522 -19.10779,-8.18907 -40.94534,-9.55364 -61.418,-4.09453 -40.94533,9.55429 -64.14766,43.67528 -76.43125,80.52602 -6.82425,20.47272 -15.01332,42.31022 -9.55395,64.14792 5.45939,21.8374 17.74301,42.31 25.93207,62.7827 -47.76956,23.2026 -83.25555,81.8907 -57.32347,132.3898 19.10781,35.4861 58.6883,54.5939 96.90394,49.1344 6.82422,27.2971 13.64846,53.2289 25.93208,79.1611 9.5539,21.8375 20.47266,57.3235 46.40468,62.7828 25.93204,5.4593 51.86411,-17.7429 69.60709,-32.7562 19.10783,-15.0134 35.48597,-31.3917 50.49922,-49.1344 98.26883,66.8773 237.48304,76.4313 349.40015,50.4991 5.45944,-1.3647 10.91886,-2.7295 16.37812,-5.4592 -6.82415,24.5671 -6.82415,50.499 -8.18905,73.7016 -1.36473,34.1208 -2.72963,69.6069 -8.18907,102.3632 -5.45926,32.7565 -12.2836,64.148 -20.47266,95.5389 -8.18907,25.9326 -20.47266,57.3237 0,80.5262 5.45943,5.4592 15.0134,5.4592 23.20246,4.0945 30.02646,-10.9189 36.85079,-40.9452 45.03986,-69.607 2.72963,-10.9191 5.45927,-21.8374 8.18906,-32.7563 2.72963,9.5537 5.45927,17.7426 8.18908,25.9318 13.64832,34.1215 35.48589,62.7832 68.24215,76.4315 20.47266,9.5538 40.94529,12.2836 61.41803,10.919 0,0 0,0 0,0 -1.36478,23.202 -4.09453,46.4045 -6.82418,68.2418 -5.45941,36.8509 -24.56723,87.3503 1.36488,118.7416 5.4593,6.8243 19.10779,6.8243 25.93189,2.7298 36.85095,-23.2026 35.48615,-76.4314 39.58065,-116.0117 2.7296,-25.9323 6.8241,-57.3235 5.4592,-87.3502 1.3649,0 4.0947,-1.3648 5.4595,-1.3648 35.486,-13.6483 76.4314,-28.6618 113.2822,-49.1344 0,5.4591 -1.3648,10.9189 -1.3648,16.3781 -4.0947,28.6617 -6.8243,55.9587 -9.5541,84.6205 -1.3647,24.5672 -13.6483,102.3633 27.297,102.3633 40.9454,1.3648 40.9454,-75.0666 43.675,-102.3633 4.0945,-46.405 13.6485,-99.634 6.8241,-147.4032 13.6486,-12.2836 25.9322,-25.9324 34.1212,-40.9454 46.4048,-72.337 2.7296,-162.4166 -38.2157,-227.9292 -25.9319,-43.675 -65.5124,-91.4445 -111.9171,-126.9306 27.2969,0 58.6882,-10.9188 80.5258,-19.1078 45.0399,-15.0132 88.7148,-34.1211 131.0249,-60.053 2.7298,-1.365 6.8243,-4.0945 9.5541,-6.8242 21.8374,-5.4594 43.6749,-13.6484 65.5123,-20.4727 6.8245,-2.7299 12.2836,-5.4594 19.1082,-6.8244 1.3646,2.7298 4.0945,5.4597 5.4591,8.1891 15.0135,28.6617 43.6752,45.0398 76.4315,42.3104 36.8508,-2.7298 54.5937,-30.0268 55.9587,-65.5126 0,-6.8243 0,-12.2836 0,-19.1079 1.3647,-5.4592 2.7295,-9.5538 4.0946,-15.0133 0,0 0,0 0,-1.3649 24.5672,21.8376 50.4991,40.9454 79.1608,50.4992 8.1891,1.365 38.2155,0 30.0264,-15.0131 -15.013,-25.9322 -40.9453,-47.7696 -65.5124,-68.2423 35.486,-8.189 62.783,-46.4046 85.9852,-72.33692 27.297,-32.75624 54.5939,-66.87723 79.1611,-102.36345 24.5672,-35.48573 47.7694,-69.6069 68.242,-106.4577 19.1079,-34.12115 49.1345,-76.43121 47.7697,-116.0118 0,-9.55381 -17.7429,-9.55381 -23.2025,-5.45928 z m -787.5152,560.95115 c 0,0 1.3648,0 2.7296,0 -4.0945,2.7295 -6.8241,6.8241 -9.5539,10.9186 0,0 -1.3647,0 -1.3647,0 2.7296,-4.0945 5.4592,-6.8241 8.189,-10.9186 z m -746.57003,174.6999 c -10.91874,-16.3781 -19.1078,-45.0399 -24.56719,-60.0529 -8.18908,-21.8377 -16.37814,-46.4049 -21.83751,-69.6071 -4.09453,-16.3781 -28.66175,-12.2836 -38.21565,-6.8244 -28.66173,15.0135 -53.22892,-23.2024 -54.5938,-46.4044 -1.36483,-35.4861 27.29692,-64.1479 51.86411,-84.6205 4.09453,-4.0946 8.18905,-8.1891 5.45936,-13.6484 -6.82419,-17.7431 -12.2836,-34.1213 -16.37813,-51.8642 -5.45937,-21.8374 -2.72968,-38.2155 5.4594,-58.6883 9.5539,-21.83768 31.3914,-65.51245 60.05314,-47.76959 23.20237,13.64834 53.22893,23.20247 75.06648,1.36473 0,-1.36473 1.36482,-1.36473 2.72966,-2.72946 20.47267,12.28359 58.68834,0 58.68834,-27.297 0,-4.09453 0,-8.18907 0,-13.64833 2.72965,0 4.09454,0 6.82419,-1.36522 10.91877,-4.09454 15.0133,-15.01291 13.64848,-25.93178 -2.72971,-12.2836 -9.55395,-20.47266 -19.10784,-25.9321 0,-55.95872 1.36482,-110.55237 10.91877,-166.5111 0,-4.09453 4.09453,-16.37812 4.09453,-21.8374 5.45936,2.72963 10.91873,4.09453 15.01326,8.18906 5.4594,4.09454 9.55394,10.91871 15.0133,17.74286 19.10786,27.29701 28.66175,62.7829 46.40471,91.44463 16.37813,25.93209 58.6883,19.10777 68.24224,-6.82416 16.37814,-39.58059 43.67497,-69.60706 73.70161,-96.90406 15.01323,-15.01323 58.68836,-68.24216 85.98518,-61.41799 2.72964,27.29699 4.09454,54.59383 2.72964,80.52593 0,21.8374 -5.45927,46.40459 -5.45927,69.60705 -2.72979,0 -5.45942,0 -6.82432,-1.3649 -30.02647,0 -62.78274,4.09453 -90.07973,19.10776 -15.01322,8.18907 -16.37814,19.10794 -12.28359,28.6619 -20.47265,5.45927 -39.58045,13.64833 -58.6883,21.8374 -60.05312,27.297 -113.28207,69.6069 -154.2274,120.10651 -87.35008,103.72816 -132.38994,271.60396 -16.37814,372.60256 0,0 0,0 0,0 -27.29689,20.4727 -54.59381,42.3101 -83.25553,60.0529 z m 477.69558,-54.5936 c -96.90389,34.1209 -219.73998,30.0263 -311.18455,-19.108 -46.40469,-25.9319 -81.89067,-68.242 -87.35004,-122.836 -5.4594,-61.4179 20.47268,-125.5655 54.59379,-176.0648 34.12109,-50.49925 80.52583,-91.44458 133.75473,-121.47105 27.29691,-15.0134 55.95872,-27.297 85.98518,-34.12132 30.02663,-8.18907 60.05325,-12.2836 88.71499,-23.20231 9.5538,-4.09453 12.28359,-12.28359 9.5538,-19.10776 2.72979,0 4.09453,0 5.45943,0 92.80935,60.05325 174.70019,144.67339 185.6189,260.68544 1.36488,12.2836 1.36488,24.5672 1.36488,36.8508 -17.74299,4.0945 -32.75644,15.0131 -47.76967,23.2021 -27.29682,16.3782 -53.22891,31.3916 -79.16102,47.7697 -24.5672,15.0134 -49.13439,30.0264 -73.70159,46.4046 -6.82416,4.0945 -13.64833,8.189 -19.10777,12.2836 15.01325,-38.2156 36.85081,-76.4311 60.05311,-109.1874 16.37812,-24.5672 35.48606,-45.0398 54.59382,-66.8776 10.91869,-10.9185 23.20229,-21.8373 32.75626,-34.1209 9.55397,-12.2836 13.6485,-19.1079 19.10777,-34.121 2.72979,-10.9189 -13.64835,-13.64869 -20.47267,-12.2837 -15.01323,2.7294 -24.56719,2.7294 -38.21553,10.9185 -13.6485,6.8244 -25.9321,16.3783 -36.8508,27.297 -24.5672,21.8374 -45.03985,46.4047 -64.14779,73.7016 -39.58041,57.3235 -62.78272,120.1063 -77.79612,186.9838 -4.09452,20.4726 17.74303,25.9321 32.75626,24.5673 57.32346,-6.8244 107.82275,-50.4994 154.22752,-81.8907 25.93193,-17.7432 53.22892,-35.486 80.52572,-54.594 4.09453,-2.7295 9.55404,-6.824 16.37821,-9.5537 -20.47271,76.4313 -77.79617,137.8493 -159.68682,167.8758 z m 360.31915,73.7016 c 20.4726,34.1209 39.5804,72.337 46.4045,111.9171 9.554,45.0398 -19.1077,77.7961 -53.2288,102.3633 -39.5806,27.2972 -84.6204,46.4051 -128.2954,62.7833 -2.7297,1.3646 -4.0947,1.3646 -6.8243,2.7292 -12.2835,-5.4591 -30.02665,-2.7292 -35.48595,9.5542 0,0 0,0 0,0 -23.20238,4.0947 -46.40472,0 -62.78286,-24.5671 -19.10792,-30.027 -20.47267,-70.9723 -23.20246,-106.4578 -4.09453,-50.4997 0,-109.1879 -19.10776,-155.5925 -2.72964,-8.189 -12.28359,-13.6486 -21.83757,-16.3781 -1.36473,-5.4596 -2.72963,-10.9189 -5.45927,-16.3781 0,-1.3651 -1.36489,-4.0945 -2.72979,-5.4596 65.51253,-28.6618 120.10639,-75.0663 151.49781,-135.1196 25.93215,24.5673 57.32355,45.0399 83.25565,70.972 30.0264,30.0266 55.9586,62.7829 77.7962,99.6337 z m -57.3235,-242.9422 c 2.7296,-2.7299 4.0945,-5.4596 5.4593,-8.1891 2.7297,1.3647 6.8244,2.7295 12.2836,2.7295 -5.4592,1.365 -10.9187,4.0945 -17.7429,5.4596 z"
     id="path12109" />
</svg>
