<?xml version="1.0" encoding="UTF-8" standalone="no"?>
<svg
   width="88px"
   height="90px"
   version="1.1"
   id="svg692"
   sodipodi:docname="spiraleBC.svg"
   inkscape:version="1.2.1 (9c6d41e410, 2022-07-14)"
   xmlns:inkscape="http://www.inkscape.org/namespaces/inkscape"
   xmlns:sodipodi="http://sodipodi.sourceforge.net/DTD/sodipodi-0.dtd"
   xmlns="http://www.w3.org/2000/svg"
   xmlns:svg="http://www.w3.org/2000/svg">
  <defs
     id="defs696" />
  <sodipodi:namedview
     id="namedview694"
     pagecolor="#505050"
     bordercolor="#eeeeee"
     borderopacity="1"
     inkscape:showpageshadow="0"
     inkscape:pageopacity="0"
     inkscape:pagecheckerboard="0"
     inkscape:deskcolor="#505050"
     showgrid="false"
     inkscape:zoom="4.7055556"
     inkscape:cx="85.218418"
     inkscape:cy="47.603306"
     inkscape:window-width="1920"
     inkscape:window-height="1027"
     inkscape:window-x="-8"
     inkscape:window-y="-8"
     inkscape:window-maximized="1"
     inkscape:current-layer="svg692" />
  <path
     fill-rule="evenodd"
     fill="rgb(96, 228, 55)"
     d="M0.739,41.592 C0.739,41.592 0.496,-3.340 49.449,0.859 C98.250,5.046 87.466,47.827 83.668,60.297 C80.148,71.856 53.053,101.375 23.086,84.072 C-13.232,63.101 20.817,33.550 23.261,33.026 C25.705,32.501 62.718,13.446 60.797,53.130 C58.877,92.813 32.339,58.374 38.450,57.325 C44.560,56.276 55.909,38.095 42.640,41.941 C29.371,45.787 0.913,58.024 27.451,76.380 C53.988,94.736 87.334,58.199 76.161,37.571 C64.987,16.943 34.085,7.677 23.086,18.341 C12.087,29.005 0.739,41.592 0.739,41.592 Z"
     id="path686" />
  <path
     id="path10774"
     d="M 45.001953 0.60546875 C 9.5824548 -0.3355525 2.5210583 26.158333 1.1074219 37.017578 C 3.5048625 29.94972 7.834202 20.240444 14.224609 17.490234 C 27.713596 11.684241 33.518147 4.3420517 39.494141 9.1230469 C 42.368256 11.422283 44.749195 13.512856 46.753906 15.373047 C 52.788813 17.021452 58.972248 20.000065 64.363281 24.113281 C 60.140538 18.92361 56.87944 15.079375 54.515625 12.410156 C 53.259626 9.8361593 51.747576 7.4130603 50.017578 5.1640625 C 51.807576 5.2720624 55.380413 6.0662681 62.441406 8.5722656 C 75.521869 13.490761 84.889372 29.084061 87.164062 33.169922 C 87.124664 32.735446 87.083105 32.30187 87.03125 31.867188 C 85.851612 28.030693 83.05286 19.912826 78.558594 12.662109 C 72.810226 6.5903645 63.673367 2.0797702 49.449219 0.859375 C 47.919439 0.72815638 46.437156 0.64359905 45.001953 0.60546875 z M 23.207031 18.236328 C 14.790566 20.471669 5.3926948 32.194263 0.95703125 38.322266 C 0.75456192 40.309831 0.73828125 41.591797 0.73828125 41.591797 C 0.73828125 41.591797 12.086948 29.005786 23.085938 18.341797 C 23.124269 18.304632 23.168218 18.273009 23.207031 18.236328 z M 43.666016 28 C 34.3474 27.868875 24.483718 32.762891 23.261719 33.025391 C 21.234181 33.4601 -2.5073256 53.871652 10.183594 72.789062 C 11.510146 72.986322 12.85502 73.124164 14.21875 73.195312 C 16.504748 75.39731 20.153553 78.076065 25.810547 80.289062 C 37.676535 84.933058 45.414761 84.931228 56.59375 78.740234 C 58.953292 77.433294 59.611629 76.853347 59.109375 76.669922 C 49.629831 82.281939 38.006037 83.681802 27.451172 76.380859 C 0.91319841 58.024878 29.371638 45.787402 42.640625 41.941406 C 55.909612 38.09541 44.559213 56.27522 38.449219 57.324219 C 36.437025 57.669627 37.996473 61.62938 41.019531 65.376953 C 47.805815 60.528955 53.109273 53.739039 56.087891 45.802734 C 56.73989 48.043732 57.255874 51.891522 56.421875 58.103516 C 55.499326 64.970781 52.271243 69.409124 49.800781 71.912109 C 54.976643 73.274876 60.001171 69.576644 60.796875 53.130859 C 61.1092 46.678861 60.381292 41.799793 58.951172 38.121094 C 58.730612 37.864422 58.508894 37.605663 58.292969 37.380859 C 58.324736 37.173034 58.336514 36.958832 58.365234 36.75 C 55.23367 30.193393 49.563179 28.082981 43.666016 28 z M 75.015625 59.679688 C 72.982631 63.727645 70.113021 67.573285 66.675781 70.882812 C 64.020718 75.00375 59.619751 80.533596 53.517578 83.548828 C 46.896922 86.820189 38.706947 87.782442 32.003906 87.914062 C 38.849717 89.920457 45.419561 89.712035 51.453125 88.117188 C 55.973656 85.745675 60.821925 82.630768 65.261719 78.560547 C 71.245823 73.075118 73.878601 65.788052 75.015625 59.679688 z "
     style="fill:#ffffff;fill-opacity:0.50196081" />
  <path
     id="path690"
     d="M 32.066406 1.6699219 C 20.29278 4.0773784 12.935581 10.250533 8.3535156 17.0625 C 8.3771353 17.058381 8.3936741 17.063535 8.4179688 17.058594 C 11.061966 16.521594 15.49646 12.698231 21.939453 9.6152344 C 28.980785 6.2455549 33.924639 3.1224067 32.066406 1.6699219 z M 43.666016 28 C 37.829006 27.917866 31.780563 29.806753 27.773438 31.294922 C 25.728366 32.215114 23.455816 33.277724 21.091797 34.488281 C 16.90189 37.920931 8.3349628 47.001474 6.7207031 57.537109 C 8.3823082 53.592374 10.494553 49.268651 12.433594 47.421875 C 13.578593 46.331876 14.991876 45.085327 16.421875 43.861328 C 14.073877 47.129325 13.489408 50.080812 15.691406 49.632812 C 18.334404 49.095813 22.768897 45.27245 29.212891 42.189453 C 36.697883 38.607457 41.817153 35.30228 38.910156 33.988281 C 37.661157 33.424282 35.252075 33.521438 32.455078 34.148438 L 37.212891 32.099609 C 37.212891 32.099609 40.103568 30.550657 45.726562 31.722656 C 63.885544 35.505652 51.966797 51.394531 51.966797 51.394531 C 51.966797 51.394531 59.15617 41.935713 57.076172 36.261719 C 56.34671 34.272437 54.425635 32.078998 52.246094 30.0625 C 49.650526 28.630503 46.690779 28.042562 43.666016 28 z M 49.982422 54.609375 C 49.982422 54.609375 44.875466 58.488048 42.605469 59.623047 C 40.335471 60.757046 40.240811 55.556174 38.632812 57.826172 C 37.024814 60.09517 39.199002 63.121547 41.375 63.310547 C 43.549998 63.499547 49.982422 54.609375 49.982422 54.609375 z "
     style="fill:#ffffff;fill-opacity:1;stroke:none" />
</svg>
