<svg xmlns="http://www.w3.org/2000/svg" viewBox="0 -0.5 21 21" shape-rendering="crispEdges">
<metadata>Made with Pixels to Svg https://codepen.io/shshaw/pen/XbxvNj</metadata>
<path stroke="#782020" d="M11 0h4M8 1h2M6 2h2M15 2h1M5 3h1M13 3h3M5 4h1M12 4h1M5 5h1M11 5h2M16 5h2M4 6h1M10 6h1M16 6h1M18 6h1M3 7h1M10 7h1M18 7h1M2 8h1M11 8h2M16 8h1M18 8h1M2 9h1M12 9h1M15 9h2M18 9h1M2 10h1M13 10h2M17 10h1M2 11h1M3 12h1" />
<path stroke="#b83527" d="M10 1h2M10 2h1M12 2h1M14 2h1M9 6h1M17 7h1M3 8h1M6 8h1M17 8h1M3 9h1M7 9h2M10 9h1M17 9h1M16 10h1M15 11h1M5 13h9" />
<path stroke="#c2564a" d="M12 1h3M9 2h1M6 3h1M9 3h4M6 4h1M5 6h2M17 6h1M5 7h1M11 9h1M3 10h1M6 10h7M15 10h1M4 11h1M14 11h1" />
<path stroke="#ffccc6" d="M8 2h1M11 2h1M13 2h1M6 5h1M4 7h1M4 8h1M4 9h1M9 9h1M4 10h1M3 11h1M11 11h1M6 12h1M12 12h1" />
<path stroke="#ea6e60" d="M7 3h2M7 4h3M11 4h1M7 5h1M9 5h2M5 8h1M5 9h2M5 10h1M5 11h3M9 11h2M12 11h2M5 12h1M7 12h5M13 12h1" />
<path stroke="#ffffff" d="M10 4h1M8 5h1M8 11h1" />
<path stroke="#8f8176" d="M13 4h2M13 5h3M11 6h5M11 7h3M15 7h1M13 8h1M14 9h1M15 13h1M16 14h1M16 15h1M16 16h1M5 19h1M13 19h1" />
<path stroke="#a32c1f" d="M7 6h2M6 7h4M7 8h4M16 11h1M4 12h1M14 12h2" />
<path stroke="#dcc4af" d="M14 7h1M16 7h1M14 8h2M13 9h1M6 15h1M13 15h1M5 16h1M14 16h1M14 17h1M6 19h1M12 19h1" />
<path stroke="#584d44" d="M16 12h1M16 13h1M5 14h1M17 14h1M5 15h1M17 15h1M4 16h1M6 16h1M12 16h1M17 16h1M4 17h1M16 17h1M4 18h1M15 18h1M4 19h1M14 19h1M5 20h9" />
<path stroke="#b5a090" d="M14 13h1M6 14h10M15 15h1M15 16h1M15 17h1M10 18h2" />
<path stroke="#fbe2cd" d="M7 15h6M13 16h1M5 17h1M13 17h1M5 18h1M12 18h2" />
<path stroke="#cbaf97" d="M14 15h1M8 18h2M14 18h1" />
<path stroke="#fff6ee" d="M7 16h5M6 17h7M6 18h2M7 19h5" />
</svg>