<svg xmlns="http://www.w3.org/2000/svg" viewBox="0 -0.5 48 48" shape-rendering="crispEdges">
<metadata>Made with Pixels to Svg https://codepen.io/shshaw/pen/XbxvNj</metadata>
<path stroke="#ff0000" d="M27 0h4M27 1h1M29 1h2M26 2h2M30 2h1M26 3h1M30 3h1M25 4h1M30 4h1M24 5h2M30 5h1M24 6h1M30 6h1M23 7h1M30 7h1M22 8h2M30 8h1M3 9h1M22 9h1M30 9h1M2 10h4M21 10h1M1 11h2M20 11h1M2 12h1M47 22h1M47 23h1M45 24h2M3 36h1M21 36h1M32 36h1M3 37h2M22 37h1M32 37h1M3 38h1M23 38h1M32 38h1M3 39h1M23 39h2M32 39h1M3 40h3M24 40h2M32 40h1M25 41h1M32 41h1M26 42h1M32 42h1M27 43h1M32 43h1M28 44h1M32 44h1M29 45h1M32 45h1M29 46h2M32 46h1M31 47h1" />
<path stroke="#b800ff" d="M18 1h8M15 2h10M13 3h4M11 4h4M10 5h3M9 6h3M8 7h2M7 8h2M6 9h2" />
<path stroke="#c80838" d="M26 1h1M31 34h1M32 35h1M4 36h1M5 39h1M26 43h1M28 46h1M29 47h1" />
<path stroke="#ff2000" d="M28 1h1M29 2h1M29 3h1M26 4h1M21 11h1" />
<path stroke="#c000a0" d="M25 2h1" />
<path stroke="#ffa020" d="M28 2h1M23 9h1M29 9h1M29 10h1M29 11h1M21 12h1" />
<path stroke="#a000e0" d="M31 2h1M31 3h1" />
<path stroke="#8800ff" d="M32 2h1M32 3h3M33 4h2" />
<path stroke="#e000ff" d="M17 3h1M10 7h1" />
<path stroke="#e060e0" d="M18 3h1M15 4h1M9 8h1M21 38h1" />
<path stroke="#ffc0f8" d="M19 3h1M18 7h2M16 8h1" />
<path stroke="#ffe0ff" d="M20 3h1" />
<path stroke="#ffe0f8" d="M21 3h4M20 4h3M17 5h2M15 6h2M14 7h1M12 8h1" />
<path stroke="#ff3028" d="M25 3h1M20 10h1M22 36h1M4 38h1M31 39h1M31 40h1M31 41h1M31 42h1M28 43h1" />
<path stroke="#ff8000" d="M27 3h1M25 6h1M29 7h1M29 8h1" />
<path stroke="#ffff00" d="M28 3h1M3 23h6M34 23h3M38 23h2M4 24h5M24 24h7M35 24h3M39 24h2" />
<path stroke="#0820ff" d="M36 3h7M36 4h9M35 5h1M43 5h3M34 6h1M45 6h2M33 7h1M46 7h2M33 8h1M46 8h2M12 9h1M32 9h1M47 9h1M8 10h8M32 10h1M47 10h1M6 11h2M16 11h1M31 11h1M47 11h1M4 12h2M17 12h1M31 12h1M47 12h1M3 13h2M18 13h1M20 13h1M31 13h1M39 13h1M47 13h1M1 14h3M18 14h4M30 14h1M32 14h1M39 14h1M47 14h1M0 15h2M19 15h1M22 15h1M30 15h2M33 15h1M38 15h2M46 15h2M0 16h2M19 16h1M23 16h2M28 16h2M33 16h1M38 16h2M46 16h2M0 17h1M19 17h1M24 17h2M27 17h2M32 17h1M38 17h2M46 17h2M0 18h1M11 18h2M19 18h1M26 18h1M32 18h1M38 18h2M46 18h2M0 19h1M10 19h3M19 19h1M32 19h1M38 19h2M46 19h1M0 20h1M9 20h1M12 20h1M19 20h2M31 20h1M38 20h3M45 20h2M0 21h2M9 21h1M11 21h1M19 21h2M31 21h1M39 21h3M45 21h1M0 22h2M9 22h3M18 22h2M30 22h2M40 22h5M1 23h1M10 23h1M17 23h2M31 23h2M41 23h2M1 24h2M15 24h2M32 24h2M42 24h2M2 25h1M14 25h1M33 25h2M43 25h2M2 26h1M14 26h1M35 26h1M44 26h1M2 27h2M15 27h7M36 27h1M44 27h2M3 28h1M19 28h1M21 28h2M28 28h10M45 28h1M3 29h1M19 29h1M22 29h1M28 29h1M30 29h1M37 29h2M45 29h1M3 30h1M20 30h1M22 30h1M27 30h1M30 30h1M44 30h2M4 31h1M12 31h2M20 31h1M22 31h1M27 31h1M30 31h1M44 31h2M4 32h1M11 32h1M13 32h1M20 32h1M23 32h1M26 32h1M31 32h1M44 32h2M4 33h1M11 33h2M20 33h1M23 33h1M26 33h1M32 33h1M43 33h2M5 34h1M12 34h1M20 34h1M23 34h1M25 34h1M33 34h1M42 34h3M5 35h1M19 35h1M24 35h1M34 35h1M41 35h3M5 36h1M19 36h1M35 36h6M6 37h1M18 37h1M6 38h1M18 38h1M6 39h1M17 39h1M7 40h1M16 40h1M7 41h3M15 41h2M8 42h8M10 43h4" />
<path stroke="#ffc8f8" d="M16 4h1M14 5h1M20 6h2M17 7h1M15 8h1" />
<path stroke="#ffe8f8" d="M17 4h3M15 5h2M13 6h2M11 7h3M10 8h2" />
<path stroke="#ffd8f8" d="M23 4h1M19 5h3M17 6h1M15 7h1M13 8h1" />
<path stroke="#ff6040" d="M24 4h1M22 7h1M23 37h1M31 43h1M29 44h1M31 44h1M31 45h1" />
<path stroke="#f8ff08" d="M27 4h2M6 22h1M36 22h1M37 23h1M6 25h1M18 25h1M24 25h3M30 25h2" />
<path stroke="#ff4020" d="M29 4h1M24 7h1" />
<path stroke="#c060c0" d="M31 4h1M31 6h1M22 39h1M23 40h1" />
<path stroke="#a020e0" d="M32 4h1" />
<path stroke="#2018ff" d="M35 4h1M1 25h1M46 26h1M2 28h1M42 36h1M39 37h1M34 43h1" />
<path stroke="#ff60e0" d="M13 5h1" />
<path stroke="#ffd0f8" d="M22 5h1M18 6h2M16 7h1M14 8h1" />
<path stroke="#ffa0a0" d="M23 5h1M31 5h1M21 8h1M21 34h1M25 39h1M26 40h1M30 45h1" />
<path stroke="#fff800" d="M26 5h1" />
<path stroke="#f8ff10" d="M27 5h2M35 21h1M38 24h1M39 25h1M7 26h2" />
<path stroke="#ff6000" d="M29 5h1M29 6h1M22 10h1M3 11h1" />
<path stroke="#e0c0ff" d="M32 5h1M32 6h1" />
<path stroke="#c888f0" d="M33 5h1M15 9h1M20 38h1M19 39h3M19 40h4" />
<path stroke="#4020ff" d="M34 5h1" />
<path stroke="#0830ff" d="M36 5h1M35 6h1M34 7h1M6 12h1" />
<path stroke="#58a8e8" d="M37 5h1M34 8h1M33 10h1M32 12h1M20 16h1M31 16h1M13 34h1M11 36h1" />
<path stroke="#98ffe0" d="M38 5h1M39 6h1M35 8h1M37 8h1M34 9h1M11 37h1" />
<path stroke="#80ffe0" d="M39 5h1M21 16h1M12 38h1" />
<path stroke="#60ffe0" d="M40 5h1M40 6h1M11 38h1" />
<path stroke="#20e0e0" d="M41 5h1" />
<path stroke="#0060ff" d="M42 5h1M10 41h1" />
<path stroke="#ffb8f0" d="M12 6h1M22 6h1M20 7h2M17 8h2M16 9h1" />
<path stroke="#ff2020" d="M23 6h1M27 42h1" />
<path stroke="#ffff18" d="M26 6h3M25 7h4M24 8h1M23 24h1" />
<path stroke="#5850f8" d="M33 6h1M16 10h1M17 11h1M18 12h1M36 37h1M19 38h1M36 39h1M16 42h1M19 43h1" />
<path stroke="#a0e0e0" d="M36 6h1M35 7h1M10 11h2M3 15h1M28 18h1M26 19h1" />
<path stroke="#a8ffe0" d="M37 6h2M36 7h2M36 8h1M35 9h1M35 10h1M8 12h2M11 12h1M21 17h1M13 35h1M12 36h1M13 37h1" />
<path stroke="#38ffd0" d="M41 6h1M39 7h1M41 7h1" />
<path stroke="#20ffc0" d="M42 6h1M42 7h1" />
<path stroke="#00c0e0" d="M43 6h1M24 33h1M9 40h1M11 41h1" />
<path stroke="#0030f8" d="M44 6h1M45 7h1M16 12h1M25 33h1M11 34h1M24 34h1M35 35h1M17 38h1M7 39h1M8 40h1" />
<path stroke="#ff8060" d="M31 7h1M19 11h1M45 23h1M24 38h1" />
<path stroke="#9068f0" d="M32 7h1M35 37h1M36 38h2M34 39h2M34 40h1M17 41h1M20 43h2M23 43h3" />
<path stroke="#a0ffe0" d="M38 7h1M36 9h1" />
<path stroke="#30ffc8" d="M40 7h1M38 8h1M42 8h1M10 38h1M13 38h1" />
<path stroke="#08ffc0" d="M43 7h1M8 39h8" />
<path stroke="#20e0c0" d="M44 7h1M45 8h1M24 32h1M7 37h1M17 37h1" />
<path stroke="#ffa8f0" d="M19 8h2M17 9h4M17 10h3M18 11h1" />
<path stroke="#ffff20" d="M25 8h4M24 9h5M40 26h1" />
<path stroke="#c02040" d="M31 8h1M4 11h1M24 41h1M25 42h1" />
<path stroke="#2038f8" d="M32 8h1M11 9h1M8 11h1M20 22h1M20 29h1M22 32h1M37 37h2" />
<path stroke="#20ffb8" d="M39 8h3" />
<path stroke="#18ffb0" d="M43 8h1M8 38h2" />
<path stroke="#10ffa8" d="M44 8h1M14 38h3" />
<path stroke="#a068e0" d="M8 9h1M33 36h1M20 37h1M33 37h1M33 38h1M33 39h1M33 40h1" />
<path stroke="#6080ff" d="M9 9h1M9 11h1M29 17h1" />
<path stroke="#4060ff" d="M10 9h1" />
<path stroke="#3840f8" d="M13 9h1M34 36h1M18 39h1" />
<path stroke="#5868f0" d="M14 9h1M33 14h1M27 18h1M21 29h1M28 30h1M27 32h1M22 33h1M26 34h1M12 35h1M23 35h1M25 35h1" />
<path stroke="#ff2018" d="M21 9h1M46 23h1M21 35h1M31 36h1M31 37h1M31 38h1M4 39h1M26 41h1M31 46h1" />
<path stroke="#5018b0" d="M31 9h1M2 13h1M46 21h1M4 35h1M20 36h1M33 41h1M33 43h1M33 46h1" />
<path stroke="#2058f0" d="M33 9h1M32 11h1M11 35h1" />
<path stroke="#38ffb0" d="M37 9h1M43 9h1M9 37h1M14 37h1" />
<path stroke="#28ffa8" d="M38 9h1M41 9h2M8 37h1" />
<path stroke="#28ffa0" d="M39 9h2" />
<path stroke="#20ff80" d="M44 9h1M25 31h1M15 37h2" />
<path stroke="#18ff70" d="M45 9h1M41 10h1M24 31h1M16 36h2" />
<path stroke="#0040e0" d="M46 9h1M19 34h1M40 35h1" />
<path stroke="#981068" d="M6 10h1M30 11h1M44 24h1M45 25h2M33 44h1M33 45h1" />
<path stroke="#2020e0" d="M7 10h1M31 10h1M45 22h1" />
<path stroke="#ffff28" d="M23 10h6M22 11h7M29 12h1M15 21h1" />
<path stroke="#f80008" d="M30 10h1M19 12h2M46 22h1M47 24h1M31 35h1M22 38h1M28 45h1" />
<path stroke="#98ffc0" d="M34 10h1M12 11h1M33 11h1M35 11h1M30 17h1" />
<path stroke="#60ffa0" d="M36 10h1" />
<path stroke="#38ff90" d="M37 10h1M36 11h1M42 11h1M7 36h1M10 36h1M15 36h1" />
<path stroke="#10ff58" d="M38 10h3M44 10h2M40 11h1" />
<path stroke="#38ff98" d="M42 10h1M8 36h1" />
<path stroke="#40ffa0" d="M43 10h1M43 11h1M22 17h1M9 36h1" />
<path stroke="#0880b0" d="M46 10h1M46 11h1M46 13h1M31 18h1M26 30h1M25 32h1M41 34h1M6 35h1M36 35h1M39 35h1" />
<path stroke="#4818b8" d="M5 11h1M30 12h1M33 42h1" />
<path stroke="#80e0a0" d="M13 11h1M32 13h1M25 19h1" />
<path stroke="#2060c0" d="M14 11h1M18 16h1M20 17h1M23 17h1M23 30h1M11 31h1" />
<path stroke="#0830f8" d="M15 11h1M31 14h1M21 15h1M13 33h1" />
<path stroke="#a0ffc0" d="M34 11h1M33 12h1M15 35h1" />
<path stroke="#18ff40" d="M37 11h3M41 11h1M44 11h2M38 13h1M25 30h1M10 33h1M35 34h1" />
<path stroke="#a02060" d="M3 12h1" />
<path stroke="#80a0ff" d="M7 12h1M4 14h1M20 15h1M21 33h1M22 34h1" />
<path stroke="#e0ffe0" d="M10 12h1M7 13h4M6 14h2M29 18h1M15 34h1M14 35h1M13 36h2M24 36h1M12 37h1" />
<path stroke="#b0ffb8" d="M12 12h1M34 12h1M11 13h1M33 13h2M8 14h1M22 18h1M15 33h1M14 34h1" />
<path stroke="#80ffa0" d="M13 12h1" />
<path stroke="#60ff80" d="M14 12h1M35 12h1M42 12h2M21 18h1M8 35h1" />
<path stroke="#60e080" d="M15 12h1M40 15h1M34 16h1M6 34h1" />
<path stroke="#ffff38" d="M22 12h7M22 13h8M24 14h5" />
<path stroke="#40ff60" d="M36 12h1M41 12h1M7 34h1M16 34h1M7 35h1" />
<path stroke="#18ff28" d="M37 12h2M44 12h2M9 34h2M17 34h2M36 34h5" />
<path stroke="#20a080" d="M39 12h1M46 12h1M17 14h1M37 16h1M12 17h1M19 32h1M42 33h1" />
<path stroke="#0858c8" d="M40 12h1M38 14h1M46 14h1M34 34h1" />
<path stroke="#6880e0" d="M5 13h1M11 23h1M19 23h1M44 23h1M21 30h1M37 30h2M21 31h1M29 31h1M21 32h1M5 38h1" />
<path stroke="#c0e0c0" d="M6 13h1M2 16h1M21 22h1M18 24h1M39 30h1M28 31h1M27 33h1M30 33h1" />
<path stroke="#98ff98" d="M12 13h2M42 13h1" />
<path stroke="#70ff78" d="M14 13h1M35 13h1M41 13h1M43 13h1M8 34h1" />
<path stroke="#60ff60" d="M15 13h1M23 18h1" />
<path stroke="#18c878" d="M16 13h1M31 17h1M10 32h1M18 35h1M37 35h2" />
<path stroke="#0830f0" d="M17 13h1M31 19h1M18 28h1M4 30h1M23 31h1M5 33h1M6 36h1" />
<path stroke="#4018c0" d="M19 13h1M20 35h1M6 40h1" />
<path stroke="#5068b0" d="M21 13h1M27 16h1M33 18h1M12 21h1M9 24h1M14 24h1M34 24h1M35 25h1" />
<path stroke="#0820f8" d="M30 13h1M20 19h1M10 21h1M34 26h1M31 33h1M32 34h1" />
<path stroke="#20ff20" d="M36 13h2M44 13h2M30 18h1M30 19h1" />
<path stroke="#1870a8" d="M40 13h1M32 32h1M19 33h1M33 33h1" />
<path stroke="#e0ffc0" d="M5 14h1M4 15h1M6 15h1M3 16h1M5 16h1M3 17h2M27 19h1M26 20h1M40 30h1M38 32h1" />
<path stroke="#98ff80" d="M9 14h1M34 14h1M41 14h1" />
<path stroke="#80ff68" d="M10 14h5M8 33h1" />
<path stroke="#68ff50" d="M15 14h1M21 19h1M6 33h2" />
<path stroke="#38ff20" d="M16 14h1M37 15h1M29 19h1M26 29h1M9 33h1M17 33h2M34 33h8" />
<path stroke="#4058c0" d="M22 14h1M32 22h1M9 23h1M36 26h1" />
<path stroke="#e0e040" d="M23 14h1M24 15h1" />
<path stroke="#c0e040" d="M29 14h1M44 20h1M2 21h1" />
<path stroke="#60ff40" d="M35 14h1M45 16h1M24 29h1" />
<path stroke="#20ff18" d="M36 14h2M44 14h2" />
<path stroke="#4870a0" d="M40 14h1M18 17h1M10 18h1M45 18h1M1 19h1M9 19h1M37 19h1M42 21h1M17 22h1M30 23h1M16 26h1M17 28h1M38 28h1M4 29h1M19 31h1" />
<path stroke="#c0ffa0" d="M42 14h1M42 15h1M42 16h1M2 17h1M25 20h1M37 31h1M15 32h2M37 32h1M39 32h1M14 33h1" />
<path stroke="#80ff60" d="M43 14h1M23 19h2" />
<path stroke="#1028f8" d="M2 15h1M26 17h1M36 29h1" />
<path stroke="#e8ffc8" d="M5 15h1M4 16h1M28 19h1M27 20h1M33 30h1M38 31h3" />
<path stroke="#a0ff80" d="M7 15h1M41 15h1M22 19h1M36 32h1" />
<path stroke="#98ff58" d="M8 15h1M15 15h1M34 15h1M7 32h1" />
<path stroke="#80ff48" d="M9 15h1M14 15h1M6 32h1M8 32h1" />
<path stroke="#68ff38" d="M10 15h1M13 15h1M43 15h1M35 32h1" />
<path stroke="#48ff18" d="M11 15h2M35 15h1" />
<path stroke="#60ff20" d="M16 15h1" />
<path stroke="#40ff18" d="M17 15h1M36 15h1M44 15h2M25 29h1" />
<path stroke="#0028f8" d="M18 15h1M26 31h1" />
<path stroke="#2040e0" d="M23 15h1M29 15h1M33 17h1M20 18h1M45 19h1M1 20h1M14 27h1M31 29h1M31 31h1M43 32h1M5 37h1" />
<path stroke="#ffff48" d="M25 15h3M14 23h1M23 23h1M17 25h1M11 27h1" />
<path stroke="#a0a860" d="M28 15h1M25 16h1M13 19h1M38 21h1M39 22h1M15 23h1M40 23h1M41 24h1M3 25h1M9 25h1M32 25h1M42 25h1M18 26h1M33 26h1M4 28h1M15 28h1" />
<path stroke="#0028ff" d="M32 15h1M25 18h1M27 29h1" />
<path stroke="#b8ff68" d="M6 16h1M41 16h1M23 20h1M36 30h1M16 31h1M35 31h2" />
<path stroke="#a8ff48" d="M7 16h1M15 16h1M40 17h1M24 20h1M7 31h1M15 31h1M34 31h1" />
<path stroke="#98ff38" d="M8 16h1M22 20h1M28 20h1M24 28h1M6 31h1M8 31h1" />
<path stroke="#68ff10" d="M9 16h5M17 16h1M35 16h2M43 16h2M29 20h1" />
<path stroke="#78ff18" d="M14 16h1M16 16h1M25 28h2M9 31h2M17 31h2M32 31h2M41 31h2" />
<path stroke="#0060e0" d="M22 16h1M32 16h1M18 36h1M16 39h1" />
<path stroke="#e0ff60" d="M26 16h1M3 18h1M14 19h1M13 20h1M23 21h1M25 21h1" />
<path stroke="#1030f8" d="M30 16h1M29 29h1M33 29h1" />
<path stroke="#68a870" d="M40 16h1M45 17h1M30 20h1M32 21h1M33 23h1M31 24h1M17 26h1M28 27h2M37 27h1M16 28h1M39 29h1M12 30h1M5 31h1M43 31h1" />
<path stroke="#60a0a0" d="M1 17h1M13 18h1M24 18h1M40 19h1M18 21h1M21 21h1M2 22h1M16 25h1M43 26h1M23 29h1M13 30h1M14 31h1M14 32h1" />
<path stroke="#c0ff48" d="M5 17h1M42 17h1M16 30h1M34 30h2" />
<path stroke="#b8ff38" d="M6 17h1M15 17h2M34 17h1M41 17h1M6 30h3M32 30h1M41 30h1" />
<path stroke="#a0ff20" d="M7 17h1M33 27h1M18 29h1M5 30h1M15 30h1M17 30h1" />
<path stroke="#88ff10" d="M8 17h3M14 17h1M17 17h1M35 17h2M43 17h2M9 30h3M14 30h1M18 30h1M42 30h2" />
<path stroke="#80e040" d="M11 17h1M13 17h1M18 18h1M21 20h1M27 27h1M30 27h3M34 27h1M23 28h1" />
<path stroke="#2868b0" d="M37 17h1M27 28h1M5 32h1" />
<path stroke="#a0c840" d="M1 18h1M40 18h1M33 19h1M8 20h1M41 20h1M43 21h1M13 26h1M19 26h1M31 30h1" />
<path stroke="#d0ff38" d="M2 18h1M4 18h1M15 18h1M24 21h1M7 29h2M41 29h1" />
<path stroke="#c8ff28" d="M5 18h2M16 18h1M34 18h1M6 29h1M16 29h1" />
<path stroke="#a8ff08" d="M7 18h3M17 18h1M35 18h2M43 18h2M23 27h1M25 27h2M10 29h5M42 29h2" />
<path stroke="#c0ff20" d="M14 18h1M41 18h2M24 27h1M5 29h1M9 29h1M15 29h1M17 29h1" />
<path stroke="#2858c0" d="M37 18h1M30 21h1M22 27h1M19 30h1" />
<path stroke="#d0ff18" d="M2 19h1M6 19h1M16 19h1M11 28h1M14 28h1M40 28h1" />
<path stroke="#d8ff18" d="M3 19h3M34 19h1M8 21h1M4 27h1M5 28h1" />
<path stroke="#c0ff08" d="M7 19h2M17 19h2M36 19h1M41 19h4" />
<path stroke="#f0ff78" d="M15 19h1M14 20h2M26 21h1M12 22h1M23 22h1M9 26h1M10 27h1" />
<path stroke="#c8ff08" d="M35 19h1M12 28h2M39 28h1M42 28h2" />
<path stroke="#e0ff08" d="M2 20h2M33 20h1M25 26h1M42 27h1" />
<path stroke="#e8ff10" d="M4 20h3M34 20h2M24 22h4M24 26h1M5 27h2M40 27h2" />
<path stroke="#d8ff08" d="M7 20h1M16 20h2M36 20h1M42 20h2M28 22h1M21 26h3M26 26h7M38 27h2" />
<path stroke="#0828f8" d="M10 20h2M15 25h1M35 27h1M20 28h1" />
<path stroke="#c0e020" d="M18 20h1M37 20h1M29 22h1M20 26h1M43 27h1" />
<path stroke="#3858c0" d="M32 20h1M44 21h1M3 26h1M15 26h1M34 29h2" />
<path stroke="#f0ff08" d="M3 21h4M33 21h2M36 21h2M29 23h1M4 26h3M39 26h1M41 26h2" />
<path stroke="#e8ff00" d="M7 21h1M16 21h2M37 26h2" />
<path stroke="#ffff60" d="M13 21h1M22 24h1M12 26h1M9 27h1" />
<path stroke="#ffffa0" d="M14 21h1M14 22h1M13 23h1M11 24h3" />
<path stroke="#e0ff40" d="M22 21h1M27 21h1M13 25h1M8 27h1M40 29h1" />
<path stroke="#a0ff08" d="M28 21h2" />
<path stroke="#f8ff00" d="M3 22h3M7 22h2M15 22h2M33 22h3M37 22h2M24 23h5M4 25h2M7 25h2M19 25h5M27 25h3M36 25h3M40 25h2" />
<path stroke="#ffff80" d="M13 22h1M22 22h1M12 23h1" />
<path stroke="#3048d0" d="M2 23h1M16 23h1M43 23h1M44 28h1M44 29h1" />
<path stroke="#ffffa8" d="M20 23h2M19 24h1M11 25h1" />
<path stroke="#ffffb8" d="M22 23h1M20 24h2M10 25h1M12 25h1M11 26h1M28 32h2M28 33h2M22 35h1" />
<path stroke="#e0ff20" d="M3 24h1M7 27h1M12 27h2M6 28h5M41 28h1" />
<path stroke="#3048f0" d="M10 24h1M17 24h1M32 29h1M29 30h1M12 32h1M30 32h1" />
<path stroke="#3810ff" d="M1 26h1M2 29h1M3 33h1M34 41h1" />
<path stroke="#ffffc8" d="M10 26h1M27 34h4M26 35h5M23 36h1M27 41h1" />
<path stroke="#1018ff" d="M45 26h1M4 34h1M41 36h1M14 43h1" />
<path stroke="#1818ff" d="M46 27h1M3 31h1" />
<path stroke="#4008ff" d="M2 30h1M38 38h1M37 39h1M17 43h1M26 44h1" />
<path stroke="#20ff60" d="M24 30h1M9 35h1" />
<path stroke="#3008ff" d="M3 32h1M40 37h1M34 42h1M15 43h1" />
<path stroke="#58ff18" d="M9 32h1M17 32h2M33 32h2M40 32h3" />
<path stroke="#a0ffa0" d="M16 33h1" />
<path stroke="#18ff50" d="M10 35h1M16 35h2" />
<path stroke="#1028ff" d="M33 35h1M19 37h1M17 40h1" />
<path stroke="#ffffd8" d="M25 36h6M24 37h7" />
<path stroke="#60ffc0" d="M10 37h1" />
<path stroke="#e02020" d="M21 37h1" />
<path stroke="#a878f0" d="M34 37h1M18 40h1M18 42h6" />
<path stroke="#3800ff" d="M41 37h1M39 38h2M38 39h2M36 40h3M35 41h3M35 42h1M16 43h1M15 44h11M19 45h8" />
<path stroke="#0080ff" d="M7 38h1M15 40h1M14 41h1" />
<path stroke="#ffffe0" d="M25 38h6M26 39h5M28 42h1" />
<path stroke="#9870f0" d="M34 38h2M17 42h1M24 42h1M22 43h1" />
<path stroke="#08ffd8" d="M10 40h5" />
<path stroke="#ffffe8" d="M27 40h4M28 41h3M29 42h2M29 43h1" />
<path stroke="#6020ff" d="M35 40h1M18 43h1" />
<path stroke="#00ffe0" d="M12 41h2" />
<path stroke="#b880f0" d="M18 41h5" />
<path stroke="#b078f0" d="M23 41h1" />
<path stroke="#ffffff" d="M30 43h1M30 44h1" />
<path stroke="#e00020" d="M27 44h1M30 47h1M32 47h1" />
<path stroke="#6000e0" d="M27 45h1" />
</svg>