<?xml version="1.0" encoding="UTF-8"?>
<svg width="2048" height="2048" version="1.1" viewBox="0 0 2048 2048" xmlns="http://www.w3.org/2000/svg">
 <circle cx="1024" cy="1024" r="968.2" fill="#fff"/>
 <path d="m1024 0a1024 1024 0 00-1024 1024 1024 1024 0 001024 1024 1024 1024 0 001024-1024 1024 1024 0 00-1024-1024zm.023 71.99a952 951.9 0 01952 951.9 952 951.9 0 01-952 951.9 952 951.9 0 01-952-951.9 952 951.9 0 01952-951.9z" fill="#010000" style="paint-order:stroke fill markers"/>
 <g>
  <path d="m722.44 425.33s291.86-139.14 336.45-77.301c44.59 61.841-522.15 202.15-676.96 487-231.06 425.16 154.04 803.93 648.58 715.04 494.54-88.896 770.19-405.83 591.83-745.96-178.36-340.13-782.35-351.15-1037.7 23.756-255.38 374.91 77.019 525.08 214.84 540.54 137.82 15.46 456.68-8.0437 502.65-212.58 48.644-216.44-103.19-334.44-295.92-316.93-170.25 15.46-237.14 177.79-154.04 282.15-39.818-205.78 222.01-198.43 267.54-104.36 36.032 74.445 12.887 162.18-77.019 216.44-174.07 105.06-439 17.732-482.38-154.6-38.043-151.1 120.65-334.08 287.81-382.64 111.32-32.335 271.59-77.301 441.85 54.111 170.25 131.41 231.06 363.32 137.82 487-93.234 123.68-236.53 218.92-478.33 216.44-411.49-4.219-601.91-280.65-514.81-556.57 90.889-287.92 705.33-398.1 851.26-510.19 145.93-112.09-99.37-223.54-279.7-216.44-199.12 7.8339-344.56 88.896-344.56 88.896" stroke-width=".97646"/>
  <path d="m660.74 266.86s113.5 332.4 194.57 510.19c56.593 124.11 295.92 715.04 304.02 800.07 8.1073 85.031 0 104.36 0 104.36s-57.506-135.34-283.75-30.92c-95.773 44.202-85.29 132-28.376 197.12 60.805 69.571 298.46 128.24 401.31-57.976 102.09-184.83-316.84-875.73-364.83-1039.7-48.644-166.2-133.77-502.46-133.77-502.46" stroke-width=".97646"/>
  <ellipse cx="1384.3" cy="1582.9" rx="83.1" ry="83.1" stroke-width="1.155"/>
 </g>
</svg>
