<svg xmlns="http://www.w3.org/2000/svg" viewBox="0 -0.5 39 39" shape-rendering="crispEdges">
<metadata>Made with Pixels to Svg https://codepen.io/shshaw/pen/XbxvNj</metadata>
<path stroke="#3a7296" d="M8 0h1M8 1h1M8 2h2M8 3h3M8 4h4M8 5h5M8 6h6M9 7h6M10 8h6M11 9h6M12 10h5M13 11h1M15 12h2M14 13h3M24 20h1" />
<path stroke="#f7f7fa" d="M9 0h1M9 1h2M10 2h2M11 3h2M12 4h2M13 5h2M14 6h2M15 7h2M16 8h2M17 9h1" />
<path stroke="#7ebee6" d="M10 0h5M11 1h5M12 2h5M13 3h5M14 4h5M15 5h5M16 6h5M17 7h3M18 8h1M27 15h2M27 16h3M27 17h2M28 18h1" />
<path stroke="#0a22be" d="M23 6h2M22 7h1M25 7h1M21 8h3M26 8h1M18 9h1M20 9h1M24 9h1M27 9h1M19 10h4M25 10h1M17 11h1M19 11h1M22 11h3M26 11h1M17 12h1M19 12h2M25 12h2M18 13h1M21 13h2M26 13h1M23 14h4" />
<path stroke="#000000" d="M20 7h2M23 7h2M24 8h1M17 10h1M28 10h1M28 11h1M27 12h2M17 13h1M27 13h1M16 14h2M27 14h1M26 16h1M31 17h2M30 18h2M23 19h1M29 19h1M14 20h1M16 20h2M27 20h2M17 22h2M31 22h1M7 23h1M17 23h2M32 23h1M6 24h1M11 24h2M18 24h2M26 24h1M29 24h1M6 25h1M20 25h3M25 25h3M32 25h2M6 26h1M19 26h1M21 26h2M27 26h1M31 26h2M7 27h1M23 27h1M32 27h1M34 27h1M7 28h1M19 28h2M24 28h2M33 28h1M7 29h1M18 29h2M25 29h2M17 30h4M27 30h1M17 31h1M19 31h2M28 31h1M3 32h1M28 32h1M3 33h1M27 33h2M3 34h1M17 34h6M3 35h1M13 35h13M4 36h1M10 36h17M10 37h10M6 38h6" />
<path stroke="#1266ee" d="M19 8h1M25 8h1M19 9h1M21 9h1M25 9h2M18 10h1M26 10h2M20 11h2M27 11h1M18 12h1M25 13h1" />
<path stroke="#5692f6" d="M20 8h1M22 9h2M25 11h1M21 12h1M24 12h1M23 13h2" />
<path stroke="#96bafa" d="M23 10h2M22 12h2" />
<path stroke="#ce0707" d="M14 11h3M18 11h1M3 12h5M12 12h3M1 13h2M8 13h4M26 15h1M14 24h1M12 26h1M16 26h1M13 27h3M14 28h1" />
<path stroke="#72421a" d="M19 13h2M18 14h2M21 14h2M22 15h2M25 15h1M21 16h1M25 16h1M22 17h1M24 17h1M22 18h1M29 20h2M30 22h1M29 23h3M30 24h1M29 25h1M31 25h1M30 26h1" />
<path stroke="#e28a3a" d="M20 14h1M20 15h2M24 15h1M22 16h2M23 17h1" />
<path stroke="#f2a666" d="M31 14h1M31 15h3M24 16h1M28 21h3M29 22h1M31 24h2M30 25h1" />
<path stroke="#966e06" d="M16 15h1M15 16h1M30 16h4M14 17h1M16 17h1M18 17h1M25 17h2M29 17h2M14 18h2M23 18h3M29 18h1M14 19h2M20 19h1M24 19h3M28 19h1M18 20h1M20 20h1M22 20h2M25 20h2M26 21h1M19 25h1" />
<path stroke="#461e6e" d="M17 15h3M19 16h2M20 17h2M20 18h2M21 19h2M21 20h1M14 21h2M22 21h4M14 22h3M12 23h2M15 23h2M19 23h1M25 23h1M15 24h3M20 24h2M28 24h1M16 25h3M28 25h1M28 26h2" />
<path stroke="#face6a" d="M16 16h3M19 17h1M19 18h1M15 20h1M19 20h1M16 21h3" />
<path stroke="#8d8a8a" d="M15 17h1M16 19h1M18 19h2M6 36h3M6 37h3" />
<path stroke="#c6c6c6" d="M17 17h1M16 18h3M17 19h1" />
<path stroke="#fae2aa" d="M26 18h2M27 19h1" />
<path stroke="#7a3db6" d="M19 21h3M27 21h1M19 22h3M25 22h4M14 23h1M20 23h3M26 23h3M22 24h2M25 24h1M27 24h1M23 25h2" />
<path stroke="#a555f3" d="M22 22h1" />
<path stroke="#be80f8" d="M23 22h2M23 23h2M24 24h1" />
<path stroke="#fab616" d="M8 23h1M7 24h1M7 25h1M7 26h2M18 26h1M8 27h1M17 27h1M8 28h1M16 28h1M8 29h2M15 29h1M9 30h6" />
<path stroke="#8e2b2b" d="M9 23h1M8 24h3M13 24h1M8 25h1M11 25h5M9 26h1M13 26h3M17 26h1M9 27h1M16 27h1M9 28h1M15 28h1M10 29h5" />
<path stroke="#ee5252" d="M9 25h2M10 26h2M10 27h3M10 28h4" />
<path stroke="#2e3a42" d="M20 26h1M18 27h3M17 28h2M21 28h2M16 29h2M20 29h4M5 30h4M15 30h2M21 30h4M28 30h1M4 31h1M9 31h6M16 31h1M21 31h4M27 31h1M29 31h3M4 32h1M15 32h2M21 32h2M29 32h1M31 32h1M4 33h1M14 33h2M22 33h2M29 33h3M5 34h1M12 34h2M23 34h3M29 34h2M7 35h1M9 35h4M9 36h1M9 37h1" />
<path stroke="#8e520a" d="M33 26h1M33 27h1" />
<path stroke="#586b7c" d="M21 27h2M23 28h1M24 29h1M25 30h2M25 31h2M23 32h5M30 32h1M24 33h3" />
<path stroke="#829db6" d="M5 31h4M15 31h1M5 32h1M8 32h7M5 33h1M9 33h5M6 34h6" />
<path stroke="#cbdce3" d="M6 32h2M6 33h3" />
<path stroke="#5e3602" d="M4 34h1M26 34h3M4 35h3M8 35h1M26 35h4M5 36h1M27 36h2M5 37h1" />
</svg>