<?xml version="1.0" encoding="UTF-8" standalone="no"?>
<svg
   width="2048"
   height="2048"
   version="1.1"
   viewBox="0 0 2048 2048"
   id="svg14"
   sodipodi:docname="dessin-et-illustration.svg"
   inkscape:version="1.2.1 (9c6d41e410, 2022-07-14)"
   xmlns:inkscape="http://www.inkscape.org/namespaces/inkscape"
   xmlns:sodipodi="http://sodipodi.sourceforge.net/DTD/sodipodi-0.dtd"
   xmlns="http://www.w3.org/2000/svg"
   xmlns:svg="http://www.w3.org/2000/svg">
  <defs
     id="defs18">
    <pattern
       id="EMFhbasepattern"
       patternUnits="userSpaceOnUse"
       width="6"
       height="6"
       x="0"
       y="0" />
    <pattern
       id="EMFhbasepattern-1"
       patternUnits="userSpaceOnUse"
       width="6"
       height="6"
       x="0"
       y="0" />
    <pattern
       id="EMFhbasepattern-2"
       patternUnits="userSpaceOnUse"
       width="6"
       height="6"
       x="0"
       y="0" />
  </defs>
  <sodipodi:namedview
     id="namedview16"
     pagecolor="#505050"
     bordercolor="#eeeeee"
     borderopacity="1"
     inkscape:showpageshadow="0"
     inkscape:pageopacity="0"
     inkscape:pagecheckerboard="0"
     inkscape:deskcolor="#505050"
     showgrid="false"
     inkscape:zoom="0.20678711"
     inkscape:cx="26.597403"
     inkscape:cy="923.65525"
     inkscape:window-width="1920"
     inkscape:window-height="1027"
     inkscape:window-x="-8"
     inkscape:window-y="-8"
     inkscape:window-maximized="1"
     inkscape:current-layer="svg14" />
  <circle
     cx="1024"
     cy="1024"
     r="968.2"
     fill="#fff"
     id="circle2" />
  <path
     d="m1024 0a1024 1024 0 00-1024 1024 1024 1024 0 001024 1024 1024 1024 0 001024-1024 1024 1024 0 00-1024-1024zm.0234 71.99a952 951.9 0 01952 951.9 952 951.9 0 01-952 951.9 952 951.9 0 01-952-951.9 952 951.9 0 01952-951.9z"
     fill="#010000"
     style="paint-order:stroke fill markers"
     id="path4" />
  <path
     style="fill:#000000;fill-opacity:1;fill-rule:nonzero;stroke:none;stroke-width:2.99007"
     d="m 1443.3583,1304.1885 c 0,-4.0171 -2.9676,-7.0301 -6.9241,-8.0345 -0.9892,-2.0084 -1.9784,-4.0172 -2.9674,-5.0213 -24.7289,-34.1463 -105.839,4.0171 -73.1972,44.189 11.8697,15.0643 36.5984,19.0818 54.4031,11.0473 13.8483,-6.0258 32.642,-25.1074 28.6856,-42.1805 z"
     id="path8395" />
  <path
     style="fill:#000000;fill-opacity:1;fill-rule:nonzero;stroke:none;stroke-width:2.99007"
     d="m 853.8248,1450.8161 c -1.97803,0 -3.95646,0 -5.9349,0 -1.97817,-1.0046 -3.95647,-3.0129 -6.92399,-4.0172 -21.76113,-12.0517 -44.51162,-3.0131 -59.34894,16.0687 -11.86979,15.0646 -19.78311,35.1502 -7.91333,52.2235 28.68553,39.1675 85.06697,10.0429 102.87165,-24.1031 10.88085,-19.0816 -0.98893,-40.1719 -22.75049,-40.1719 z"
     id="path8397" />
  <path
     style="fill:#000000;fill-opacity:1;fill-rule:nonzero;stroke:none;stroke-width:2.99007"
     d="m 1268.2787,1577.3576 c -1.9783,-1.0045 -8.9023,-2.0087 -10.8808,2.0083 -11.8697,28.1206 -29.6744,52.2238 -60.3379,61.2624 -35.6095,10.043 -44.512,-19.0818 -69.2406,-34.1461 -4.9458,-2.0086 -12.8592,-2.0086 -16.8155,2.0086 -16.8157,19.0816 4.9457,44.1892 21.7611,54.2321 21.7615,13.0557 47.4793,16.0686 71.219,9.0386 26.7069,-6.0259 52.425,-23.0988 68.2512,-45.1934 11.8698,-16.0687 17.8047,-39.1675 -3.9565,-49.2105 z"
     id="path8399" />
  <path
     style="fill:#000000;fill-opacity:1;fill-rule:nonzero;stroke:none;stroke-width:2.99007"
     d="m 1198.049,1005.912 c -5.935,-6.02578 -13.8479,-8.0345 -20.7723,-5.0217 -6.924,2.0088 -11.8698,6.0258 -9.8913,14.0603 1.9784,7.0301 4.9459,13.0558 6.924,20.086 2.9673,7.0301 2.9673,14.0601 4.9458,21.0905 3.9564,11.047 25.7181,10.0428 29.6746,0 5.9348,-15.0647 0.989,-39.1678 -10.8808,-50.2151 z"
     id="path8401" />
  <path
     style="fill:#000000;fill-opacity:1;fill-rule:nonzero;stroke:none;stroke-width:2.99007"
     d="m 1876.6058,722.69996 c -1.9784,-35.15052 -29.6744,-82.35233 -65.2838,-100.42969 15.8262,-10.04318 28.6854,-23.09897 38.5768,-40.17214 13.8482,-27.11602 14.8372,-57.24497 6.924,-83.3565 0.9892,-1.00451 1.9784,-2.00871 1.9784,-3.01291 9.8913,-32.13763 -11.8698,-47.2021 -39.566,-54.23208 -1.9782,-3.01289 -4.9459,-5.02159 -7.9132,-7.03029 -4.946,-4.01708 -16.8158,-2.0084 -20.7722,2.0087 -13.8482,-1.0042 -26.7071,0 -35.6094,0 -29.6743,2.0087 -62.3163,13.05577 -82.0996,33.14182 -8.9021,-11.04737 -21.761,-17.07316 -38.5767,-20.08605 -19.7828,-3.0129 -38.5769,-3.0129 -58.3597,0 -28.6855,4.01739 -56.3816,17.07317 -78.1431,35.15052 -76.1643,-55.23627 -185.9598,-84.36101 -264.1029,-19.08155 -16.8154,14.05997 -30.6636,31.13313 -41.5444,49.21049 2.9674,-33.14183 -7.9129,-70.30075 -18.7938,-97.4168 -14.8372,-40.17212 -39.566,-77.33105 -73.1971,-104.44711 -53.414,-42.18052 -132.54582,-50.21491 -187.9383,-13.05589 -20.7722,-21.09026 -56.38158,-35.15042 -79.1322,-46.1977 -23.73958,-11.04728 -47.47915,-16.06875 -68.25123,4.0172 -1.97816,1.00431 -2.96751,3.01288 -4.94554,4.0172 -4.94594,-23.09887 -24.72906,-46.19773 -46.49021,-57.24499 -42.53334,-22.09456 -98.91491,-29.12464 -141.44853,-4.0172 -53.41406,30.12893 -52.42473,104.44699 -21.76115,152.65323 -32.64198,8.03448 -59.349,34.14633 -79.13212,60.25788 -25.71768,33.14182 -41.54428,76.32683 -40.55492,118.50734 0.98903,31.13314 9.89138,61.26209 25.71769,88.37811 -29.67451,-4.01708 -65.2839,7.03 -86.05604,21.09027 -48.46824,31.13314 -75.17528,85.36522 -77.15369,142.61016 -0.98905,9.03875 -2.96744,27.11609 0,38.16343 -5.9349,-2.00859 -10.88044,-3.01284 -16.81535,-4.01705 -27.6964,-4.01746 -56.38153,-3.01297 -82.09951,8.03424 -34.62034,13.05607 -66.27295,47.20203 -64.29485,85.36547 -6.92395,0 -14.83725,1.00422 -19.78281,3.01282 -21.761483,8.03424 -45.501079,22.09453 -63.305646,38.16316 -42.5334469,39.16767 -30.663642,95.40855 6.924055,133.57195 17.804762,18.0773 38.576919,25.1073 59.349051,24.103 0,40.1717 27.6961,79.3394 61.3271,97.4168 22.75054,19.0816 57.37088,25.1074 84.07793,11.0473 0,0 0,1.0044 -0.98935,2.0085 -6.92397,58.2495 41.54429,102.4386 84.07792,132.5674 27.6961,20.0861 56.38155,38.1634 89.0235,50.2151 15.82628,6.0257 33.63098,10.0427 50.44662,10.0427 0.98906,0 0.98906,0 1.9781,0 -1.9781,3.0129 -3.95648,7.0303 -4.94555,11.0474 -7.91328,25.1073 8.90236,52.2235 21.76121,72.3095 13.84819,19.0815 32.64194,38.1634 54.40314,48.2064 6.92423,4.017 19.78311,6.0257 29.67446,3.0127 9.89177,33.1419 26.70711,63.271 48.46852,89.3827 42.53332,49.2106 103.86072,89.3823 167.16625,109.4684 -15.82624,10.0429 -30.66353,26.1118 -41.54426,37.1589 -17.80468,19.0818 -34.62041,39.1675 -50.44667,60.2579 -11.86979,16.0689 -35.60936,39.1676 -25.718,61.2624 8.90239,20.0858 33.63133,23.0985 52.42511,24.1031 26.70695,2.0084 52.42496,2.0084 78.14271,-1.0046 36.59871,-3.0127 72.20809,-11.0469 104.85008,-28.1201 0,6.0258 0.98906,11.0474 1.97802,17.0732 1.97843,15.0644 3.95686,32.1374 8.90241,47.2016 7.91333,25.1077 26.70708,44.1893 53.41405,47.2022 23.7396,2.0086 44.5118,-10.0429 57.3709,-30.1289 6.924,-11.0475 9.8914,-22.0946 13.8479,-34.146 4.9457,-13.0561 11.8698,-26.1119 12.8592,-39.1678 0.989,-6.0257 -11.8699,-6.0257 -14.8372,-5.0216 -15.8268,6.0259 -22.7506,19.0816 -28.6855,35.1508 -3.9566,11.0471 -13.8483,50.2145 -31.65291,46.1975 -16.8153,-3.0129 -20.77217,-40.1718 -22.75021,-54.232 -3.95687,-18.0773 -4.94593,-39.1678 -15.82664,-54.2321 0.98934,0 0.98934,-1.0042 1.97842,-1.0042 6.92398,-7.0303 -7.91332,-10.0434 -11.86978,-9.0389 -2.96754,0 -4.94582,0 -7.91333,1.0043 -1.97818,0 -2.96753,0 -4.94555,0 -58.35999,9.0388 -116.71986,23.0989 -177.0579,20.0861 -2.96752,0 -10.8807,-1.0045 -15.82638,-1.0045 8.90241,-13.0558 17.80482,-26.1116 27.69618,-38.1632 5.93488,-8.0345 69.2403,-80.3439 67.26227,-82.3525 10.88045,11.0473 45.50072,4.0173 31.65264,-13.0559 -9.8915,-13.0557 -20.77219,-17.0732 -32.64199,-17.0732 -26.70709,-14.0599 -54.40313,-26.1114 -80.12114,-43.1846 -30.66356,-20.0862 -59.34897,-42.1805 -83.08853,-71.3053 -20.77221,-26.1115 -37.58754,-56.2405 -45.50087,-89.3823 -4.94582,-17.0731 -6.92397,-36.1547 -4.94582,-54.232 0,0 0,-1.0045 0,-1.0045 5.9349,4.0172 13.84824,5.0215 18.79405,3.0127 117.70866,-57.2447 231.46103,-117.5028 354.11555,-161.6917 124.63284,-45.1933 256.18974,-77.331 388.73584,-87.374 36.5984,-3.0128 74.1861,-5.0215 111.774,-4.0173 31.6527,0 62.3165,3.0128 93.9692,3.0128 -4.9456,11.0475 0,24.1032 10.8806,28.1207 0.9891,3.0128 0.9891,6.0257 0.9891,9.0387 2.9673,17.0729 3.9568,35.1502 4.9457,52.2234 0,32.1375 -1.9784,63.2707 -8.9021,94.4038 -12.8589,64.2754 -38.577,125.5374 -76.1646,178.7653 -81.1104,114.4899 -208.7106,180.7736 -345.2135,198.8509 -80.1211,11.0471 -164.1986,6.0259 -242.34165,-14.0602 -5.9349,-2.0086 -19.78285,4.017 -8.90241,8.0345 143.42686,53.2276 304.65846,50.2147 444.12856,-16.069 3.9565,-3.0128 8.9021,-5.0213 13.8482,-7.0299 12.8589,6.0257 25.7176,14.0603 36.5983,24.103 12.8588,14.0602 21.7613,32.1377 24.7287,50.2151 -23.7397,6.0256 -47.4792,9.0387 -72.208,8.0342 -22.7504,0 -57.3704,-7.0299 -77.1534,9.0386 -15.8263,14.0603 -10.8809,34.1464 -11.8699,52.2238 0,1.0042 -1.9784,10.0428 0,11.0471 -4.9459,0 -16.8156,-6.0259 -20.7721,-7.0301 -15.8264,-5.0215 -30.6637,-11.0474 -47.4792,-13.0558 -3.9565,0 -21.7613,4.0172 -13.8484,11.047 28.6857,28.1208 120.6765,63.2708 122.6549,-4.0171 0.989,-9.0385 -4.9458,-25.1073 3.9565,-29.1244 3.9566,-2.0086 21.7612,4.0171 26.707,5.0214 6.924,1.0042 13.8482,1.0042 21.7614,1.0042 33.6311,0 66.273,-5.0212 98.915,-14.0601 7.913,-2.0086 16.8155,-8.0345 16.8155,-17.0731 -2.9675,-42.1804 -30.6636,-90.3868 -70.2297,-110.4729 104.8498,-68.2919 182.9925,-174.7476 212.6672,-299.2805 8.9023,-39.1678 13.8481,-80.344 11.8698,-120.5158 0,-18.0774 -2.9675,-37.1589 -5.9349,-56.2409 -0.9892,-4.0171 -1.9781,-8.0342 -2.9674,-13.0558 30.6638,-22.0944 32.642,-76.3264 12.8591,-109.4682 14.8372,-3.013 28.685,-9.0387 41.5442,-16.069 38.5769,-23.0988 65.284,-63.2708 81.1103,-105.4513 30.6635,-79.33954 19.783,-160.68769 -10.8808,-236.00991 1.9783,-1.00424 4.9458,-2.00874 6.9243,-3.01297 5.9349,0 11.8698,1.00423 17.8047,2.00873 15.8262,2.00833 30.6635,5.02129 45.5008,3.01283 29.6743,-6.02578 51.4357,-31.13343 50.4465,-62.26652 z M 597.6351,282.81743 c 7.91333,0 17.80469,-1.00431 24.72866,2.00857 6.92425,2.00862 10.8807,8.03439 16.81561,13.05591 10.8807,9.03868 43.52269,6.02577 40.55531,-14.06017 -5.93489,-42.18052 -54.40354,-48.20632 -88.03448,-39.16763 -5.93488,1.00427 -12.85885,4.01717 -18.79376,6.02578 22.75024,-58.24926 119.68697,-41.17623 148.3725,3.01289 -10.88071,42.18051 -38.57688,83.35674 -76.16467,106.45573 -8.90229,6.02579 -21.76115,12.05156 -32.64187,8.03419 -10.88083,-4.0171 -19.78311,-15.06448 -25.71802,-24.10317 -9.89149,-15.06442 -16.81532,-34.14605 -18.79375,-53.22774 7.91333,-6.02579 21.76115,-7.03005 29.67447,-8.03436 z M 175.26824,1022.9852 c -0.98934,12.0514 -8.90235,24.103 -18.79405,35.1501 -3.9565,-1.0042 -8.90234,0 -12.85884,0 -9.8914,3.013 -17.80471,12.0515 -23.7396,22.0948 -8.90235,2.0084 -18.79375,1.0043 -25.717992,-5.0216 -12.85884,-9.0386 -24.728647,-25.1073 -30.663542,-41.1763 19.783087,-5.0213 44.511734,-19.0816 65.283884,-8.0343 13.8482,9.0387 46.49014,-7.0301 30.66356,-24.1031 -15.82631,-18.07734 -38.57686,-18.07734 -60.338052,-13.05605 -11.869801,3.01297 -28.685446,9.03875 -39.565901,19.08185 0.989063,-7.0303 2.967457,-14.06016 5.934903,-20.08595 7.912993,-13.05579 20.772148,-22.09453 32.641949,-30.12905 6.923941,-4.01705 30.663541,-22.0944 39.565881,-18.07734 1.9784,3.01295 7.9133,5.02168 13.8482,5.02168 0,12.05158 2.96746,24.10314 8.90235,35.1502 6.92394,13.05608 15.8263,28.12046 14.83725,43.18506 z M 1784.615,680.51942 c -0.9892,5.02161 -2.9676,11.0474 -4.946,16.06868 -3.9565,9.03868 -8.9022,18.07736 -14.8372,25.10766 -22.7502,-1.00451 -46.4898,3.01289 -67.262,13.05577 -1.9784,1.0042 -3.9568,2.00868 -4.9457,3.01289 -22.7506,-3.01289 -44.5119,-2.00869 -66.273,0 -22.7505,3.0129 -55.3924,5.02159 -69.2408,26.11189 -1.9781,3.01282 0.9894,7.02988 2.9676,8.0341 21.7614,11.04748 48.4685,3.01297 71.2188,0 17.8047,-3.01282 35.6094,-4.01705 53.414,-6.02578 0.9893,4.01746 3.9569,8.03451 6.9243,11.04746 39.5659,40.17177 56.3816,111.47707 49.4573,177.76068 -5.935,-3.01295 -16.8154,-2.00872 -19.783,4.01706 -13.848,32.13765 -29.6743,58.24947 -57.3706,79.33977 -14.8373,12.0516 -30.6638,23.0987 -47.4794,33.1417 -14.8371,9.0388 -33.631,17.0728 -46.4898,30.129 -1.9785,1.0043 -1.9785,2.0085 -2.9673,3.013 -3.957,-2.0087 -6.9243,-5.0216 -9.8919,-7.0302 -34.6201,-27.1163 -95.9473,-53.2276 -135.5133,-21.0904 -6.9243,6.0258 5.9349,10.0433 8.9025,10.0433 36.5983,3.0126 65.2837,9.0385 96.9364,30.1289 13.8482,10.0426 77.1536,47.2017 58.3601,70.3008 -5.9352,7.0298 9.8912,9.0386 14.8369,7.0298 1.9786,-2.0083 3.9566,-4.0171 5.9351,-5.0213 0,8.0342 -0.9892,16.0688 -4.9458,22.0946 -5.935,0 -12.8589,3.0128 -13.848,8.0343 -59.3489,-14.0601 -124.6328,-13.0562 -183.9819,-11.0473 -38.5767,2.0087 -77.1536,5.0216 -115.7306,11.0473 10.8804,-19.0818 -0.9891,-52.2236 -11.8697,-69.2964 -16.8156,-27.1161 -44.5116,-46.1979 -76.1646,-52.2236 -0.989,0 -6.9239,1.0045 -3.9565,3.0127 18.7937,21.0903 46.4899,32.1376 61.327,58.2496 6.9244,12.0515 11.8699,24.1032 12.8592,38.163 0,8.0346 -1.9784,17.0732 0,24.1032 -22.7504,4.0174 -45.5011,8.0345 -67.2623,12.0516 -130.5679,27.116 -254.21154,73.3139 -375.87709,126.5416 -26.70695,-14.06 -45.50074,-29.1244 -58.35959,-57.245 -8.90229,-19.0816 -10.88073,-41.1761 -15.82655,-61.2621 55.39251,-20.0861 112.76302,-35.1508 166.17707,-59.2537 12.85913,-6.0258 0,-13.056 -7.91293,-12.0516 -57.37091,7.0303 -114.74142,21.0903 -170.13391,41.1764 -3.95661,-3.013 -14.8373,-4.0172 -16.81548,1.004 0,2.0088 -0.98934,4.0176 -0.98934,6.0259 -67.26186,27.1161 -130.56769,64.2754 -183.98188,112.4817 -5.93482,5.0213 9.89177,8.0341 13.84823,6.0258 51.43574,-35.1506 110.7847,-62.2666 169.14471,-84.3612 2.96736,27.1161 13.84808,54.2321 25.71788,73.3137 13.84794,20.0861 33.63105,38.1634 56.38155,44.1893 -62.31647,27.116 -124.63279,56.2404 -183.98186,89.3823 1.97815,-8.0342 1.97815,-16.0688 -1.9783,-22.0945 -1.97845,-3.0129 -6.92398,-4.0171 -9.8915,-3.0129 -17.80468,3.0129 -26.70695,18.0775 -30.66381,36.1548 -1.97804,-4.017 -3.95647,-9.0388 -5.93491,-14.0604 -5.93489,-13.0558 -10.88044,-28.12 -12.85888,-42.1805 -1.97828,-24.103 11.8698,-40.1717 14.83732,-62.2663 0.98907,-5.0215 -7.91333,-7.0302 -10.88072,-7.0302 -7.91305,1.0045 -13.84794,3.013 -19.78284,7.0302 0,-2.0087 0,-3.0126 0,-4.0172 -2.96752,-10.043 -20.77217,-7.0301 -25.71801,-2.0085 0,0 -0.98904,1.0042 -0.98904,1.0042 -20.77214,5.0215 -52.42504,-16.0686 -68.25132,-26.1119 -14.83725,-10.0429 -28.68547,-22.0944 -40.55526,-35.1501 -13.8482,-15.0646 -22.75055,-23.099 -43.52268,-19.0819 -5.9349,1.0045 -12.85884,4.0173 -13.8479,10.0431 -3.9568,14.06 -0.98935,23.0987 4.94555,32.1373 -19.7828,-16.0687 -38.57684,-35.1501 -45.5008,-60.2578 -3.9565,-14.06 -0.98905,-25.1074 2.96746,-39.1677 0.98905,-4.017 1.97839,-10.0428 1.97839,-14.06 6.92395,-6.0258 12.85883,-12.0514 17.8047,-19.0818 1.9781,-4.0171 1.9781,-7.0302 1.9781,-10.0428 13.84819,-17.0732 31.65289,-33.142 48.46853,-47.2021 17.8047,-15.0645 46.48985,-27.1161 59.349,-46.1977 2.96745,-5.0215 -6.92425,-7.03 -8.90234,-7.03 -26.70706,-1.0045 -55.3925,19.0816 -75.17559,35.1502 -18.79375,16.0691 -33.631,33.1419 -47.47921,52.2237 -25.71769,4.017 -49.45728,18.0774 -77.15367,16.0685 -21.76121,-2.0085 -41.5443,-12.0515 -52.42475,-33.1415 -3.9568,-8.0346 -5.93489,-16.0689 -5.93489,-25.1075 0,-8.0344 2.96746,-18.0773 2.96746,-27.116 4.94553,-4.0174 8.90232,-8.0345 12.85884,-12.0517 16.81564,-19.0818 27.69609,-43.1849 19.7831,-68.2922 -8.90236,-27.11601 -32.64194,-42.18052 -49.45759,-62.26662 0.98904,-1.00422 0.98904,-3.01282 1.97839,-5.02128 0,-2.00872 0,-4.01732 -0.98935,-6.02577 3.9568,-17.07314 5.93491,-34.14639 18.79404,-49.21078 13.8479,-18.07735 33.63101,-28.12032 55.39219,-30.12891 22.75056,-3.01297 42.53364,5.02153 64.29485,9.0386 16.81564,3.01296 32.64194,-5.02128 36.59844,-23.09863 3.95679,-20.08608 0.98935,-42.18049 5.9349,-63.2708 5.9349,-22.09467 14.83725,-43.18497 30.66384,-60.25785 12.85885,-15.06446 27.69609,-27.11603 46.48984,-32.13764 16.81565,-5.02158 25.71799,-1.00417 40.55524,7.03002 14.83725,8.03446 34.62035,1.00449 40.55524,-13.0558 12.85885,11.04739 26.70706,21.09026 41.5443,27.11605 -6.92423,13.05577 -16.81565,26.11185 -22.75055,39.16763 -8.90234,20.08603 -15.82629,41.17633 -17.8047,63.27075 -4.94584,43.1847 14.83724,78.33531 46.49015,106.4555 33.63094,30.12891 70.22939,56.24078 103.86073,86.36971 17.80468,16.06862 34.62001,32.13762 49.4573,49.21042 7.91333,8.0346 15.82654,17.0731 22.7505,26.1119 1.97846,1.0043 2.96752,3.0129 3.95648,4.0171 -3.95648,-1.0042 -7.91294,1.0044 -9.89136,2.0088 -26.70711,22.0943 -15.82626,78.335 -1.97844,105.4512 1.97844,5.0215 17.80469,5.0215 17.80469,-2.0087 -1.97803,-18.0774 -3.95647,-35.1502 -2.96739,-53.2276 0.98936,-15.0646 7.91333,-32.1376 2.96739,-46.1979 8.90242,8.0345 18.79417,15.0646 26.70709,25.1076 1.97844,2.0084 8.90241,1.0042 7.91332,-1.0045 -5.93488,-9.0385 -7.91332,-20.0856 -12.85887,-29.1245 -3.95674,-8.0344 -9.89162,-15.0643 -14.83731,-22.0945 -13.84808,-17.073 -27.69629,-33.1419 -41.54426,-50.2148 -27.6963,-32.13768 -59.34894,-60.25786 -91.99093,-87.37395 -30.66381,-24.10313 -65.28384,-49.21077 -68.25136,-92.39548 -3.95671,-43.18472 25.71775,-95.40843 58.35974,-123.52868 3.95673,-3.01289 6.92424,-9.03867 7.91333,-14.06025 3.95647,-3.01292 7.91319,-5.02131 11.86979,-8.03419 15.82625,-9.0387 32.64184,-18.07737 49.45759,-27.11606 30.66355,-14.06027 64.29448,-26.11183 95.9474,-39.16762 8.90227,-4.01738 1.97843,-11.04737 -4.94582,-11.04737 -39.56596,2.0087 -75.17534,14.06027 -110.7847,32.13763 -16.81573,9.03868 -32.64199,18.07736 -47.47916,30.12895 -1.97843,1.00419 -2.96752,2.0084 -4.94594,3.01288 -13.84782,-8.03448 -28.68513,-13.05606 -42.53335,-22.09476 -11.86979,-8.03419 -22.75053,-18.07735 -30.66353,-29.12443 -18.79402,-24.10314 -29.67448,-53.22789 -28.68543,-84.36103 0,-28.12054 9.89141,-56.24079 27.69611,-78.33523 19.78306,-26.11184 49.45753,-35.15053 72.20817,-56.24078 0.98894,-1.00421 1.97803,-2.00869 2.96737,-4.0171 17.80469,6.02581 37.58754,6.02581 59.3491,-4.01739 24.72851,-12.05158 44.51162,-29.12443 59.34893,-51.21919 0.98908,0 0.98908,0 1.97803,0 1.97844,-1.00423 2.9675,-2.00855 3.95686,-3.01284 0.9891,-2.00861 1.97804,-2.00861 2.96738,0 2.96754,-1.00428 5.9349,-4.01717 7.91306,-5.0215 1.97845,-2.00856 2.96739,-3.01289 4.94581,-4.01718 3.95661,8.0344 17.8047,7.03007 24.72867,3.01288 11.86978,-7.03007 19.78311,-14.06017 28.68538,-24.10313 2.96753,-3.01289 6.92399,-8.03439 9.89152,-11.04728 0.98935,0 2.96737,1.00431 4.9458,2.00859 9.89134,4.01719 9.89134,4.01719 9.89134,4.01719 9.89177,5.0215 63.30583,22.09456 60.33846,38.16327 -3.95688,26.11185 34.62,40.17212 47.47914,17.07316 34.62003,-58.24932 109.7956,-47.20204 154.3074,-8.03447 25.7175,22.09475 43.5224,53.22789 57.3705,85.36551 6.924,17.07287 12.8589,34.14604 16.8158,53.22758 3.9564,22.09476 2.9673,44.18922 7.9129,66.28367 0,4.01739 4.9458,6.02579 9.8917,5.02159 -6.9242,14.06027 -11.8698,29.12475 -17.8046,44.18921 -9.8918,26.11155 -18.7942,53.2276 -20.7721,81.34813 -3.957,30.12893 1.9779,59.25338 8.9021,88.37806 8.9025,36.15483 15.8264,72.30953 18.7938,109.46846 2.9675,39.16767 4.946,77.33095 7.9133,116.49863 0,4.01702 9.8914,4.01702 9.8914,0 6.9239,-71.30519 7.9134,-143.61472 -5.935,-214.91963 -7.9131,-35.15055 -14.8371,-70.30108 -8.9022,-106.45581 5.9349,-34.14602 18.7938,-66.28365 31.653,-98.42099 11.8698,-30.12893 25.7175,-62.26657 53.414,-80.34393 22.7503,-15.06447 52.4246,-21.09027 79.1319,-22.09446 59.3489,-3.01289 110.7848,30.12895 152.3291,69.29657 10.8805,11.04708 32.6421,12.05156 43.5225,0 17.8047,-19.08187 39.5663,-32.13763 65.2839,-36.15474 10.8808,-2.00868 22.7506,-2.00868 33.6313,0 12.8587,2.00841 21.7611,4.01711 30.6636,3.01291 0,4.01708 -0.9892,9.03867 -0.9892,14.05996 1.9781,47.2021 36.5985,98.42131 84.0776,109.46867 9.8915,2.0084 19.7831,3.01288 29.6745,3.01288 4.946,7.03 12.8589,13.05578 19.7831,19.08158 0,1.00419 -0.9892,1.00419 -0.9892,2.00871 -3.9566,6.02578 -0.9892,13.05576 5.9348,15.06446 -6.924,-2.0087 -2.9674,0 -3.9564,7.02996 z m -58.36,-80.34392 c -32.642,-24.10315 -54.403,-86.36941 -18.7937,-115.49416 17.8048,-16.06867 41.5442,-19.08155 64.2948,-19.08155 0,0 0.989,0 0.989,0 -15.8262,16.06866 -29.6744,36.15472 -33.6309,57.24497 -3.9569,22.09446 29.6745,25.10736 38.5767,8.03419 4.9457,-12.05158 8.9024,-25.10734 15.8264,-36.15472 4.9458,-9.0387 10.8807,-17.07286 16.8157,-25.10736 15.8263,27.11605 22.7501,58.24919 11.8697,89.38263 -12.8591,39.16762 -58.36,68.29205 -95.9477,41.176 z"
     id="path8403" />
</svg>
