<svg width="2048" height="2048" version="1.1" viewBox="0 0 2048 2048" xmlns="http://www.w3.org/2000/svg">
  <circle cx="1024" cy="1024" r="968.2" fill="#fff"/>
  <path d="m1024 0a1024 1024 0 00-1024 1024 1024 1024 0 001024 1024 1024 1024 0 001024-1024 1024 1024 0 00-1024-1024zm.023 71.99a952 951.9 0 01952 951.9 952 951.9 0 01-952 951.9 952 951.9 0 01-952-951.9 952 951.9 0 01952-951.9z" fill="#010000" style="paint-order:stroke fill markers"/>
  <path d="m1487 246.9c-160.1 205.6-335.8 430-399.1 506.2-74.33 89.5-129.1 140.3-149.3 156.7 49.8 4.453 137.8 21.61 220.2 84.86 76.8 58.97 117.8 128.9 137.9 173.6 17.4-26.5 60.26-94.9 113.1-202.6 38.62-78.66 175.2-309.5 305-525.5a904.4 904.3 0 00-11.88-13.77l-296.7 503.1c-12.74-41.76-45.76-63.26-81.76-81.76l313.4-488a904.4 904.3 0 00-150.9-112.8zm160.1 122.4-209.9 322.6c21.36 6.928 42.72 23.35 64.08 55.24l192.2-329.2c-.5333-1.708-1.344-2.805-1.93-4.396a904.4 904.3 0 00-42.8-43.46c-.5743-.216-1.098-.5445-1.676-.752zm-221 344.7-81.76 128.2c23.73 15.59 48.39 28.62 64.08 66.29l79.55-139.2c-14.36-30.94-35.01-49.31-61.87-55.24zm149.2 104.7-52.59 7.488c-28.63 45.2-67.64 108.3-75.54 130-1.786 4.912-8.25 18.95-13.06 29.78l84.94-14.16 71.88 25 302.1 277.5a904.4 904.3 0 0031.71-194.8l-293.2-223.4-56.25-37.5zm-696.3 99.15-758.9 108.1a904.4 904.3 0 0019.75 175.8l685-114.2 54.13-169.7zm51.59 5.814c-1.268-.0784-1.949.05462-3.135.01172l-17.74 56.21c37.81 5.533 108.8 22.25 193.8 74.39 91.8 56.37 122.3 132.2 132.2 169.5l43.29-35.34c-5.939-34.88-32.75-100.1-144.6-176.1-103.6-70.43-169.2-86.49-203.8-88.63zm572.9 76.28-81.45 13.34c-33.6 72.7-87.3 183.5-87.3 183.5l-350 281.2h-50l-84.38 68.75-18.75 3.125s-53.12 62.5-93.75 43.75 1.562-110.9 1.562-110.9l-9.375-31.25 31.25-73.44-15.62-42.19 71.3-223.5-672.5 110.1a904.4 904.3 0 00879.9 705.6 904.4 904.3 0 00855.9-617.9l-298.7-279.1-78.12-31.25zm-602.2 6.85-97.64 309.4c31.7 1.66 77.42 8.56 114.3 34.23 34.05 23.71 54.38 55.14 66.08 78.9l231.5-189c-11.34-33.32-45.66-109.3-136.3-166.1-66.19-41.44-136-59.59-177.9-67.37zm-80.59 327.6c-2.339-.059-4.174.1146-6.316.1582l-37.2 92.53s31.67 10.75 51.99 24.81 34.46 46.61 34.46 46.61l95.61-73.81c-7.15-17.12-22.86-45.97-53.46-64.33-33.15-19.89-63.25-25.41-85.07-25.96zm-44.52 114.8s-28.91 68.75-31.25 82.03c-2.344 13.28 22.66 23.44 35.16 22.66s63.28-56.25 63.28-56.25l-7.031-10.94s-45.31 48.44-57.03 52.34c-11.72 3.906-20.31-7.031-21.09-15.62-.7812-8.594 31.25-71.88 31.25-71.88l-13.28-2.344z"/>
</svg>
