<svg xmlns="http://www.w3.org/2000/svg" viewBox="0 -0.5 90 90" shape-rendering="crispEdges">
<metadata>Made with Pixels to Svg https://codepen.io/shshaw/pen/XbxvNj</metadata>
<path stroke="#846f54" d="M36 1h4M49 1h4M33 2h3M53 2h3M31 3h2M56 3h2M25 4h3M30 4h1M58 4h1M61 4h3M23 5h1M29 5h1M56 5h1M59 5h1M65 5h1M65 6h1M65 7h1M65 8h1M18 9h1M23 9h1M65 9h1M17 10h1M25 10h3M61 10h3M26 12h1M28 12h2M59 12h2M26 13h1M30 13h1M58 13h1M25 14h1M32 14h1M56 14h2M16 15h1M34 15h3M52 15h3M37 16h4M48 16h4M32 17h1M40 17h6M47 17h2M16 18h1M23 18h1M32 18h3M38 18h1M49 18h2M17 19h1M32 19h1M34 19h3M38 19h1M47 19h4M20 20h1M32 20h1M34 20h3M38 20h1M46 20h1M48 20h3M17 21h2M34 21h1M36 21h1M38 21h1M47 21h1M49 21h2M54 21h1M21 22h1M33 22h1M48 22h2M56 22h1M34 23h1M36 23h1M39 23h1M42 23h1M47 23h1M49 23h1M54 23h1M56 23h1M22 24h1M30 24h1M36 24h1M39 24h1M48 24h2M52 24h1M54 24h1M56 24h1M14 25h1M22 25h1M30 25h1M51 25h2M54 25h1M56 25h1M14 26h1M30 26h1M38 26h1M50 26h1M52 26h1M54 26h3M15 27h1M30 27h1M51 27h6M18 28h1M30 28h1M40 28h3M46 28h3M52 28h1M54 28h3M16 29h1M30 29h1M51 29h4M56 29h1M20 30h1M30 30h1M43 30h1M45 30h1M52 30h1M54 30h1M56 30h1M13 31h1M30 31h1M37 31h1M40 31h3M46 31h3M52 31h3M56 31h1M13 32h1M32 32h1M34 32h1M37 32h1M40 32h3M46 32h3M54 32h1M34 33h2M37 33h1M40 33h3M44 33h1M46 33h3M54 33h1M33 34h1M39 34h2M48 34h2M54 34h1M14 35h1M31 35h1M33 35h1M35 35h1M39 35h1M49 35h1M17 36h1M33 36h1M35 36h1M39 36h1M49 36h1M57 36h1M79 36h1M14 37h1M39 37h2M48 37h2M57 37h1M79 37h2M17 38h1M38 38h1M40 38h2M47 38h2M50 38h1M57 38h1M79 38h2M12 39h1M39 39h1M49 39h1M53 39h1M58 39h1M37 40h1M51 40h1M53 40h1M55 40h1M58 40h1M37 41h1M51 41h1M53 41h1M55 41h1M19 42h1M38 42h1M44 42h1M51 42h1M53 42h1M55 42h1M59 42h1M11 43h1M44 43h1M51 43h1M54 43h3M58 43h2M51 44h1M54 44h3M59 44h1M12 45h1M49 45h1M52 45h1M54 45h3M59 45h2M81 45h2M16 46h1M27 46h2M31 46h1M38 46h1M43 46h1M52 46h1M54 46h2M59 46h3M81 46h2M11 47h1M13 47h1M29 47h1M31 47h1M52 47h1M59 47h3M81 47h2M10 48h1M16 48h2M26 48h1M28 48h1M31 48h1M34 48h1M53 48h1M55 48h7M68 48h1M10 49h1M30 49h1M33 49h3M53 49h1M55 49h6M67 49h2M10 50h1M23 50h1M25 50h1M30 50h1M33 50h1M36 50h1M53 50h1M55 50h6M68 50h1M23 51h2M53 51h2M56 51h5M68 51h1M18 52h1M23 52h1M29 52h1M53 52h2M56 52h4M61 52h2M66 52h2M10 53h1M18 53h1M29 53h1M50 53h1M56 53h7M12 54h1M48 54h1M50 54h1M55 54h5M61 54h2M10 55h1M14 55h2M28 55h1M36 55h1M55 55h6M62 55h1M84 55h1M12 56h1M28 56h1M36 56h1M42 56h2M46 56h1M56 56h2M59 56h3M65 56h3M83 56h1M9 57h1M15 57h1M36 57h1M42 57h2M46 57h1M56 57h1M58 57h1M60 57h2M65 57h4M9 58h1M22 58h1M42 58h2M46 58h1M58 58h1M61 58h1M64 58h6M71 58h1M84 58h1M21 59h1M31 59h1M39 59h1M42 59h1M46 59h1M57 59h1M59 59h1M63 59h6M71 59h1M27 60h2M31 60h1M35 60h1M39 60h1M42 60h1M46 60h1M49 60h1M57 60h1M59 60h1M64 60h5M71 60h1M24 61h1M30 61h1M34 61h2M49 61h1M55 61h1M58 61h1M61 61h2M65 61h3M70 61h2M11 62h1M23 62h1M33 62h3M49 62h2M56 62h1M59 62h5M66 62h2M85 62h1M9 63h1M14 63h1M23 63h1M27 63h3M43 63h3M49 63h2M53 63h1M56 63h1M60 63h5M69 63h1M12 64h1M22 64h2M53 64h2M61 64h4M68 64h1M70 64h1M84 64h1M15 65h1M23 65h2M49 65h1M61 65h4M67 65h1M26 66h1M28 66h2M53 66h1M62 66h2M66 66h1M83 66h1M29 67h1M52 67h2M25 68h1M28 68h2M31 68h1M43 68h1M52 68h1M57 68h1M63 68h1M84 68h1M24 69h1M31 69h1M52 69h1M54 69h1M57 69h1M10 70h1M21 70h1M24 70h1M31 70h1M34 70h4M51 70h2M83 70h1M13 71h1M23 71h1M26 71h1M34 71h1M53 71h3M65 71h1M83 71h1M16 72h1M23 72h1M29 72h1M42 72h1M65 72h1M10 73h1M21 73h1M23 73h1M26 73h2M32 73h1M42 73h1M57 73h1M63 73h2M10 74h1M17 74h1M21 74h3M29 74h2M36 74h2M41 74h1M43 74h1M52 74h2M58 74h5M9 75h1M12 75h1M17 75h1M22 75h2M27 75h1M29 75h1M54 75h1M61 75h4M11 76h1M13 76h1M15 76h1M17 76h1M25 76h1M40 76h2M44 76h1M51 76h14M13 77h2M16 77h2M27 77h1M39 77h1M53 77h10M16 78h2M21 78h3M26 78h20M21 79h3M41 79h5M24 80h1M41 80h1M26 81h13M40 81h1M31 83h4M34 84h1M33 85h1M34 86h1" />
<path stroke="#a08d72" d="M40 1h9M36 2h1M52 2h1M33 3h1M36 3h1M40 3h1M44 3h1M48 3h1M52 3h1M55 3h1M31 4h1M34 4h2M53 4h1M57 4h1M24 5h1M27 5h2M32 5h1M60 5h1M64 5h1M23 6h1M28 6h2M31 6h2M59 6h1M23 7h1M28 7h1M60 7h1M68 7h1M23 8h2M27 8h2M58 8h1M60 8h1M68 8h2M19 9h1M24 9h4M30 9h1M57 9h1M64 9h1M69 9h1M20 10h1M31 10h1M70 10h1M21 11h2M57 11h1M70 11h1M17 12h2M33 12h1M55 12h2M58 12h1M67 12h1M71 12h1M17 13h1M19 13h2M25 13h1M29 13h1M34 13h1M51 13h1M55 13h1M59 13h1M68 13h1M17 14h1M21 14h2M30 14h2M39 14h1M43 14h1M49 14h1M52 14h1M58 14h1M69 14h1M17 15h1M19 15h1M22 15h2M32 15h2M40 15h1M42 15h1M45 15h2M48 15h1M55 15h2M69 15h1M16 16h1M23 16h1M34 16h3M41 16h1M44 16h1M52 16h3M70 16h1M73 16h1M16 17h1M22 17h2M37 17h3M49 17h3M70 17h1M73 17h1M17 18h2M21 18h2M40 18h6M47 18h2M74 18h1M18 19h3M22 19h1M46 19h1M72 19h1M21 20h2M72 20h1M75 20h1M72 21h1M75 21h1M15 22h2M20 22h1M17 23h3M32 23h2M35 23h1M73 23h1M75 23h1M19 24h3M33 24h1M35 24h1M43 24h1M74 24h1M17 25h1M21 25h1M32 25h2M35 25h1M74 25h1M15 26h2M21 26h1M33 26h1M35 26h1M39 26h1M45 26h1M47 26h1M49 26h1M77 26h1M16 27h3M21 27h1M32 27h4M38 27h2M49 27h2M78 27h1M19 28h3M33 28h1M35 28h1M38 28h1M43 28h3M50 28h1M33 29h1M35 29h1M38 29h1M44 29h1M75 29h2M14 30h2M33 30h1M35 30h1M38 30h1M44 30h1M76 30h1M78 30h1M18 31h3M33 31h1M35 31h1M38 31h1M44 31h1M76 31h1M78 31h1M16 32h1M20 32h1M33 32h1M35 32h1M38 32h1M44 32h1M77 32h2M13 33h1M18 33h1M20 33h1M38 33h1M50 33h1M77 33h1M13 34h1M20 34h1M38 34h1M44 34h1M46 34h1M80 34h1M15 35h3M20 35h1M38 35h1M41 35h1M47 35h1M50 35h1M79 35h1M18 36h3M38 36h1M41 36h1M47 36h1M50 36h1M78 36h1M13 37h1M34 37h1M38 37h1M42 37h1M46 37h1M50 37h1M16 38h1M34 38h1M39 38h1M49 38h1M13 39h3M30 39h2M34 39h1M36 39h1M40 39h1M42 39h1M47 39h2M79 39h1M81 39h1M12 40h1M16 40h1M18 40h2M30 40h2M33 40h4M79 40h3M12 41h1M14 41h1M19 41h1M30 41h7M39 41h1M41 41h1M43 41h1M45 41h6M80 41h1M12 42h1M29 42h8M39 42h3M43 42h1M45 42h1M47 42h1M49 42h1M12 43h1M29 43h8M39 43h1M41 43h3M45 43h6M82 43h1M12 44h1M15 44h1M29 44h2M32 44h5M39 44h3M43 44h1M45 44h1M47 44h1M49 44h1M13 45h3M18 45h1M28 45h2M32 45h2M35 45h2M39 45h4M45 45h2M80 45h1M17 46h2M29 46h1M35 46h1M45 46h6M80 46h1M83 46h1M12 47h1M22 47h1M35 47h1M44 47h1M46 47h6M66 47h2M80 47h1M11 48h1M14 48h2M22 48h1M27 48h1M35 48h1M45 48h5M51 48h1M66 48h2M11 49h2M14 49h1M27 49h1M44 49h1M46 49h4M51 49h1M81 49h1M83 49h1M16 50h1M18 50h1M26 50h3M45 50h5M81 50h1M10 51h1M17 51h2M26 51h3M32 51h1M34 51h1M36 51h5M44 51h1M46 51h4M81 51h1M10 52h1M17 52h1M22 52h1M25 52h4M31 52h2M35 52h1M37 52h4M45 52h3M49 52h1M11 53h2M24 53h4M31 53h1M34 53h1M38 53h3M44 53h1M46 53h2M49 53h1M83 53h2M13 54h3M17 54h1M23 54h1M25 54h3M31 54h1M33 54h1M35 54h1M37 54h1M39 54h2M45 54h3M49 54h1M82 54h1M16 55h2M22 55h2M25 55h3M31 55h1M33 55h1M38 55h3M81 55h2M21 56h2M24 56h3M30 56h2M35 56h1M37 56h1M40 56h1M47 56h4M82 56h1M10 57h3M21 57h2M24 57h3M30 57h1M38 57h1M40 57h1M48 57h1M50 57h1M10 58h1M14 58h2M23 58h2M26 58h1M30 58h1M37 58h1M40 58h1M48 58h1M50 58h1M10 59h1M16 59h2M22 59h3M26 59h1M29 59h2M32 59h1M36 59h1M38 59h1M50 59h1M82 59h2M10 60h1M17 60h1M25 60h1M33 60h2M37 60h1M50 60h2M53 60h1M82 60h1M10 61h2M17 61h1M25 61h1M36 61h1M38 61h1M43 61h3M51 61h1M53 61h2M12 62h1M17 62h1M30 62h2M43 62h3M51 62h1M53 62h2M15 63h3M30 63h2M34 63h1M36 63h1M57 63h1M84 63h2M11 64h1M30 64h2M35 64h1M37 64h1M55 64h5M83 64h1M9 65h2M14 65h1M21 65h1M30 65h2M36 65h1M53 65h8M83 65h1M9 66h1M11 66h1M13 66h1M22 66h1M30 66h1M35 66h1M37 66h1M54 66h2M57 66h4M85 66h1M9 67h1M11 67h1M16 67h1M30 67h1M34 67h1M36 67h2M39 67h1M47 67h1M49 67h2M54 67h2M58 67h4M9 68h1M16 68h1M21 68h3M33 68h1M37 68h1M39 68h1M45 68h3M49 68h2M55 68h1M58 68h2M83 68h1M9 69h2M16 69h1M23 69h1M27 69h1M45 69h3M49 69h2M55 69h2M62 69h1M83 69h1M11 70h2M16 70h1M25 70h1M29 70h2M46 70h2M49 70h2M59 70h4M9 71h1M14 71h3M27 71h1M31 71h2M56 71h5M9 72h1M11 72h1M30 72h1M34 72h1M38 72h4M43 72h6M53 72h2M57 72h2M9 73h1M11 73h1M13 73h2M34 73h1M54 73h1M9 74h1M11 74h1M13 74h2M16 74h1M38 74h3M11 75h1M13 75h2M16 75h1M14 76h1M16 76h1" />
<path stroke="#5a772e" d="M37 2h1M42 2h2M45 2h1M50 2h1M38 3h1M41 3h1M43 3h1M47 3h1M49 3h1M51 3h1M36 4h2M39 4h1M42 4h1M48 4h1M52 4h1M54 4h2M33 5h1M36 5h1M43 5h2M46 5h1M48 5h1M52 5h2M34 6h1M38 6h1M40 6h1M46 6h1M50 6h1M30 7h1M33 7h1M48 7h1M55 7h1M57 7h1M31 8h1M33 8h1M37 8h1M41 8h2M47 8h1M53 8h1M56 8h1M32 9h1M36 9h1M40 9h1M42 9h1M44 9h1M51 9h1M38 10h1M40 10h1M45 10h1M47 10h1M54 10h2M57 10h1M32 11h2M37 11h1M41 11h1M49 11h1M56 11h1M31 12h1M34 12h2M37 12h1M46 12h1M54 12h1M57 12h1M39 13h1M43 13h2M49 13h2M52 13h2M34 14h1M40 14h1M42 14h1M44 14h1M47 14h1M53 14h2M41 15h1M47 15h1" />
<path stroke="#87aa4a" d="M38 2h1M46 2h1M39 3h1M45 3h1M50 3h1M33 4h1M40 4h1M49 4h1M34 5h1M47 6h1M55 6h1M47 7h1M54 7h1M50 9h1M33 10h1M41 10h1M49 10h1M56 10h1M34 11h1M55 11h1" />
<path stroke="#cfbfa6" d="M39 2h3M44 2h1M48 2h1M34 3h2M54 3h1M31 5h1M25 6h2M57 6h1M61 6h3M25 7h2M61 7h3M29 10h1M59 10h1M30 11h1M59 11h1M32 13h2M57 13h1M37 14h2M51 14h1M55 14h1M38 15h2M49 15h3M42 16h2M45 16h3" />
<path stroke="#b3a187" d="M47 2h1M49 2h1M53 3h1M57 5h1M61 5h1M63 5h1M60 6h1M64 6h1M24 7h1M64 7h1M25 8h2M61 8h4M29 9h1M58 9h2M61 9h3M30 10h1M58 10h1M29 11h1M58 11h1M30 12h1M31 13h1M56 13h1M33 14h1M36 14h1M50 14h1M37 15h1M43 15h1M50 29h1M50 30h1M50 31h1M50 32h1M42 34h2M45 34h1M50 34h1M43 37h3M41 39h1M43 39h4M21 66h1M21 67h3M25 69h2M26 70h3M28 71h3M31 72h2M35 72h3M49 72h4M35 73h7M43 73h11" />
<path stroke="#41591f" d="M51 2h1M37 3h1M42 3h1M46 3h1M32 4h1M38 4h1M41 4h1M43 4h1M45 4h1M47 4h1M51 4h1M35 5h1M37 5h1M39 5h1M41 5h2M47 5h1M54 5h1M33 6h1M36 6h2M41 6h1M43 6h1M45 6h1M48 6h1M52 6h1M29 7h1M31 7h2M34 7h1M42 7h3M46 7h1M49 7h1M53 7h1M56 7h1M58 7h2M32 8h1M35 8h1M39 8h1M43 8h1M48 8h2M51 8h2M54 8h1M57 8h1M33 9h1M38 9h1M46 9h2M49 9h1M53 9h1M56 9h1M32 10h1M34 10h1M36 10h2M43 10h1M46 10h1M50 10h1M52 10h2M31 11h1M38 11h1M42 11h1M46 11h1M48 11h1M51 11h1M53 11h1M32 12h1M36 12h1M39 12h1M41 12h1M44 12h1M49 12h1M52 12h1M35 13h2M40 13h1M45 13h1M47 13h1M35 14h1M41 14h1M45 14h1M48 14h1M44 15h1" />
<path stroke="#685135" d="M24 4h1M28 4h1M60 4h1M64 4h1M30 5h1M58 5h1M22 6h1M30 6h1M58 6h1M68 6h1M22 7h1M69 7h1M22 8h1M29 8h1M59 8h1M70 8h1M20 9h3M28 9h1M60 9h1M21 10h2M24 10h1M28 10h1M60 10h1M64 10h1M71 10h1M23 11h1M25 11h3M61 11h3M16 12h1M16 13h1M28 13h1M60 13h1M64 13h3M72 13h1M16 14h1M29 14h1M59 14h1M64 14h4M72 14h2M24 15h2M29 15h1M58 15h2M65 15h4M72 15h1M15 16h1M24 16h2M66 16h3M72 16h1M74 16h1M15 17h1M24 17h1M67 17h3M72 17h1M15 18h1M24 18h1M30 18h1M37 18h1M46 18h1M51 18h1M58 18h1M67 18h3M72 18h1M75 18h1M16 19h1M24 19h1M37 19h1M51 19h1M68 19h3M15 20h3M19 20h1M31 20h1M37 20h1M51 20h1M76 20h1M14 21h1M19 21h3M31 21h3M37 21h1M51 21h1M55 21h1M14 22h1M22 22h1M30 22h1M34 22h2M38 22h1M50 22h1M53 22h2M58 22h1M69 22h3M14 23h1M23 23h1M29 23h2M38 23h1M50 23h1M52 23h1M58 23h2M70 23h3M76 23h2M14 24h1M23 24h1M29 24h1M31 24h1M42 24h1M57 24h3M71 24h2M76 24h1M23 25h1M29 25h1M31 25h1M40 25h9M58 25h2M71 25h2M75 25h2M78 25h1M22 26h2M29 26h1M31 26h1M57 26h3M72 26h2M75 26h1M14 27h1M22 27h1M29 27h1M40 27h9M58 27h2M72 27h1M79 27h1M13 28h3M17 28h1M22 28h1M39 28h1M49 28h1M58 28h1M75 28h1M13 29h1M17 29h2M20 29h1M22 29h1M42 29h1M46 29h1M58 29h1M73 29h2M13 30h1M42 30h1M46 30h1M58 30h1M73 30h2M21 31h2M39 31h1M43 31h1M45 31h1M49 31h1M58 31h1M74 31h2M21 32h2M30 32h2M39 32h1M43 32h1M45 32h1M49 32h1M58 32h1M74 32h2M80 32h1M12 33h1M21 33h2M31 33h1M33 33h1M39 33h1M43 33h1M45 33h1M49 33h1M57 33h1M75 33h2M81 33h1M12 34h1M21 34h1M31 34h1M35 34h3M41 34h1M47 34h1M51 34h1M56 34h2M75 34h3M79 34h1M81 34h1M12 35h1M21 35h1M37 35h1M40 35h1M48 35h1M51 35h1M54 35h1M12 36h3M16 36h1M21 36h1M30 36h1M37 36h1M40 36h1M48 36h1M53 36h1M77 36h1M12 37h1M15 37h3M19 37h1M30 37h1M37 37h1M41 37h1M47 37h1M52 37h1M58 37h1M76 37h2M12 38h1M18 38h2M37 38h1M42 38h5M55 38h1M76 38h2M20 39h2M29 39h1M37 39h2M50 39h1M76 39h2M11 40h1M20 40h2M29 40h1M40 40h4M45 40h3M76 40h2M82 40h1M11 41h1M20 41h2M38 41h1M44 41h1M77 41h2M81 41h1M11 42h1M20 42h1M28 42h1M77 42h2M83 42h1M20 43h1M28 43h1M60 43h1M77 43h1M83 43h1M19 44h2M19 45h2M27 45h1M50 45h2M58 45h1M61 45h1M77 45h2M11 46h3M15 46h1M19 46h2M22 46h1M41 46h1M53 46h1M66 46h2M78 46h1M14 47h4M23 47h1M26 47h1M28 47h1M62 47h1M65 47h1M68 47h1M78 47h2M18 48h1M23 48h1M29 48h2M65 48h1M69 48h1M78 48h2M25 49h1M32 49h1M38 49h1M42 49h1M54 49h1M63 49h1M69 49h1M78 49h2M84 49h1M19 50h2M22 50h1M31 50h1M35 50h1M37 50h1M42 50h1M63 50h1M65 50h3M69 50h1M79 50h1M83 50h1M19 51h2M22 51h1M30 51h1M42 51h1M64 51h4M79 51h1M82 51h1M19 52h2M30 52h1M55 52h1M65 52h1M83 52h1M85 52h1M19 53h1M22 53h1M42 53h1M55 53h1M65 53h2M82 53h1M85 53h1M11 54h1M18 54h2M29 54h1M64 54h4M85 54h1M11 55h2M18 55h2M29 55h1M42 55h2M47 55h4M67 55h2M79 55h2M85 55h1M13 56h3M17 56h1M64 56h1M69 56h1M71 56h1M80 56h1M85 56h1M16 57h2M28 57h1M44 57h1M72 57h1M80 57h1M85 57h1M57 58h1M70 58h1M72 58h1M80 58h1M85 58h1M9 59h1M18 59h2M27 59h1M44 59h1M62 59h1M70 59h1M80 59h1M9 60h1M19 60h1M58 60h1M61 60h1M63 60h1M80 60h1M84 60h1M86 60h1M9 61h1M19 61h1M31 61h2M42 61h1M47 61h2M59 61h2M64 61h1M69 61h1M83 61h1M86 61h1M10 62h1M29 62h1M36 62h1M39 62h1M42 62h1M47 62h2M57 62h2M69 62h2M72 62h1M84 62h1M86 62h1M10 63h2M13 63h1M42 63h1M47 63h2M54 63h2M68 63h1M70 63h2M83 63h1M86 63h1M13 64h2M16 64h2M28 64h1M42 64h4M49 64h1M71 64h1M86 64h1M8 65h1M16 65h1M28 65h1M43 65h3M48 65h1M52 65h1M70 65h1M86 65h1M8 66h1M24 66h1M27 66h1M46 66h2M52 66h1M65 66h1M69 66h1M8 67h1M26 67h2M43 67h1M63 67h2M68 67h1M81 67h1M85 67h1M8 68h1M53 68h1M62 68h1M67 68h1M80 68h2M8 69h1M18 69h2M22 69h1M28 69h2M43 69h1M58 69h2M66 69h1M80 69h2M84 69h1M18 70h2M43 70h1M54 70h3M80 70h2M8 71h1M18 71h2M40 71h1M42 71h1M44 71h6M63 71h1M80 71h2M8 72h1M18 72h2M28 72h1M60 72h2M80 72h2M8 73h1M30 73h2M55 73h1M58 73h1M80 73h1M8 74h1M34 74h2M42 74h1M8 75h1M54 80h2M60 80h2M54 81h2M60 81h2M55 82h1M60 82h1" />
<path stroke="#76993f" d="M44 4h1M40 5h1M42 6h1M49 6h1M56 6h1M37 7h1M41 7h1M36 8h1M39 9h1M44 10h1M45 11h1M42 12h1M45 12h1M53 12h1M41 13h1M54 13h1" />
<path stroke="#283a11" d="M46 4h1M50 4h1M56 4h1M38 5h1M45 5h1M49 5h3M55 5h1M35 6h1M39 6h1M44 6h1M51 6h1M53 6h2M35 7h2M38 7h3M45 7h1M50 7h3M30 8h1M34 8h1M38 8h1M40 8h1M44 8h3M50 8h1M55 8h1M31 9h1M34 9h2M37 9h1M41 9h1M43 9h1M45 9h1M48 9h1M52 9h1M54 9h2M35 10h1M39 10h1M42 10h1M48 10h1M51 10h1M35 11h2M39 11h2M43 11h2M47 11h1M50 11h1M52 11h1M54 11h1M38 12h1M40 12h1M43 12h1M47 12h2M50 12h2M37 13h2M42 13h1M46 13h1M48 13h1M46 14h1" />
<path stroke="#bcab91" d="M25 5h2M62 5h1M24 6h1M27 6h1M66 6h2M27 7h1M66 7h2M66 8h2M66 9h2M18 10h2M65 10h3M17 11h4M64 11h4M19 12h7M64 12h3M21 13h4M23 14h2M15 21h2M17 22h3M20 23h3M40 26h5M46 26h1M48 26h1M14 29h2M16 30h4M13 38h3M16 39h4M12 48h2M16 49h3M10 56h2M13 57h2M16 58h2M9 64h2M11 65h3M14 66h3" />
<path stroke="#8e795e" d="M68 9h1M68 10h2M68 11h2M68 12h3M18 13h1M69 13h3M18 14h3M70 14h2M20 15h1M70 15h2M17 16h1M20 16h1M17 17h1M19 17h1M19 18h2M39 18h1M73 18h1M21 19h1M39 19h1M44 19h1M73 19h2M39 20h1M45 20h1M47 20h1M73 20h2M39 21h1M44 21h1M46 21h1M48 21h1M73 21h2M39 22h1M45 22h3M73 22h3M15 23h2M37 23h1M46 23h1M48 23h1M74 23h1M18 24h1M46 24h2M15 25h1M18 25h1M36 25h2M77 25h1M17 26h2M20 26h1M36 26h1M76 26h1M20 27h1M36 27h2M76 27h2M36 28h1M76 28h3M32 29h1M36 29h2M77 29h2M32 30h1M36 30h1M77 30h1M79 30h1M14 31h4M32 31h1M77 31h1M79 31h1M18 32h1M36 32h1M79 32h1M15 33h3M32 33h1M36 33h1M78 33h1M15 34h1M18 34h1M32 34h1M34 34h1M18 35h1M32 35h1M36 35h1M80 35h1M31 36h2M80 36h1M32 37h2M35 37h1M78 37h1M81 37h1M30 38h1M32 38h1M35 38h1M78 38h1M81 38h1M32 39h1M35 39h1M80 39h1M13 40h3M13 41h1M15 41h2M18 41h1M29 41h1M79 41h1M16 42h1M18 42h1M79 42h1M18 43h1M11 44h1M13 44h2M16 44h1M18 44h1M28 44h1M81 44h2M31 45h1M79 45h1M30 46h1M34 46h1M30 47h1M34 47h1M36 47h1M39 47h1M41 47h1M83 47h1M32 48h2M36 48h1M43 48h1M80 48h4M13 49h1M15 49h1M36 49h1M39 49h1M41 49h1M82 49h1M43 50h1M50 50h1M52 50h1M82 50h1M13 51h1M16 51h1M33 51h1M41 51h1M13 52h1M43 52h1M48 52h1M50 52h1M52 52h1M84 52h1M14 53h1M41 53h1M48 53h1M43 54h1M54 54h1M81 54h1M83 54h2M41 55h1M51 55h1M83 55h1M9 56h1M55 56h1M58 56h1M84 56h1M41 57h1M59 57h1M82 57h3M11 58h3M27 58h1M54 58h1M56 58h1M59 58h2M82 58h2M13 59h2M41 59h1M49 59h1M54 59h1M60 59h1M84 59h1M12 60h1M16 60h1M22 60h1M24 60h1M55 60h1M12 61h4M21 61h1M23 61h1M26 61h2M41 61h1M57 61h1M13 62h2M21 62h2M24 62h1M26 62h2M55 62h1M21 63h1M25 63h2M51 63h2M24 64h4M69 64h1M85 64h1M25 65h2M32 65h1M41 65h1M50 65h2M68 65h2M84 65h2M10 66h1M12 66h1M25 66h1M32 66h1M38 66h1M41 66h2M48 66h4M67 66h2M84 66h1M12 67h2M32 67h1M38 67h1M41 67h2M44 67h3M48 67h1M65 67h3M83 67h2M11 68h2M14 68h1M32 68h1M38 68h1M41 68h2M65 68h2M12 69h3M32 69h1M37 69h2M41 69h2M61 69h1M63 69h2M38 70h5M48 70h1M58 70h1M63 70h2M61 71h2M59 72h1M44 74h8M24 78h2M24 79h2M40 79h1M25 80h1M40 80h1M39 81h1M31 84h3M31 85h2M34 85h1M31 86h3" />
<path stroke="#7b654a" d="M70 9h1M71 11h1M67 13h1M68 14h1M30 15h2M57 15h1M73 15h1M30 16h4M55 16h1M57 16h1M69 16h1M71 16h1M30 17h2M33 17h4M53 17h2M56 17h1M71 17h1M74 17h1M31 18h1M35 18h2M53 18h3M57 18h1M70 18h1M31 19h1M33 19h1M53 19h2M75 19h1M33 20h1M53 20h2M35 21h1M53 21h1M71 21h1M76 21h1M72 22h1M76 22h1M73 24h1M75 24h1M77 24h1M73 25h1M74 26h1M78 26h1M79 28h1M79 29h1M75 30h1M76 32h1M80 33h1M81 35h1M81 36h1M82 37h1M82 38h1M78 39h1M82 39h1M78 40h1M82 42h1M19 43h1M81 43h1M80 44h1M83 44h1M83 45h1M39 46h2M42 46h1M79 46h1M84 46h1M38 47h1M58 47h1M84 47h1M38 48h1M84 48h1M61 49h1M80 49h1M32 50h1M34 50h1M38 50h1M62 50h1M62 51h2M63 52h2M30 53h1M63 53h2M53 54h1M60 54h1M63 54h1M61 55h1M63 55h1M65 55h1M29 56h1M45 56h1M62 56h1M81 56h1M45 57h1M62 57h1M64 57h1M81 57h1M45 58h1M81 58h1M43 59h1M45 59h1M69 59h1M62 60h1M83 60h1M63 61h1M68 61h1M82 61h1M64 62h1M41 63h1M67 63h1M21 64h1M41 64h1M65 64h1M22 65h1M42 65h1M23 66h1M62 67h1M24 68h1M60 68h1M32 70h1M33 71h1M35 71h3M39 71h1M41 71h1M52 71h1M33 72h1M55 72h2M33 73h1M56 73h1M65 75h2M50 76h1M65 76h1M52 77h1M63 77h1M56 78h4M57 80h2M57 81h2M30 82h6M57 82h2M29 83h2M35 83h2M29 84h2M35 84h1M37 84h1M29 85h2M35 85h2M29 86h2M35 86h3" />
<path stroke="#4d3317" d="M23 10h1M24 11h1M28 11h1M60 11h1M27 12h1M61 12h3M72 12h1M63 13h1M28 14h1M60 14h1M63 14h1M64 15h1M26 16h1M29 16h1M59 16h1M65 16h1M26 17h1M29 17h1M59 17h1M66 17h1M25 18h1M66 18h1M71 18h1M15 19h1M25 19h1M30 19h1M58 19h1M71 19h1M18 20h1M25 20h1M30 20h1M57 20h2M69 20h3M22 21h1M30 21h1M56 21h3M68 21h3M24 22h1M31 22h1M36 22h2M51 22h2M57 22h1M31 23h1M51 23h1M57 23h1M38 24h1M50 24h1M69 24h1M24 25h1M38 25h2M49 25h2M57 25h1M70 26h1M13 27h1M31 27h1M57 27h1M71 27h1M74 27h2M16 28h1M29 28h1M31 28h1M57 28h1M59 28h1M71 28h4M19 29h1M21 29h1M23 29h1M29 29h1M31 29h1M57 29h1M59 29h1M71 29h2M21 30h3M29 30h1M31 30h1M57 30h1M59 30h1M72 30h1M80 30h1M23 31h1M29 31h1M31 31h1M57 31h1M59 31h1M72 31h1M80 31h1M23 32h1M29 32h1M57 32h1M59 32h1M73 32h1M23 33h1M29 33h2M58 33h2M73 33h1M79 33h1M30 34h1M58 34h1M74 34h1M78 34h1M13 35h1M30 35h1M55 35h2M58 35h1M74 35h1M77 35h2M15 36h1M51 36h2M54 36h2M58 36h1M74 36h3M18 37h1M20 37h3M29 37h1M51 37h1M55 37h1M59 37h1M74 37h1M20 38h3M29 38h1M51 38h1M59 38h1M22 39h1M56 39h1M59 39h1M75 39h1M22 40h1M28 40h1M38 40h2M44 40h1M48 40h3M56 40h1M59 40h2M75 40h1M22 41h1M28 41h1M60 41h1M75 41h1M82 41h1M22 42h1M57 42h1M60 42h1M75 42h1M80 42h2M22 43h1M27 43h1M52 43h1M61 43h1M76 43h1M79 43h2M27 44h1M52 44h1M57 44h1M61 44h1M76 44h4M11 45h1M21 45h1M26 45h1M53 45h1M62 45h1M76 45h1M14 46h1M21 46h1M23 46h1M26 46h1M58 46h1M62 46h1M65 46h1M76 46h1M18 47h1M21 47h1M24 47h2M42 47h1M63 47h2M76 47h1M19 48h3M24 48h2M42 48h1M63 48h2M76 48h1M19 49h6M31 49h1M64 49h3M77 49h1M21 50h1M24 50h1M64 50h1M77 50h1M84 50h1M21 51h1M69 51h1M77 51h1M83 51h2M21 52h1M42 52h1M68 52h1M77 52h1M81 52h2M21 53h1M54 53h1M67 53h1M77 53h1M79 53h3M10 54h1M21 54h1M42 54h1M68 54h1M79 54h2M13 55h1M21 55h1M44 55h3M64 55h1M69 55h3M78 55h1M16 56h1M20 56h1M44 56h1M70 56h1M72 56h1M78 56h1M18 57h3M63 57h1M70 57h1M73 57h1M78 57h1M18 58h3M28 58h1M44 58h1M73 58h1M78 58h1M20 59h1M28 59h1M73 59h1M78 59h1M85 59h1M20 60h1M29 60h1M73 60h1M78 60h1M85 60h1M20 61h1M29 61h1M46 61h1M73 61h1M84 61h2M9 62h1M20 62h1M40 62h2M46 62h1M73 62h1M82 62h2M12 63h1M20 63h1M46 63h1M66 63h1M72 63h1M80 63h3M15 64h1M20 64h1M46 64h3M50 64h3M67 64h1M72 64h1M79 64h4M17 65h4M46 65h2M66 65h1M71 65h1M17 66h4M43 66h3M70 66h1M86 66h1M20 67h1M25 67h1M69 67h1M86 67h1M20 68h1M26 68h2M68 68h1M85 68h1M20 69h2M53 69h1M67 69h1M85 69h1M8 70h1M20 70h1M22 70h2M53 70h1M65 70h2M84 70h1M11 71h1M20 71h1M24 71h2M43 71h1M64 71h1M84 71h1M14 72h1M20 72h1M26 72h2M62 72h1M79 72h1M83 72h1M16 73h5M28 73h2M59 73h2M79 73h1M83 73h1M18 74h3M31 74h3M54 74h4M79 74h1M10 75h1M20 75h1M35 75h19M79 75h3M9 76h2M12 76h1M20 76h1M47 76h1M11 77h2M15 77h1M20 77h1M13 78h3M20 78h1M15 79h6M46 80h1M22 81h2M43 81h3M24 82h2M41 82h2M40 83h1M40 84h1M27 85h1M39 85h1M27 86h1M39 86h1M27 87h1M30 87h7M39 87h1M28 88h11M29 89h9" />
<path stroke="#5f472b" d="M26 14h1M26 15h1M25 17h1M23 19h1M67 19h1M23 20h2M67 20h2M23 21h2M23 22h1M68 22h1M24 23h1M69 23h1M24 24h1M70 24h1M70 25h1M71 26h1M23 27h1M73 27h1M23 28h1M73 31h1M74 33h1M22 34h1M22 35h1M75 35h2M22 36h1M75 37h1M51 39h1M56 41h1M58 41h1M76 41h1M21 42h1M52 42h1M76 42h1M21 43h1M57 43h1M78 43h1M21 44h1M53 44h1M77 46h1M19 47h2M56 47h1M77 47h1M54 48h1M78 50h1M80 50h1M78 51h1M80 51h1M78 52h3M20 53h1M20 54h1M20 55h1M18 56h2M79 56h1M79 57h1M79 58h1M79 59h1M81 59h1M18 60h1M60 60h1M79 60h1M81 60h1M18 61h1M79 61h3M18 62h2M65 62h1M80 62h2M18 63h2M18 64h2M66 64h1M80 66h3M17 67h3M70 67h1M80 67h1M82 67h1M17 68h3M69 68h2M82 68h1M17 69h1M68 69h3M82 69h1M17 70h1M68 70h1M70 70h1M82 70h1M17 71h1M69 71h2M82 71h1M17 72h1M64 72h1M69 72h1M82 72h1M24 73h1M62 73h1M67 73h1M81 73h2M24 74h1M64 74h1M80 74h3M18 75h2M24 75h1M33 75h1M69 75h1M82 75h1M18 76h2M22 76h1M24 76h1M33 76h1M42 76h1M45 76h2M67 76h1M18 77h2M21 77h1M24 77h2M29 77h2M33 77h1M36 77h3M41 77h2M44 77h4M50 77h1M65 77h1M18 78h2M51 78h3M62 78h3M53 79h2M61 79h2M53 80h1M62 80h1M53 81h1M62 81h1M27 83h1M39 83h1M57 83h2M29 87h1M37 87h1" />
<path stroke="#978368" d="M18 15h1M21 15h1M18 16h2M21 16h2M18 17h1M20 17h2M40 19h4M45 19h1M40 20h5M40 21h4M45 21h1M32 22h1M40 22h5M40 23h2M43 23h3M15 24h3M32 24h1M34 24h1M37 24h1M40 24h2M44 24h2M16 25h1M19 25h2M34 25h1M19 26h1M32 26h1M34 26h1M37 26h1M19 27h1M32 28h1M34 28h1M37 28h1M34 29h1M43 29h1M45 29h1M34 30h1M37 30h1M34 31h1M36 31h1M14 32h2M17 32h1M19 32h1M14 33h1M19 33h1M14 34h1M16 34h2M19 34h1M19 35h1M34 35h1M34 36h1M36 36h1M31 37h1M36 37h1M31 38h1M33 38h1M36 38h1M33 39h1M17 40h1M32 40h1M17 41h1M40 41h1M42 41h1M13 42h3M17 42h1M37 42h1M42 42h1M46 42h1M48 42h1M50 42h1M13 43h5M37 43h2M40 43h1M17 44h1M31 44h1M37 44h2M42 44h1M44 44h1M46 44h1M48 44h1M50 44h1M16 45h2M30 45h1M34 45h1M37 45h2M43 45h2M47 45h2M32 46h2M36 46h2M44 46h1M51 46h1M27 47h1M32 47h2M37 47h1M40 47h1M43 47h1M45 47h1M37 48h1M39 48h3M44 48h1M50 48h1M52 48h1M26 49h1M28 49h2M37 49h1M40 49h1M43 49h1M45 49h1M50 49h1M52 49h1M11 50h5M17 50h1M29 50h1M39 50h3M44 50h1M51 50h1M11 51h2M14 51h2M25 51h1M29 51h1M31 51h1M43 51h1M45 51h1M50 51h3M11 52h2M14 52h3M24 52h1M33 52h1M36 52h1M41 52h1M44 52h1M51 52h1M13 53h1M15 53h3M23 53h1M28 53h1M33 53h1M36 53h2M43 53h1M45 53h1M51 53h2M16 54h1M22 54h1M24 54h1M28 54h1M30 54h1M36 54h1M38 54h1M41 54h1M44 54h1M24 55h1M30 55h1M37 55h1M52 55h3M23 56h1M27 56h1M38 56h2M41 56h1M51 56h4M23 57h1M27 57h1M29 57h1M31 57h1M35 57h1M37 57h1M39 57h1M47 57h1M49 57h1M51 57h5M21 58h1M25 58h1M29 58h1M31 58h1M35 58h2M38 58h2M41 58h1M47 58h1M49 58h1M51 58h3M55 58h1M11 59h2M15 59h1M25 59h1M35 59h1M37 59h1M40 59h1M47 59h2M51 59h3M55 59h2M11 60h1M13 60h3M21 60h1M23 60h1M26 60h1M32 60h1M36 60h1M38 60h1M40 60h2M43 60h3M47 60h2M52 60h1M54 60h1M56 60h1M16 61h1M22 61h1M28 61h1M37 61h1M40 61h1M50 61h1M52 61h1M56 61h1M15 62h2M25 62h1M28 62h1M32 62h1M52 62h1M22 63h1M24 63h1M32 63h1M38 63h3M58 63h2M29 64h1M32 64h1M38 64h3M60 64h1M27 65h1M29 65h1M38 65h3M31 66h1M39 66h2M56 66h1M61 66h1M10 67h1M14 67h2M24 67h1M28 67h1M31 67h1M35 67h1M40 67h1M51 67h1M56 67h2M10 68h1M13 68h1M15 68h1M30 68h1M34 68h3M40 68h1M44 68h1M48 68h1M51 68h1M54 68h1M56 68h1M11 69h1M15 69h1M33 69h4M39 69h2M44 69h1M48 69h1M51 69h1M13 70h3M44 70h2M25 72h1M25 73h1M25 74h1M25 75h1M28 75h1M32 75h1M34 75h1M26 76h2M29 76h4M34 76h6M28 77h1M26 79h14M26 80h14" />
<path stroke="#725b3f" d="M56 16h1M58 16h1M46 17h1M52 17h1M55 17h1M57 17h2M52 18h1M56 18h1M52 19h1M55 19h3M52 20h1M55 20h2M52 21h1M55 22h1M53 23h1M55 23h1M51 24h1M53 24h1M55 24h1M53 25h1M55 25h1M51 26h1M53 26h1M51 28h1M53 28h1M55 29h1M51 30h1M53 30h1M55 30h1M51 31h1M55 31h1M51 32h3M55 32h2M51 33h3M55 33h2M52 34h2M55 34h1M52 35h2M57 35h1M56 36h1M53 37h2M56 37h1M52 38h3M56 38h1M58 38h1M52 39h1M54 39h2M57 39h1M52 40h1M54 40h1M57 40h1M52 41h1M54 41h1M57 41h1M59 41h1M54 42h1M56 42h1M58 42h1M53 43h1M58 44h1M60 44h1M57 45h1M56 46h2M53 47h3M57 47h1M62 48h1M62 49h1M54 50h1M61 50h1M55 51h1M61 51h1M60 52h1M53 53h1M51 54h2M66 55h1M63 56h1M68 56h1M57 57h1M69 57h1M71 57h1M62 58h2M58 59h1M61 59h1M72 59h1M30 60h1M69 60h2M72 60h1M33 61h1M39 61h1M72 61h1M37 62h2M68 62h1M71 62h1M65 63h1M65 65h1M64 66h1M61 68h1M64 68h1M30 69h1M60 69h1M65 69h1M9 70h1M33 70h1M57 70h1M67 70h1M69 70h1M10 71h1M12 71h1M21 71h2M38 71h1M50 71h2M67 71h2M10 72h1M12 72h2M15 72h1M21 72h2M24 72h1M63 72h1M67 72h2M12 73h1M15 73h1M22 73h1M61 73h1M65 73h1M70 73h1M12 74h1M15 74h1M26 74h3M63 74h1M67 74h4M15 75h1M21 75h1M26 75h1M30 75h2M55 75h6M67 75h2M21 76h1M23 76h1M28 76h1M43 76h1M49 76h1M66 76h1M22 77h2M26 77h1M31 77h2M34 77h2M40 77h1M43 77h1M51 77h1M64 77h1M46 78h1M54 78h2M60 78h2M46 79h1M55 79h6M21 80h3M42 80h4M56 80h1M59 80h1M24 81h2M41 81h2M56 81h1M59 81h1M26 82h4M36 82h5M56 82h1M59 82h1M28 83h1M37 83h2M28 84h1M36 84h1M38 84h1M28 85h1M37 85h2M28 86h1M38 86h1M28 87h1M38 87h1" />
<path stroke="#342615" d="M39 29h3M47 29h3M39 30h3M47 30h3M42 35h5M42 36h5M70 75h1M68 76h2M49 77h1M66 77h2M47 78h1M50 78h1M65 78h1M47 79h1M51 79h1M64 79h1M20 80h1M52 80h1M63 80h1M21 81h1M52 81h1M63 81h1M53 82h2M61 82h2M26 83h1M55 83h2M59 83h2M26 84h1" />
<path stroke="#563d21" d="M75 38h1M77 48h1M78 53h1M78 54h1M79 62h1M79 63h1M79 65h4M79 66h1M79 67h1M79 68h1M79 69h1M79 70h1M66 71h1M79 71h1M66 72h1M70 72h1M66 73h1M68 73h2M65 74h2M48 76h1M52 79h1M63 79h1M27 84h1M39 84h1" />
<path stroke="#a9977d" d="M35 51h1M34 52h1M32 53h1M35 53h1M32 54h1M34 54h1M32 55h1M34 55h2M32 56h3M32 57h3M32 58h3M33 59h2M33 63h1M35 63h1M37 63h1M33 64h2M36 64h1M33 65h3M37 65h1M33 66h2M36 66h1M33 67h1" />
</svg>