<svg xmlns="http://www.w3.org/2000/svg" viewBox="0 -0.5 16 16" shape-rendering="crispEdges">
<metadata>Made with Pixels to Svg https://codepen.io/shshaw/pen/XbxvNj</metadata>
<path stroke="#984e00" d="M6 3h4M5 4h1M10 4h1M4 5h1M11 5h1M4 6h1M11 6h1M4 7h1M11 7h1M4 8h2M10 8h2M5 9h6M3 10h1M6 10h4M12 10h1" />
<path stroke="#a4c580" d="M6 4h4M5 5h1M9 5h2M5 6h1M10 6h1M5 7h1M9 7h2M6 8h4" />
<path stroke="#edf6ff" d="M6 5h3M6 6h1M8 6h2M6 7h3" />
<path stroke="#1e2d8e" d="M7 6h1" />
<path stroke="#e29c51" d="M3 8h1M12 8h1M2 9h1M13 9h1M1 10h1M14 10h1M0 11h1M15 11h1M0 12h1M15 12h1M1 13h1M14 13h1M2 14h12" />
<path stroke="#c86a06" d="M3 9h1M4 10h1M11 10h1M13 10h1M1 11h1" />
<path stroke="#d47a1a" d="M4 9h1M11 9h2M2 10h1M5 10h1M10 10h1M2 11h13M1 12h14M2 13h12" />
</svg>