<?xml version="1.0" encoding="UTF-8" standalone="no"?>
<svg
   width="2048"
   height="2048"
   version="1.1"
   viewBox="0 0 2048 2048"
   id="svg14"
   sodipodi:docname="gribouillages.svg"
   inkscape:version="1.2.1 (9c6d41e410, 2022-07-14)"
   xmlns:inkscape="http://www.inkscape.org/namespaces/inkscape"
   xmlns:sodipodi="http://sodipodi.sourceforge.net/DTD/sodipodi-0.dtd"
   xmlns="http://www.w3.org/2000/svg"
   xmlns:svg="http://www.w3.org/2000/svg">
  <defs
     id="defs18">
    <pattern
       id="EMFhbasepattern"
       patternUnits="userSpaceOnUse"
       width="6"
       height="6"
       x="0"
       y="0" />
    <pattern
       id="EMFhbasepattern-1"
       patternUnits="userSpaceOnUse"
       width="6"
       height="6"
       x="0"
       y="0" />
    <pattern
       id="EMFhbasepattern-2"
       patternUnits="userSpaceOnUse"
       width="6"
       height="6"
       x="0"
       y="0" />
    <pattern
       id="EMFhbasepattern-9"
       patternUnits="userSpaceOnUse"
       width="6"
       height="6"
       x="0"
       y="0" />
  </defs>
  <sodipodi:namedview
     id="namedview16"
     pagecolor="#505050"
     bordercolor="#eeeeee"
     borderopacity="1"
     inkscape:showpageshadow="0"
     inkscape:pageopacity="0"
     inkscape:pagecheckerboard="0"
     inkscape:deskcolor="#505050"
     showgrid="false"
     inkscape:zoom="0.20678711"
     inkscape:cx="-282.89964"
     inkscape:cy="923.65525"
     inkscape:window-width="1920"
     inkscape:window-height="1057"
     inkscape:window-x="-8"
     inkscape:window-y="-8"
     inkscape:window-maximized="1"
     inkscape:current-layer="svg14" />
  <circle
     cx="1024"
     cy="1024"
     r="968.2"
     fill="#fff"
     id="circle2" />
  <path
     d="m1024 0a1024 1024 0 00-1024 1024 1024 1024 0 001024 1024 1024 1024 0 001024-1024 1024 1024 0 00-1024-1024zm.0234 71.99a952 951.9 0 01952 951.9 952 951.9 0 01-952 951.9 952 951.9 0 01-952-951.9 952 951.9 0 01952-951.9z"
     fill="#010000"
     style="paint-order:stroke fill markers"
     id="path4" />
  <path
     style="fill:none;stroke-width:50;stroke:#000000;stroke-opacity:1;stroke-linejoin:round;stroke-linecap:round"
     d="m 933.32703,1658.7107 c -42.98315,-22.4745 -94.94799,20.7319 -135.40495,14.5077 -94.82368,-14.5882 -82.77538,-15.6282 -149.91264,-58.0307 -49.18858,-31.0665 -84.78011,-63.9739 -125.73317,-106.3896 -56.69126,-58.7159 -111.97124,-113.3072 -154.74853,-183.7639 -6.89856,-11.3623 -5.80149,-25.9704 -9.67178,-38.6871 -19.93628,-65.5049 -30.83011,-76.9826 -38.68713,-145.0767 -11.4302,-99.0618 32.73048,-192.26453 125.73318,-232.12282 10.86727,-4.65741 66.84578,23.86216 67.70247,24.17945 31.01693,11.48775 118.1502,31.04431 145.07675,62.86659 71.07058,83.99248 9.53752,46.05098 130.56906,145.07678 20.11681,16.4592 46.28387,23.9618 67.70248,38.6871 9.77681,6.7216 12.56267,35.368 24.17946,38.6871 45.09816,12.8852 110.44269,6.9228 154.74857,0 27.8142,-4.346 54.4414,-14.7154 82.2101,-19.3435 30.3775,-5.063 61.7033,-3.5338 91.8819,-9.6718 65.1295,-13.2467 129.0321,-31.9423 193.4357,-48.3589 8.1277,-2.0718 65.1199,-12.6763 77.3743,-29.0154 35.9409,-47.9212 -106.271,-127.49881 -120.8973,-135.40494 -30.5459,-16.51127 -65.0112,-24.53237 -96.7179,-38.68713 -58.6011,-26.16124 -114.56,-58.2427 -174.092,-82.21016 -100.95061,-40.64243 -328.20955,-141.96535 -430.39437,-19.34356 -20.03693,24.0443 -21.62761,60.66671 -19.34357,91.88193 8.19173,111.95356 55.88311,131.28156 140.24085,198.27156 18.20582,14.4575 40.17103,23.8041 58.0307,38.6871 21.01541,17.5129 39.10298,38.2801 58.03069,58.0307 18.1562,18.9456 37.45029,37.038 53.19481,58.0307 13.43647,17.9153 21.20564,39.5487 33.85124,58.0307 14.21856,20.781 30.55415,40.226 48.35895,58.0307 40.504,40.5041 76.38,9.4925 125.7331,-4.8359 28.5445,-8.2871 57.8479,-13.782 87.0461,-19.3436 4.7505,-0.9048 13.3348,-4.6915 14.5077,0 21.0522,84.2089 -114.7002,109.4476 -169.2562,96.7179 -31.786,-7.4167 -65.485,-14.6535 -91.88198,-33.8513 -40.29909,-40.2991 -80.59819,-80.5982 -120.89728,-120.8972 -3.22393,-8.0599 -4.249,-17.401 -9.67179,-24.1795 -1.37782,-1.7223 -75.16052,0 -82.21015,0 -3.60446,0 7.12305,-2.2872 9.67178,-4.8359 12.89571,-12.8957 24.2002,-27.6089 38.68714,-38.6871 16.69536,-12.7671 35.59037,-22.3701 53.1948,-33.8513 19.47283,-12.6996 37.62132,-27.5547 58.0307,-38.6871 48.05437,-26.2115 131.72228,-31.3217 159.58438,-87.046 15.9577,-31.9153 23.598,-67.3763 33.8513,-101.55376 9.8471,-32.8238 39.9568,-125.49019 29.0153,-169.2562 -0.8742,-3.49684 -4.129,-6.13732 -4.8359,-9.67178 -0.9484,-4.74198 2.563,-10.40685 0,-14.50768 -6.0411,-9.66574 -17.1815,-15.18218 -24.1794,-24.17945 -4.4259,-5.69038 -5.0568,-13.80552 -9.6718,-19.34357 -4.7486,-5.69829 -36.5811,-31.53728 -43.523,-33.85124 -15.2925,-5.09747 -32.275,-1.07226 -48.3589,0 -79.76358,5.31757 -170.6442,0.83002 -227.28694,77.37426 -46.73783,63.15923 -91.7579,297.73252 -101.55372,367.52772 -14.62073,104.1727 36.75197,193.4236 43.52302,294.9894 0.64396,9.6593 -0.0771,55.5742 -24.17945,43.523 -23.45245,-11.7262 -29.66197,-75.2399 -33.85124,-87.046 -11.11294,-31.3183 -27.51018,-60.5865 -38.68714,-91.882 -41.12227,-115.1423 -41.84927,-142.3358 -53.1948,-275.6458 -1.77703,-20.88 -3.15259,-42.1495 0,-62.86655 8.18079,-53.75951 21.16079,-106.70755 33.85124,-159.58442 19.39304,-80.80435 50.44003,-155.45426 91.88194,-227.28689 4.93858,-8.56021 45.6225,-73.25917 58.03069,-87.04605 9.94187,-11.04652 23.34252,-18.50663 33.85124,-29.01534 9.67178,-9.67179 16.7814,-22.89838 29.01535,-29.01535 2.88357,-1.44179 6.54411,0.78191 9.67178,0 42.95457,-10.73865 -10.72215,-16.23635 91.88194,-4.83589 108.46559,12.05173 215.36459,47.97375 304.66119,111.2255 13.0218,9.22378 21.3627,23.91724 33.8512,33.85124 58.5353,46.56215 119.3945,90.126 178.928,135.40496 89.8268,68.31899 202.5027,141.74251 270.8099,236.95867 108.6504,151.45212 27.6206,63.51832 58.0307,154.74852 3.6532,10.9597 31.1776,55.8684 19.3436,67.7025 -76.164,76.1639 -280.3509,133.4182 -333.6765,154.7485 -40.2991,16.1196 -81.1329,30.962 -120.8973,48.3589 -9.9068,4.3342 -18.5249,11.8851 -29.0154,14.5077 -3.4968,0.8742 -7.3158,-2.108 -9.6718,-4.8359 -28.467,-32.9618 -56.8955,-66.1133 -82.2101,-101.5537 -98.6621,-138.1269 -100.37,-133.7535 -116.0614,-309.49706 -5.246,-58.75476 9.0946,-138.65349 29.0153,-193.43566 14.6092,-40.17531 31.8069,-65.99886 62.8666,-91.88193 8.9299,-7.44153 21.4024,-10.55941 29.0154,-19.34357 129.8848,-149.8671 4.5771,-10.85247 38.6871,-67.70248 2.9903,-4.98376 10.398,-13.7815 14.5077,-9.67178 2.5487,2.54874 2.2871,7.12305 4.8359,9.67178 10.7531,10.75314 27.0046,14.44403 38.6871,24.17946 43.4105,36.17541 83.4623,92.11799 111.2255,140.24085 27.7413,48.08488 46.0983,101.10017 72.5384,149.91263 5.5363,10.22092 11.7787,20.18972 19.3435,29.01535 2.9672,3.4617 12.8958,6.44786 9.6718,9.67178 -2.5512,2.55121 -32.9626,0.2962 -33.8512,0 -5.5138,-1.83792 -9.183,-7.34221 -14.5077,-9.67178 -60.8225,-26.60985 -80.8803,-24.02144 -111.2255,-87.04604 -12.6067,-26.18319 -19.2974,-54.82312 -29.0153,-82.21016 -19.4667,-54.86059 -32.0795,-65.59709 -24.1795,-120.89728 10.7694,-75.38596 34.587,-118.41574 58.0307,-193.43566 5.4816,-17.54111 12.6802,-57.27195 14.5077,-77.37426 0.5837,-6.42137 -1.2645,-13.02092 0,-19.34356 0.4471,-2.23539 4.8359,-2.55623 4.8359,-4.83589 0,-0.84114 -41.4487,1.03719 -43.5231,0 -10.8477,-10.84774 -19.7908,-22.31995 -33.8512,-29.01535 -28.6676,-13.65126 -58.3784,-25.03588 -87.046,-38.68713 -10.4949,-4.99757 -19.0479,-13.36305 -29.0154,-19.34357 -6.3899,-3.83397 -13.2775,-6.63875 -19.3435,-9.67178 -2.8836,-1.44179 -6.7883,1.44178 -9.6718,0 -3.224,-1.61197 -9.6718,-8.44035 -9.6718,-4.83589 0,1.61196 3.3941,-0.7209 4.8359,0 2.039,1.01949 3.2239,3.22392 4.8359,4.83589"
     id="path913" />
</svg>
