<svg xmlns="http://www.w3.org/2000/svg" viewBox="0 -0.5 16 16" shape-rendering="crispEdges">
<metadata>Made with Pixels to Svg https://codepen.io/shshaw/pen/XbxvNj</metadata>
<path stroke="#7a7a7a" d="M5 0h6M3 1h10M2 2h3M11 2h3M1 3h2M13 3h2M1 4h2M13 4h2M0 5h2M14 5h2M0 6h2M14 6h2M0 7h2M14 7h2M0 8h2M14 8h2M0 9h2M14 9h2M0 10h2M14 10h2M1 11h2M13 11h2M1 12h2M13 12h2M2 13h3M11 13h3M3 14h10M5 15h6" />
<path stroke="#5d7e99" d="M5 2h1M10 2h1M3 3h1M12 3h1M2 5h1M13 5h1M2 10h1M13 10h1M3 12h1M12 12h1M5 13h1M10 13h1" />
<path stroke="#1587e8" d="M6 2h1M9 2h1M4 3h1M11 3h1M3 4h1M12 4h1M2 6h1M13 6h1M2 9h1M13 9h1M3 11h1M12 11h1M4 12h1M11 12h1M6 13h1M9 13h1" />
<path stroke="#008aff" d="M7 2h2M5 3h6M4 4h8M3 5h10M3 6h10M2 7h12M2 8h12M3 9h10M3 10h10M4 11h8M5 12h6M7 13h2" />
</svg>