<?xml version="1.0" encoding="UTF-8" standalone="no"?>
<svg
   width="2048"
   height="2048"
   version="1.1"
   viewBox="0 0 2048 2048"
   id="svg14"
   sodipodi:docname="mauvais-souvenirs.svg"
   inkscape:version="1.2.1 (9c6d41e410, 2022-07-14)"
   xmlns:inkscape="http://www.inkscape.org/namespaces/inkscape"
   xmlns:sodipodi="http://sodipodi.sourceforge.net/DTD/sodipodi-0.dtd"
   xmlns="http://www.w3.org/2000/svg"
   xmlns:svg="http://www.w3.org/2000/svg">
  <defs
     id="defs18">
    <pattern
       id="EMFhbasepattern"
       patternUnits="userSpaceOnUse"
       width="6"
       height="6"
       x="0"
       y="0" />
    <pattern
       id="EMFhbasepattern-1"
       patternUnits="userSpaceOnUse"
       width="6"
       height="6"
       x="0"
       y="0" />
    <pattern
       id="EMFhbasepattern-2"
       patternUnits="userSpaceOnUse"
       width="6"
       height="6"
       x="0"
       y="0" />
    <pattern
       id="EMFhbasepattern-9"
       patternUnits="userSpaceOnUse"
       width="6"
       height="6"
       x="0"
       y="0" />
  </defs>
  <sodipodi:namedview
     id="namedview16"
     pagecolor="#505050"
     bordercolor="#eeeeee"
     borderopacity="1"
     inkscape:showpageshadow="0"
     inkscape:pageopacity="0"
     inkscape:pagecheckerboard="0"
     inkscape:deskcolor="#505050"
     showgrid="false"
     inkscape:zoom="0.20678711"
     inkscape:cx="26.597403"
     inkscape:cy="923.65525"
     inkscape:window-width="1920"
     inkscape:window-height="1027"
     inkscape:window-x="-8"
     inkscape:window-y="-8"
     inkscape:window-maximized="1"
     inkscape:current-layer="svg14" />
  <circle
     cx="1024"
     cy="1024"
     r="968.2"
     fill="#fff"
     id="circle2" />
  <path
     d="m1024 0a1024 1024 0 00-1024 1024 1024 1024 0 001024 1024 1024 1024 0 001024-1024 1024 1024 0 00-1024-1024zm.0234 71.99a952 951.9 0 01952 951.9 952 951.9 0 01-952 951.9 952 951.9 0 01-952-951.9 952 951.9 0 01952-951.9z"
     fill="#010000"
     style="paint-order:stroke fill markers"
     id="path4" />
  <path
     style="fill:#000000;fill-opacity:1;fill-rule:nonzero;stroke:none;stroke-width:4.25841"
     d="m 1619.8635,1545.5785 c 1.4194,-5.6779 0,-9.9363 -4.2584,-17.0337 0,0 0,0 0,0 -8.5169,-15.6142 -22.7116,-28.3894 -34.0673,-42.5841 -14.1947,-17.0336 -29.8089,-35.4867 -45.423,-52.5203 0,-1.4195 0,-4.2584 -1.4195,-7.0974 -19.8726,-49.6814 -56.7788,-92.2655 -102.2018,-120.6549 -22.7115,-14.1947 -46.8425,-26.9699 -72.3929,-35.4867 -19.8726,-5.6779 -38.3257,-8.5168 -58.1983,-11.3557 2.839,-28.3895 4.2584,-55.3594 5.6779,-83.7488 0,-14.1946 -14.1947,-26.9699 -26.9699,-28.3894 -18.4531,-2.8389 -36.9063,-5.6778 -53.9399,-8.5168 -19.8725,-18.4531 -41.1646,-31.2283 -63.8761,-41.1646 4.2584,-24.131 -19.8726,-46.8425 -48.262,-38.3256 -15.6141,4.2584 -28.3894,-2.839 -39.7451,-15.6142 4.2584,-7.0974 8.5168,-14.1947 11.3557,-19.8726 12.7753,-22.7115 31.2284,-45.42304 49.6815,-62.45664 26.9699,-25.5505 61.0372,-42.5841 86.5876,-68.1346 55.3593,-53.9398 120.6549,-96.5239 178.8532,-147.6248 26.9699,-24.13098 53.9398,-48.26194 80.9097,-73.81239 22.7115,-21.29204 53.9399,-46.84249 68.1345,-78.07084 2.839,4.25841 7.0974,5.6779 9.9364,8.51682 11.3557,8.51681 35.4867,4.2584 38.3256,-11.35573 1.4195,0 2.8389,-1.4195 2.8389,-1.4195 1.4195,-2.83891 1.4195,-5.67786 1.4195,-7.09732 0,-1.4195 1.4195,-5.6779 1.4195,-7.09736 1.4194,-5.67786 2.8389,-11.35577 4.2584,-15.61418 2.839,-5.67786 8.5168,-14.19468 8.5168,-22.71149 0,-11.35577 -8.5168,-19.87259 -18.4531,-24.131 -34.0672,-11.35572 -56.7788,19.87259 -58.1982,46.84249 -1.4195,4.25841 0,8.51682 0,12.77523 -2.839,0 -5.6779,0 -8.5168,1.4195 -32.6479,12.77522 -61.0372,39.74512 -86.5877,63.87612 -28.3894,25.55045 -56.7788,51.1009 -85.1681,76.65135 -58.1983,52.5204 -116.3966,109.2991 -181.6921,149.0443 -32.6478,19.8725 -59.6177,48.2619 -93.685,63.8761 -21.2921,11.3557 -38.3257,24.131 -53.9399,42.5841 -8.5168,-18.4531 -18.4531,-34.0673 -31.22832,-49.6815 -25.5504,-29.8088 -56.7787,-48.2619 -95.1044,-49.6814 -8.5168,0 -22.7116,-1.4195 -31.2284,0 -2.8389,0 -4.2584,0 -5.6778,0 2.8389,-4.2584 8.5168,-11.3557 9.9362,-15.6141 2.839,-9.9363 2.839,-21.2921 0,-29.8089 -9.9362,-34.0673 -41.16459,-44.0036 -69.55395,-58.1982 -35.48676,-17.0337 -63.87612,-53.9399 -92.26552,-80.90981 -32.64781,-34.06726 -65.29558,-66.71507 -97.94339,-100.78234 -34.06727,-34.06726 -66.71508,-73.81239 -106.46021,-99.36284 -31.22831,-21.29204 -80.90975,17.03363 -58.19826,51.1009 25.55045,36.90622 61.03722,66.71507 93.68498,97.94339 29.80886,31.22831 61.03722,61.03717 90.84608,92.26552 28.38935,28.38938 55.3593,58.19818 86.58761,83.74868 14.19468,11.3558 29.80886,21.292 48.26195,28.3894 4.25841,2.8389 9.93631,4.2584 14.19472,5.6779 -7.09736,14.1947 -12.77522,26.9699 -7.09736,44.0035 5.67787,22.7115 24.131,41.1646 45.42304,51.1009 25.55041,11.3558 52.52031,2.8389 79.49031,8.5168 17.0336,2.839 28.3893,17.0337 36.9062,31.2284 14.1947,21.29204 24.131,42.58404 36.9062,63.87614 -34.0673,39.7451 -79.4903,68.1345 -129.1718,88.0071 -12.77519,5.6779 -19.8725,19.8725 -15.6141,34.0673 2.83891,14.1946 5.67787,34.0672 -5.6779,46.8425 -8.51682,8.5168 -15.61414,7.0973 -21.29204,-4.2584 -12.77523,-21.2921 -59.61772,-14.1948 -59.61772,12.7752 -1.41945,41.1646 -12.77522,80.9097 -31.22831,116.3965 -19.87259,35.4867 -48.26195,61.0371 -72.39294,92.2655 -14.19468,19.8725 19.87258,28.3893 34.06726,22.7115 69.55399,-29.8089 109.29916,-106.4602 126.3328,-180.2726 17.03363,2.8389 35.48672,1.4194 52.52035,-5.6779 38.3257,-15.6142 52.5204,-53.9398 51.1009,-92.2655 42.5841,-17.0336 85.1682,-41.1646 119.23542,-70.9735 12.7753,8.5168 26.97,15.6142 39.7452,21.292 5.6779,12.7753 22.7115,22.7115 36.9062,24.131 26.9699,0 49.6814,12.7753 68.1345,31.2283 18.4531,15.6142 41.1646,19.8726 63.8761,21.2921 0,25.5504 -1.4194,52.5203 0,78.0708 1.4195,19.8726 24.131,26.9699 41.1647,24.131 39.7451,-7.0974 90.846,15.6142 123.4938,35.4867 31.2283,19.8726 58.1983,44.0036 80.9098,73.8124 -2.839,1.4195 -5.6779,2.839 -8.5169,4.2585 -8.5168,5.6778 -12.7752,11.3557 -14.1946,18.453 0,0 0,0 0,0 -5.6779,9.9363 0,21.2921 7.0973,29.8089 0,1.4195 1.4195,1.4195 2.8389,2.839 31.2283,31.2283 62.4567,63.8761 97.9434,92.2654 15.6142,11.3558 48.262,5.6779 53.9399,-12.7752 0,0 0,0 1.4194,0 -1.4194,0 -1.4194,-1.4194 -1.4194,-1.4194 z"
     id="path9896" />
  <path
     style="fill:#000000;fill-opacity:1;fill-rule:nonzero;stroke:none;stroke-width:4.25841"
     d="m 576.55339,1433.4404 c -53.93981,32.6478 -86.58762,103.6212 -105.04071,160.4 -11.35577,35.4869 45.423,46.8424 63.87613,22.7117 18.45309,-26.9701 41.16458,-58.1984 48.26194,-90.8462 14.19468,-18.4531 29.80886,-34.0673 41.16463,-52.5204 17.03363,-29.8088 -24.13099,-55.3593 -48.26199,-39.7451 z"
     id="path9898" />
</svg>
