<?xml version="1.0" encoding="UTF-8" standalone="no"?>
<svg
   width="2048"
   height="2048"
   version="1.1"
   viewBox="0 0 2048 2048"
   id="svg14"
   sodipodi:docname="modele-vivant.svg"
   inkscape:version="1.2.1 (9c6d41e410, 2022-07-14)"
   xmlns:inkscape="http://www.inkscape.org/namespaces/inkscape"
   xmlns:sodipodi="http://sodipodi.sourceforge.net/DTD/sodipodi-0.dtd"
   xmlns="http://www.w3.org/2000/svg"
   xmlns:svg="http://www.w3.org/2000/svg">
  <defs
     id="defs18">
    <pattern
       id="EMFhbasepattern"
       patternUnits="userSpaceOnUse"
       width="6"
       height="6"
       x="0"
       y="0" />
    <pattern
       id="EMFhbasepattern-1"
       patternUnits="userSpaceOnUse"
       width="6"
       height="6"
       x="0"
       y="0" />
  </defs>
  <sodipodi:namedview
     id="namedview16"
     pagecolor="#505050"
     bordercolor="#eeeeee"
     borderopacity="1"
     inkscape:showpageshadow="0"
     inkscape:pageopacity="0"
     inkscape:pagecheckerboard="0"
     inkscape:deskcolor="#505050"
     showgrid="false"
     inkscape:zoom="0.20678711"
     inkscape:cx="26.597403"
     inkscape:cy="923.65525"
     inkscape:window-width="1920"
     inkscape:window-height="1027"
     inkscape:window-x="-8"
     inkscape:window-y="-8"
     inkscape:window-maximized="1"
     inkscape:current-layer="svg14" />
  <circle
     cx="1024"
     cy="1024"
     r="968.2"
     fill="#fff"
     id="circle2" />
  <path
     d="m1024 0a1024 1024 0 00-1024 1024 1024 1024 0 001024 1024 1024 1024 0 001024-1024 1024 1024 0 00-1024-1024zm.0234 71.99a952 951.9 0 01952 951.9 952 951.9 0 01-952 951.9 952 951.9 0 01-952-951.9 952 951.9 0 01952-951.9z"
     fill="#010000"
     style="paint-order:stroke fill markers"
     id="path4" />
  <path
     id="path8293"
     style="fill:#000000;fill-opacity:1;fill-rule:nonzero;stroke:none;stroke-width:3.11944"
     d="m 1258.7754,190.02344 c -5.7894,3.75439 -11.6066,7.46942 -17.3008,11.35937 -10.9926,7.50812 -21.9007,15.14718 -32.5527,23.13281 -21.5228,16.53168 -42.6767,33.53446 -63.7989,50.57422 -5.5457,4.64544 -11.2912,9.04345 -17.0078,13.47461 -10.2097,-10.19965 -22.4207,-18.01563 -34.1914,-26.24414 -7.3266,-5.17038 -14.7985,-10.1909 -22.8398,-14.19531 -10.1613,-5.1335 -21.2633,-8.79628 -32.7129,-9.20312 -6.0693,-0.21961 -12.215,0.34104 -18.0469,2.08203 -5.5868,2.0513 -10.1613,7.21406 -10.7793,13.23242 -0.3286,3.3152 0.7768,6.61292 2.5313,9.39258 4.324,7.63066 11.2043,13.44546 18.5547,18.04687 10.5286,6.67499 22.3121,10.998 33.0781,17.24024 7.5441,4.58409 14.4737,10.08401 21.6113,15.2539 3.7888,2.77029 7.6145,5.49378 11.5781,8.00977 -1.8156,4.17385 -3.2943,8.56313 -3.7422,13.11133 -0.1208,4.96805 3.4919,9.49983 8.0547,11.17773 4.7182,2.01124 10.0361,2.20112 15.0254,1.23437 11.314,-1.44722 21.8332,-6.48804 31.2852,-12.68554 10.682,-6.96837 20.2377,-15.45923 30.3066,-23.24805 5.9959,-4.46555 12.1115,-8.76676 18.1133,-13.22461 17.9023,-13.16534 35.7294,-26.44556 53.6445,-39.57422 22.509,-16.71307 45.1476,-33.32799 67.2266,-50.6289 a 866.6463,866.6463 0 0 0 -58.0371,-18.31836 z M 920.125,318.3125 c -3.73339,0.24843 -7.27525,1.56479 -10.90234,2.37891 -29.61357,7.66538 -58.41883,18.45322 -85.76954,32.15234 -6.77106,3.33604 -13.3692,7.0931 -19.31835,11.76367 -8.11567,6.29562 -15.10047,14.28602 -19.27735,23.73633 -4.20202,9.34093 -5.76654,19.67352 -5.68554,29.86133 0.0583,8.82851 1.24849,17.59357 2.29101,26.3457 4.00615,30.71666 12.50332,60.88236 25.4707,89.02734 9.57447,19.98081 22.72629,37.90612 34.375,56.67383 2.96019,4.76052 5.83717,9.62272 8.53125,14.58985 -15.22792,7.5407 -28.87937,17.98152 -41.05468,29.77734 -13.36139,12.87945 -25.04074,27.36004 -36.23438,42.125 -9.94994,13.13888 -20.07775,26.24094 -28.14062,40.66016 -5.60913,10.04323 -10.42852,20.75874 -12.17969,32.21093 -0.58023,3.85897 -0.79679,7.78302 -0.4668,11.67579 -8.78613,6.05716 -16.40755,14.13877 -20.80859,23.94726 -1.23065,2.52469 -2.48737,5.14762 -2.56641,8.01172 -0.10371,1.42015 -0.0145,2.84789 0.16992,4.25781 -1.18739,2.13063 -1.37458,4.62119 -1.79687,6.97852 -1.02983,7.55603 0.18222,15.29518 2.87695,22.39258 2.46888,6.72056 5.83693,13.08066 8.07031,19.89257 4.32212,12.2069 7.9374,24.79013 14.35157,36.12305 9.60203,17.45092 22.89848,32.41728 35.38281,47.80664 7.68495,9.48251 15.11497,19.23608 21.11133,29.94141 6.68926,11.92941 12.61311,24.34097 16.85937,37.36133 0.63796,1.95191 1.23325,3.93199 1.82422,6.00589 1.07799,3.8362 2.02976,7.8482 2.75781,11.7265 1.78679,9.5401 2.51075,19.4454 1.48047,29.1797 -1.82512,14.5006 -7.91891,28.2092 -16.22461,40.1387 -8.48301,12.2826 -19.11255,22.884 -30.13476,32.8769 -25.65816,23.5023 -54.25377,43.676 -79.41992,67.7813 -16.6643,15.9012 -31.70907,33.7529 -42.8086,54.0156 -6.15021,11.2008 -11.27916,23.059 -14.11523,35.5547 -4.68829,20.3597 -4.02529,41.8585 1.51562,61.9805 1.19361,4.3495 2.62339,8.6332 4.25391,12.8379 -27.21183,-7.0035 -54.47375,-13.8182 -81.86524,-20.0879 -58.04342,-14.7317 -115.92889,-30.8064 -175.28515,-39.4375 -17.44956,-2.528 -34.996,-4.4857 -52.60938,-5.3907 -36.06817,-1.639 -72.18756,0.3965 -108.12109,3.5118 -5.29879,0.587 -10.62141,1.1016 -15.94141,1.6132 a 866.6463,866.6463 0 0 0 31.125,83.4551 c 8.49338,-0.9909 16.94611,-2.3394 25.47852,-2.914 7.5559,-0.5395 15.25078,-0.985 22.80273,-1.17 11.24101,-0.3276 22.49189,-0.2494 33.73047,0.1348 14.50214,0.5272 29.11934,1.6104 43.60156,3.1465 24.67141,2.614 49.30564,6.526 73.7129,11.0937 25.45833,4.7516 50.73457,10.2733 76.08007,15.6075 63.23536,13.3861 126.4426,26.9254 189.46289,41.2929 50.90923,11.4339 101.95606,22.2559 152.80664,33.9532 30.68642,7.0633 61.32712,14.4952 91.75196,22.5507 32.30816,8.9206 64.31706,18.8757 96.31056,28.8536 43.6825,13.5973 87.3851,27.2566 131.8437,38.1289 2.9296,0.7032 5.8517,1.4663 8.7969,2.0859 6.149,0.6489 12.3178,-1.3766 17.4961,-4.6016 3.5334,-2.3115 6.4968,-5.9976 6.8086,-10.3379 0.3481,-4.3866 -2.125,-8.6629 -5.7441,-11.0371 -2.8721,-1.9923 -6.053,-3.4753 -9.0723,-5.2226 -45.2241,-24.7403 -93.5827,-43.0229 -142.0996,-60.127 -19.568,-6.8724 -39.1687,-13.6449 -58.78322,-20.3828 -74.50739,-25.0641 -149.61057,-48.3307 -225.02735,-70.4961 -10.60287,-3.0849 -21.17947,-6.2604 -31.78711,-9.3281 -5.31755,-8.6261 -11.13253,-16.8268 -16.26367,-25.5547 -4.82081,-8.1589 -9.01472,-17.0279 -11.07031,-26.4629 -1.87528,-8.194 -1.86345,-16.7737 -0.18945,-25 0.88726,-4.4996 2.29128,-9.0194 3.96289,-13.1992 4.34232,-10.851 10.8969,-20.842 18.21875,-29.791 12.99838,-15.7709 28.84924,-28.8631 45.01562,-41.2403 22.62105,-17.2654 46.34289,-33.2561 67.02149,-52.914 14.93383,-14.1576 28.17526,-30.3259 37.65429,-48.6602 11.2635,-21.6734 17.02004,-46.1616 16.64258,-70.582 -0.31177,-25.656 -6.9814,-51.0201 -18.04101,-74.09766 -5.7643,-12.11662 -12.81496,-23.58379 -20.56641,-34.52344 -13.92657,-20.06169 -29.71977,-38.91607 -47.80273,-55.36914 -6.00655,-5.41044 -12.20816,-10.62739 -18.80664,-15.30468 -11.13022,-7.60073 -23.84926,-12.71879 -34.32227,-21.30665 -4.16848,-3.28353 -7.88093,-7.2715 -10.22461,-12.07421 -0.83111,-1.60382 -1.55133,-3.26527 -2.19336,-4.95313 6.63851,0.41656 13.30066,-1.02204 19.38281,-3.64648 6.18991,-2.29061 11.53595,-6.25582 16.8418,-10.08399 1.1622,-0.82695 2.33581,-1.63668 3.45508,-2.37304 2.13603,-1.44364 4.4269,-2.63416 6.73047,-3.77735 10.13841,-5.96373 21.69818,-8.98106 31.82617,-14.96094 4.90027,-3.08842 8.80306,-8.20844 9.39258,-14.08789 0.67722,-6.10082 -1.96243,-12.19176 -6.06836,-16.61328 -3.14453,-3.49241 -7.25494,-5.92307 -11.49024,-7.86133 -5.6112,-2.72193 -11.67565,-4.45969 -17.84179,-5.34375 8.356,-11.279 15.47382,-23.39762 23.22851,-35.08398 3.29812,-4.96586 6.93994,-9.93211 10.69531,-14.65625 15.09095,-19.01969 32.02758,-36.77483 45.4668,-57.12305 2.72224,-4.11214 5.28315,-8.33905 7.64258,-12.66601 5.69789,-0.54182 11.47954,-2.98491 15.01758,-7.62696 2.37187,-3.20067 3.54376,-7.08099 4.63086,-10.86132 2.2735,-9.06337 1.1832,-18.7132 -1.97071,-27.42969 -4.46735,-12.75301 -12.39323,-23.82972 -19.15429,-35.4082 -4.46313,-7.65082 -8.04369,-15.77329 -11.50391,-23.91407 -7.70423,-18.52569 -13.50427,-37.79807 -18.03515,-57.33008 -0.54603,-2.40722 -1.14868,-4.98078 -1.58399,-7.48046 -2.1529,-11.75519 -3.01992,-23.69533 -3.80078,-35.60547 -0.20558,-4.26514 -0.22075,-8.70496 1.375,-12.73438 1.86705,-4.312 5.74955,-7.24407 9.55469,-9.76562 4.69746,-3.03087 9.63011,-5.67236 14.42578,-8.54102 23.73161,-13.89763 47.1594,-28.39508 69.4043,-44.5918 3.50179,-2.7459 6.05671,-7.12507 5.59179,-11.68164 -0.41049,-4.72377 -3.81739,-8.6968 -7.88086,-10.87304 -4.32383,-2.42293 -9.30614,-3.63423 -14.25781,-3.5293 z m 492.4336,37.58984 c -2.9291,-0.10541 -5.8363,0.45014 -8.6973,1.01172 -3.7809,0.8687 -7.6359,2.16021 -10.5879,4.77149 -2.9234,2.64492 -4.4894,6.90729 -3.3593,10.76757 0.8822,3.17291 3.1351,5.67934 5.0039,8.30665 8.0634,10.4541 18.9332,18.38954 30.4414,24.67578 1.9505,1.05558 3.9227,2.07105 5.9218,3.03125 -9.8298,2.79519 -19.6268,5.70534 -29.3554,8.83789 -24.8195,7.45341 -49.5859,15.60321 -72.7383,27.38476 -17.0788,8.73262 -33.385,19.5061 -46.4609,33.66993 -8.5656,9.30636 -15.6326,20.09435 -20.1231,31.94726 -1.5001,4.72289 0.3795,10.35312 4.5996,13.03125 4.1266,2.92389 9.3586,3.52735 14.2852,3.5332 4.2125,6.3e-4 8.572,-0.67993 12.1933,-2.96093 21.2285,-12.511 42.9091,-24.33891 65.4844,-34.3125 15.289,-7.00244 31.1276,-12.72616 47.1328,-17.85352 13.469,-4.31315 27.0215,-8.36148 40.5176,-12.58594 17.9964,-5.55447 36.1855,-10.82593 54.6816,-14.58984 2.139,-0.42327 4.4683,-0.88146 6.6875,-1.27734 4.1137,-0.73694 8.0644,-1.36914 12.2012,-1.93164 5.9209,-0.79731 12.1135,-1.40493 18.0645,-1.73047 4.0306,-0.2214 7.9473,-0.32106 12.0019,-0.30469 7.9951,0.0428 16.1066,0.61354 24.086,1.7832 2.503,0.35825 4.9892,0.79267 7.5214,1.27539 1.8087,0.35169 3.8134,0.76355 5.6875,1.19141 1.1898,0.26769 2.4422,0.56234 3.6114,0.85156 2.844,0.69786 5.6629,1.49074 8.4687,2.32813 0.9141,0.29326 2.0988,0.64535 3.1133,0.97851 6.4851,2.08745 12.912,4.58512 19.0801,7.35352 2.9026,1.31899 6.0077,2.79904 8.9394,4.30859 9.2677,4.7461 18.1474,10.24445 26.5664,16.36914 1.3304,0.9805 2.8331,2.09802 4.211,3.15625 10.6648,8.19115 20.4908,17.45761 29.3906,27.53516 3.2917,3.5738 6.4469,7.2725 9.416,11.11914 0.8312,1.09382 1.7353,2.26215 2.5918,3.44922 9.1822,12.52432 16.5155,26.2952 22.9571,40.39453 3.8738,7.33641 7.6991,14.88009 13.4824,20.93359 3.5342,3.69102 7.9983,6.73596 13.1133,7.61524 6.2499,1.19068 12.7837,-1.295 17.3164,-5.60938 0.1599,-0.1487 0.2373,-0.36434 0.3925,-0.51758 A 866.6463,866.6463 0 0 0 1594.5605,371.98633 c -1.354,0.35903 -2.6724,0.84605 -4.0332,1.17773 -1.3857,0.34704 -2.8949,0.68968 -4.3515,1.03906 -1.1161,0.24549 -2.6067,0.57711 -3.7305,0.83008 -3.766,0.82175 -7.6712,1.54177 -11.4121,2.10742 -11.9023,1.81003 -24.1083,2.48091 -36.1992,2.25977 -3.5789,-0.0646 -7.1933,-0.21731 -10.8106,-0.43164 -5.9858,-0.37443 -12.1441,-0.95624 -18.1679,-1.69531 -2.7839,-0.34573 -5.7167,-0.77438 -8.4473,-1.21094 -23.9733,-3.98637 -46.8301,-12.77962 -70.6152,-17.75 -4.7139,-0.96503 -9.4448,-1.91829 -14.2344,-2.41016 z m 129.3672,405.88672 c -8.2133,0.22115 -16.5759,0.55103 -24.4551,3.10156 -7.4372,2.39646 -14.3918,6.85143 -18.8945,13.33204 -2.4478,3.45537 -4.0407,7.4177 -5.3653,11.41406 -9.1256,24.47486 -19.0392,48.81398 -24.6035,74.41797 -1.0421,5.21036 -2.4294,10.43191 -2.3613,15.7832 0.2076,6.5574 3.0343,13.09504 8.0605,17.38867 5.655,5.01637 13.1995,7.38634 20.6289,7.99414 9.8169,0.83032 19.9287,-1.06348 28.6153,-5.76367 4.5271,-2.50888 8.4524,-6.08379 11.3281,-10.39062 9.2684,-12.59833 15.5436,-27.09279 20.6738,-41.78711 2.5962,-7.48982 4.9073,-15.07481 7.2188,-22.65625 8.4622,-0.23662 16.7759,1.88021 24.7754,4.4414 8.0525,2.63405 15.7776,6.14112 23.5136,9.56641 22.3843,8.94925 44.9535,17.8515 68.6016,22.88867 25.317,5.6128 51.0546,9.89805 77.0274,10.48047 17.8175,0.3717 35.8129,-1.08323 53.0019,-5.99219 4.1267,-1.13184 8.2349,-3.1539 10.7734,-6.72265 2.6438,-3.68081 3.1261,-8.81571 1.045,-12.86719 -2.2196,-4.69962 -6.7665,-7.90217 -11.6075,-9.49219 -14.889,-5.51318 -30.7185,-7.71312 -46.4082,-9.5625 -8.5662,-1.02087 -17.1118,-1.8781 -25.6328,-3.30469 -3.9869,-0.71079 -8.1537,-1.48149 -12.1953,-2.29101 -1.9316,-0.39181 -4.0569,-0.82658 -5.9785,-1.25196 -7.7127,-1.67309 -15.391,-3.60965 -22.9121,-5.84374 -3.7875,-1.1223 -7.5539,-2.33644 -11.2227,-3.59961 -7.7634,-2.64831 -15.4516,-5.89133 -23.0312,-9.17188 -14.6948,-6.35611 -28.9405,-13.6788 -43.4824,-20.36523 -15.8499,-7.2801 -32.2065,-13.81001 -49.3946,-17.125 -9.1215,-1.79306 -18.4194,-2.72785 -27.7187,-2.6211 z m -333.166,67.86719 c -5.0837,0.30476 -10.1281,1.05118 -15.1621,1.79492 -13.4325,2.16028 -26.8,5.8063 -38.7676,12.41602 -6.6887,3.72697 -12.7695,8.59559 -17.6446,14.51562 -3.4279,3.77778 -5.1906,9.35933 -3.5546,14.31836 1.5545,5.04454 5.7419,8.82359 10.332,11.16211 5.6861,2.93303 12.2055,4.57581 18.6133,3.82031 6.4928,-1 12.6667,-3.43069 18.6054,-6.16406 4.1404,-1.90904 8.3454,-4.04362 12.3438,-5.92578 5.2426,-2.48581 10.6009,-4.72421 16.082,-6.63086 3.7385,-1.32019 7.6026,-2.61748 11.4453,-3.82422 4.4798,-1.47436 8.2754,-4.83963 10.2598,-9.11914 2.5256,-5.22228 2.2345,-11.76498 -1.0215,-16.60937 -3.5358,-5.26398 -9.5938,-8.38857 -15.7558,-9.35157 -1.9069,-0.31666 -3.8437,-0.43782 -5.7754,-0.40234 z m -210.11332,4.08398 c -4.93836,0.12469 -10.06109,1.08888 -14.14257,4.03125 -7.22166,4.63835 -12.63066,12.10846 -14.48633,20.51758 -2.08331,8.78052 -1.01408,17.98352 1.25,26.61719 3.17441,12.13212 8.68041,23.49882 14.75195,34.41797 5.34556,9.48278 11.22765,18.65982 17.48637,27.56445 17.294,24.01296 40.1914,44.20642 66.8769,57.16793 27.2248,13.3137 57.9811,19.2464 88.207,17.1641 21.1135,-1.4145 41.9046,-6.399 61.6719,-13.8711 9.4423,-3.654 18.8071,-7.50587 28.1231,-11.47069 23.8461,-10.248 47.244,-22.04926 67.9863,-37.78711 5.9324,-4.50017 11.6876,-9.26093 16.9961,-14.48633 3.122,-3.56262 3.2377,-9.5393 -0.1719,-12.95703 -2.9172,-3.2216 -7.4237,-4.35987 -11.6308,-4.40625 -4.1376,-0.10458 -8.3454,1.35086 -11.3399,4.25 -7.2647,5.84537 -14.8835,11.2457 -22.7676,16.22265 -1.5187,0.95136 -3.221,2.00909 -4.83,2.96875 -4.4122,2.6589 -8.8542,5.13016 -13.4317,7.53321 -14.4401,7.55096 -29.7121,13.83286 -45.2949,18.79492 -7.9312,2.50997 -15.9337,4.74606 -23.9453,6.99219 -9.4976,2.60537 -19.1875,4.95429 -28.8438,6.55273 -2.9511,0.48327 -5.9135,0.89644 -8.8847,1.23438 -1.0126,0.10329 -2.2886,0.25167 -3.4082,0.34179 -3.1577,0.28101 -6.3291,0.45609 -9.4375,0.51367 -9.9969,0.19425 -20.1325,-0.89522 -29.834,-3.5957 -4.5106,-1.23115 -8.9807,-3.00393 -13.1582,-4.91797 -5.4577,-2.51922 -10.8,-5.29646 -15.9239,-8.44336 -1.0565,-0.65808 -2.3278,-1.4452 -3.4492,-2.17968 -17.4143,-11.30522 -32.373,-26.16244 -44.5918,-42.90039 -4.7836,-6.4652 -9.3065,-13.12967 -13.3965,-20.05665 -0.3685,-0.64159 -0.9447,-1.63612 -1.3144,-2.26757 -5.1885,-9.18412 -9.755,-18.81748 -12.4824,-29.03907 -1.1695,-4.45539 -1.9546,-9.15723 -2.0938,-13.6875 -0.1759,-4.95744 0.6366,-9.94605 2.4082,-14.58007 1.37,-4.46485 -0.073,-9.74302 -3.8183,-12.62696 -3.6469,-2.94995 -8.5245,-3.67296 -13.08012,-3.61133 z M 1437.084,1018.6758 v 0 c -4.4611,0.079 -9.0471,1.3093 -12.4981,4.2441 -22.265,15.9148 -40.881,36.3824 -57.082,58.3125 -17.2177,23.3808 -31.9034,48.4979 -45.9316,73.8848 -13.3847,24.8205 -24.4412,50.8075 -34.9102,76.9648 -2.0346,5.3911 -3.8502,10.8616 -5.8926,16.25 -4.7906,13.0352 -9.6666,26.1252 -12.3769,39.7852 -12.9564,-3.666 -26.7762,-5.0007 -40.0586,-2.3516 -6.5894,1.2943 -13.0712,3.3924 -18.9649,6.6407 -4.5243,2.8548 -6.8009,8.9662 -4.8652,14.0214 1.3787,4.1773 4.9404,7.3661 9.002,8.8789 11.9885,5.5874 25.0569,8.1485 37.4589,12.5938 12.3214,4.4925 24.0678,10.536 34.9219,17.8945 4.3847,2.9816 8.7036,6.0761 12.7949,9.4512 21.9926,18.6732 41.2868,40.2801 59.334,62.7246 7.1344,8.8807 13.8066,18.1166 20.6953,27.1856 24.8914,33.1302 49.5912,66.5198 70.9453,102.08 0.5244,0.9471 1.2215,1.8387 1.5821,2.8516 3.6552,28.1557 12.5177,55.2785 17.289,83.2266 1.4991,8.575 2.301,17.333 3.1133,25.9414 0.5521,6.2466 0.9797,12.4119 1.2715,18.6562 0.3662,7.9978 0.5137,16.0912 0.3555,24.1563 -0.068,3.7561 -0.203,7.4711 -0.4043,11.2519 -0.1519,2.777 -0.3467,5.7011 -0.5801,8.4824 -0.9733,11.8806 -2.6995,23.7816 -5.3281,35.4532 -0.877,3.9042 -2.2078,7.6802 -3.2403,11.5507 a 866.6463,866.6463 0 0 0 95.9766,-66.0078 c 0.4577,-16.8626 0.17,-33.7531 -1.0215,-50.5644 -0.671,-8.7115 -1.6464,-17.398 -2.5879,-26.084 -2.6514,-23.8711 -6.113,-47.7674 -12.8105,-70.8809 -4.6156,-15.7346 -10.7653,-31.1796 -19.8477,-44.9023 -5.9523,-8.4293 -15.6382,-13.8157 -25.7558,-15.3555 -9.8087,-1.6026 -20.1365,-0.054 -28.9766,4.5137 -27.8454,-45.2624 -57.7878,-89.3422 -91.5762,-130.4063 -12.653,-15.2189 -26.5629,-29.4029 -41.6074,-42.2656 -8.1305,-6.9261 -16.6404,-13.4206 -25.584,-19.2636 8.6624,-14.4282 14.5011,-30.2803 20.7012,-45.8575 2.2591,-5.7689 4.7883,-11.6294 7.5254,-17.289 10.5726,-22.6052 21.9544,-44.8961 34.2656,-66.6348 10.1854,-18.1146 20.641,-36.2123 31.6836,-53.8125 4.0791,-6.5545 8.3248,-13.0032 12.5293,-19.4766 3.4171,-5.7292 6.8766,-11.4324 10.5176,-17.0234 9.8356,-15.2846 20.2286,-30.3645 27.5586,-47.0703 1.2063,-2.7233 2.4875,-5.603 2.166,-8.6582 -0.2347,-4.0001 -2.599,-7.7403 -6.0195,-9.7969 -4.0593,-2.6223 -9.0186,-3.3572 -13.7676,-3.2988 z" />
</svg>
