<!-- Created with Inkscape (http://www.inkscape.org/) -->
<svg width="117.28mm" height="122.49mm" version="1.1" viewBox="0 0 117.28 122.49" xmlns="http://www.w3.org/2000/svg">
 <g transform="translate(-12.858 -160.64)">
  <path d="m53.727 160.64c24.342 7.0555 43.504 21.422 52.564 46.214 9.0205 24.685-3.4113 43.356-17.022 50.712-13.642 7.3728-36.153 6.9604-48.86-4.5863-10.489-9.5318-7.5845-25.4 2.7342-32.191 10.319-6.791 29.14-1.9437 28.31 12.788-0.67006 11.903-13.566 14.359-17.815 10.407-4.5703-4.2504-2.7354-9.792 0-11.289 1.9389-1.0609 4.2335-0.0882 5.1154 4.4979 1.5875-5.909-2.7511-9.2302-6.7913-8.0259-5.1328 1.53-9.8763 9.3474-3.7042 17.198 3.8821 4.9377 15.686 7.3036 24.606 0.52917 16.744-12.717 7.8478-39.934-16.492-42.422-11.908-1.2169-22.827 2.2209-32.368 11.73-17.006 16.949-10.545 40.73-6.5262 50.535 1.8063 4.4065 6.1285 10.748 12.296 16.388h100.36v-89.769c-0.80337-1.1845-1.4228-2.0041-1.7968-2.3782-3.3514-3.3514-25.554-30.339-74.613-30.339z" fill="#fff"/>
 </g>
</svg>
