<svg xmlns="http://www.w3.org/2000/svg" viewBox="0 -0.5 24 24" shape-rendering="crispEdges">
<metadata>Made with Pixels to Svg https://codepen.io/shshaw/pen/XbxvNj</metadata>
<path stroke="#8e0802" d="M9 0h1M22 7h1M22 11h1M0 12h1M0 13h1M21 13h1M1 14h1M20 14h1M1 15h1M18 16h1M3 17h1M14 17h1M16 17h2M4 18h1M13 18h4M5 19h3M9 19h4M14 19h1M8 20h1M11 20h1M9 21h1" />
<path stroke="#cb0b06" d="M10 0h1M13 0h1M1 8h1M20 8h1M20 9h1M1 10h1M2 11h1M18 11h1M2 12h1M18 12h1M2 13h2M3 14h2M16 14h1M4 15h2M16 15h1M7 16h1M9 16h1M6 17h1M8 17h1" />
<path stroke="#d61f10" d="M11 0h2M18 2h1M19 3h1M2 6h1M20 6h1M1 9h1M19 9h1M19 10h1M19 11h1M17 13h1M5 14h1M15 14h1M7 15h1M11 15h1M15 15h1M8 16h1M10 16h1" />
<path stroke="#bb160a" d="M14 0h1M3 4h1M20 4h1M21 6h1M1 7h1M21 7h1M21 8h1M20 10h1M1 11h1M19 12h2M18 13h2M17 14h1M5 16h1M13 16h1M16 16h1M9 17h1M8 18h1M10 18h1" />
<path stroke="#aa0a04" d="M7 1h1M21 5h1M22 8h1M0 9h1M21 9h2M0 10h1M21 10h2M0 11h1M20 11h2M1 12h1M21 12h1M1 13h1M20 13h1M2 14h1M18 14h2M2 15h2M17 15h3M2 16h3M14 16h2M17 16h1M4 17h2M7 17h1M13 17h1M15 17h1M5 18h3M9 18h1M8 19h1" />
<path stroke="#cc3b21" d="M8 1h1M19 4h1M11 16h2M11 17h1" />
<path stroke="#f85036" d="M9 1h1M11 1h1M16 3h1M17 4h1M14 6h2M13 7h2M16 7h2M5 8h1M16 8h1M4 9h1M7 9h1M10 9h1M5 10h1M7 11h2M15 11h1M6 12h1M8 12h1M6 13h2" />
<path stroke="#f53b29" d="M10 1h1M4 5h1M19 5h1M4 6h1M17 6h2M3 7h1M11 7h1M15 7h1M18 7h2M3 8h1M8 8h2M18 9h1M4 10h1M6 10h2M15 10h1M14 11h1M14 13h2M8 14h1" />
<path stroke="#ee5a18" d="M12 1h1M15 3h1M4 4h1M9 14h1" />
<path stroke="#faa50c" d="M13 1h1M8 2h1M15 2h1M5 4h1M13 4h2M16 4h1M5 5h1M7 5h1M14 5h1M7 6h1M10 6h1M6 7h5M7 8h1" />
<path stroke="#f48512" d="M14 1h1M6 2h2M5 3h1M16 5h1M5 6h2" />
<path stroke="#d37107" d="M15 1h1M11 5h1M13 5h1" />
<path stroke="#cf490b" d="M16 1h1M5 2h1" />
<path stroke="#fa9f61" d="M9 2h1M5 7h1M12 8h1M14 8h1M13 9h2M10 10h1M12 10h1M10 11h1M12 11h1" />
<path stroke="#fcd534" d="M10 2h1M12 2h2M7 3h1M9 3h1M14 3h1M8 4h2" />
<path stroke="#fdc308" d="M11 2h1M14 2h1M6 3h1M6 4h2M10 4h1M15 4h1M6 5h1M8 5h3M8 6h2" />
<path stroke="#f96540" d="M16 2h1M15 5h1M17 5h2M16 6h1M4 7h1M4 8h1M10 8h1M15 8h1M17 8h1M8 9h1M16 9h1M7 12h1M9 12h1M12 12h1M10 13h1M13 13h1" />
<path stroke="#f2251b" d="M17 2h1M17 3h1M18 4h1M3 6h1M12 7h1M18 8h2M3 9h1M17 9h1M16 10h2M4 11h3M16 11h1M4 12h2M13 12h3M5 13h1M8 13h1M11 13h2M6 14h2M11 14h2" />
<path stroke="#9c1f0a" d="M19 2h1M22 6h1M12 18h1" />
<path stroke="#bf2a15" d="M4 3h1M2 5h1M20 5h1M14 15h1M10 17h1M12 17h1M11 18h1" />
<path stroke="#fae197" d="M8 3h1M10 3h1M11 9h2M11 10h1" />
<path stroke="#ad5208" d="M11 3h1M11 4h1M12 5h1M11 6h3" />
<path stroke="#c58c2d" d="M12 3h2" />
<path stroke="#e8110c" d="M18 3h1M3 5h1M2 8h1M2 9h1M2 10h2M18 10h1M3 11h1M17 11h1M3 12h1M16 12h2M4 13h1M6 15h1M8 15h1M6 16h1" />
<path stroke="#771f0e" d="M12 4h1M0 14h1" />
<path stroke="#e13119" d="M19 6h1M2 7h1M20 7h1M16 13h1M10 14h1M13 14h2M9 15h2M12 15h2" />
<path stroke="#fa7e4d" d="M6 8h1M11 8h1M13 8h1M5 9h2M9 9h1M15 9h1M8 10h2M13 10h2M9 11h1M11 11h1M13 11h1M10 12h2M9 13h1" />
<path stroke="#3e0a02" d="M23 9h1M23 10h1M23 12h1M23 13h1M23 14h1M22 17h1M2 19h1M18 21h2M16 22h2M13 23h2" />
<path stroke="#5b0a02" d="M23 11h1M22 14h1M22 15h1M22 16h1M20 17h2M2 18h1M20 18h2M3 19h1M19 19h3M4 20h1M15 20h1M17 20h3M5 21h1M15 21h1M17 21h1M6 22h2M11 22h1M14 22h2M9 23h4" />
<path stroke="#740802" d="M22 12h1M22 13h1M21 14h1M20 15h2M1 16h1M19 16h3M2 17h1M18 17h2M3 18h1M17 18h3M4 19h1M13 19h1M15 19h4M5 20h3M9 20h2M12 20h3M16 20h1M6 21h3M10 21h5M16 21h1M8 22h3M12 22h2" />
</svg>