<svg xmlns="http://www.w3.org/2000/svg" viewBox="0 -0.5 29 29" shape-rendering="crispEdges">
<metadata>Made with Pixels to Svg https://codepen.io/shshaw/pen/XbxvNj</metadata>
<path stroke="#000000" d="M13 0h2M10 1h1M12 1h1M14 1h1M9 2h1M11 2h1M15 2h2M10 3h1M16 3h1M10 4h5M16 4h1M9 5h1M15 5h1M8 6h1M15 6h1M8 7h1M15 7h1M8 8h6M15 8h1M8 9h1M10 9h1M12 9h1M15 9h1M5 10h3M15 10h1M4 11h1M7 11h2M15 11h1M22 11h2M3 12h1M9 12h1M15 12h2M21 12h1M24 12h1M4 13h6M17 13h2M21 13h1M24 13h1M4 14h1M10 14h1M19 14h2M23 14h3M5 15h5M21 15h1M23 15h1M26 15h1M6 16h1M26 16h1M6 17h1M17 17h3M26 17h1M5 18h1M15 18h2M20 18h1M26 18h1M5 19h1M20 19h1M25 19h1M5 20h1M17 20h3M26 20h1M5 21h1M16 21h1M24 21h2M6 22h1M23 22h1M7 23h6M18 23h5M10 24h3M17 24h1M11 25h6M11 26h3M16 26h1M10 27h3M17 27h1M9 28h8" />
<path stroke="#910000" d="M13 1h1M10 2h1M12 2h3M11 3h5M15 4h1" />
<path stroke="#c3c3c3" d="M10 5h5M9 6h6M9 7h6M14 8h1M9 9h1M11 9h1M13 9h2M8 10h7M9 11h6M10 12h5M23 12h1M10 13h5M11 14h4M21 14h1M10 15h11M22 15h1M24 15h1M7 16h3M11 16h13M7 17h3M12 17h5M20 17h4M8 18h3M13 18h2M17 18h3M21 18h2M25 18h1M8 19h4M13 19h4M19 19h1M21 19h4M8 20h8M20 20h2M23 20h3M8 21h8M19 21h2M23 21h1M12 22h9M22 22h1M13 23h5" />
<path stroke="#9f4000" d="M5 11h2M4 12h5M5 14h5M14 26h2M13 27h4" />
<path stroke="#a8a8a8" d="M22 12h1M15 13h2M22 13h2M15 14h4M22 14h1M25 15h1M10 16h1M24 16h2M10 17h2M24 17h2M6 18h2M11 18h2M23 18h2M6 19h2M12 19h1M17 19h2M6 20h2M16 20h1M22 20h1M6 21h2M17 21h2M21 21h2M7 22h5M21 22h1M13 24h4" />
</svg>