<?xml version="1.0" encoding="UTF-8" standalone="no"?>
<svg
   width="2048"
   height="2048"
   version="1.1"
   viewBox="0 0 2048 2048"
   id="svg10"
   sodipodi:docname="tout-en-vrac.svg"
   inkscape:version="1.2.1 (9c6d41e410, 2022-07-14)"
   xmlns:inkscape="http://www.inkscape.org/namespaces/inkscape"
   xmlns:sodipodi="http://sodipodi.sourceforge.net/DTD/sodipodi-0.dtd"
   xmlns="http://www.w3.org/2000/svg"
   xmlns:svg="http://www.w3.org/2000/svg">
  <defs
     id="defs14" />
  <sodipodi:namedview
     id="namedview12"
     pagecolor="#505050"
     bordercolor="#eeeeee"
     borderopacity="1"
     inkscape:showpageshadow="0"
     inkscape:pageopacity="0"
     inkscape:pagecheckerboard="0"
     inkscape:deskcolor="#505050"
     showgrid="false"
     inkscape:zoom="0.42822266"
     inkscape:cx="867.53934"
     inkscape:cy="1025.1676"
     inkscape:window-width="1920"
     inkscape:window-height="1057"
     inkscape:window-x="-8"
     inkscape:window-y="-8"
     inkscape:window-maximized="1"
     inkscape:current-layer="svg10" />
  <circle
     cx="1024"
     cy="1024"
     r="968.2"
     fill="#fff"
     id="circle2" />
  <path
     d="m1024 0a1024 1024 0 00-1024 1024 1024 1024 0 001024 1024 1024 1024 0 001024-1024 1024 1024 0 00-1024-1024zm.0234 71.99a952 951.9 0 01952 951.9 952 951.9 0 01-952 951.9 952 951.9 0 01-952-951.9 952 951.9 0 01952-951.9z"
     fill="#010000"
     style="paint-order:stroke fill markers"
     id="path4" />
  <path
     d="M 429.8098,502.10788 C 481.14147,480.81495 694.48442,413.6222 859.54277,616.25002 1024.6011,818.87793 774.83372,1154.1614 574.94483,1147.3584 375.05599,1140.6722 247.87528,1034.1396 294.28476,854.83587 340.68954,675.53203 606.16571,500.35857 725.18965,727.18512 844.21358,954.06028 668.09197,1026.6564 601.75921,995.50908 535.37958,964.38123 465.5779,938.55958 498.34579,874.95277 c 77.1147,-149.75991 103.69476,150.48873 191.3102,58.65041 94.74086,-99.32176 -187.32554,-353.74841 -270.90948,-193.2497 -91.92824,176.53412 -41.3888,326.97432 96.00668,360.55122 138.619,33.8977 242.36062,-58.5532 288.01995,-114.38515 45.65948,-55.832 108.80454,-220.75258 -78.70856,-390.87244 C 536.50466,425.57578 398.07321,697.49554 331.83424,639.34086 238.45275,557.36648 378.59999,523.20644 429.90355,501.92322 Z"
     id="path6"
     style="stroke-width:0.477274" />
  <g
     id="g6478"
     transform="rotate(-8.023589,1208.6233,1069.5453)">
    <path
       style="fill:#ffc7db;fill-opacity:1;stroke:none;stroke-width:20;stroke-linecap:round;stroke-linejoin:round"
       d="m 1592.6294,1403.4755 c 0,0 158.7959,91.0741 198.4949,170.472 39.699,79.398 37.3637,170.4721 -23.3524,245.1996 -60.716,74.7275 -203.1653,65.3865 -240.529,46.7047 -37.3638,-18.6819 -182.1483,-142.4493 -200.8301,-184.4835 -18.6819,-42.0342 -79.398,-137.7788 -79.398,-137.7788 0,0 175.1426,-44.3694 226.5177,-77.0627 51.3751,-32.6933 119.0969,-63.0513 119.0969,-63.0513 z"
       id="path2516" />
    <path
       style="fill:#010000;fill-opacity:1;stroke:none;stroke-width:20.9149;stroke-linecap:round;stroke-linejoin:round"
       d="m 256.87571,1414.5395 c -2.33523,-35.7528 39.69897,-145.5651 70.05701,-143.0113 30.35804,2.5537 65.38655,86.8282 254.54048,158.334 189.15393,71.5056 333.93843,120.0274 546.4447,86.8282 212.5062,-33.199 403.9954,-74.0594 497.4047,-191.533 93.4094,-117.4736 151.7902,-265.5925 186.8187,-257.9311 35.0286,7.6613 98.0799,35.7528 86.4037,68.9519 -11.6762,33.199 -60.7161,22.9839 -95.7446,74.0594 -35.0285,51.0755 -186.8187,319.2217 -586.1437,367.7434 -399.32489,48.5218 -772.96229,-155.7802 -807.9908,-163.4415 -35.0285,-7.6613 -140.11402,22.984 -151.79019,0 z"
       id="path928" />
    <path
       style="fill:#010000;fill-opacity:1;stroke:none;stroke-width:20;stroke-linecap:round;stroke-linejoin:round"
       d="m 1585.6237,1384.7936 c 0,0 240.529,107.4207 254.5405,231.1881 14.0114,123.7674 -32.6933,193.8244 -130.7731,275.5576 -98.0799,81.7332 -210.1711,-9.3409 -289.569,-77.0627 -79.398,-67.7218 -214.8415,-301.2452 -214.8415,-301.2452 l 44.3694,-7.0057 c 0,0 151.7902,287.2338 266.2167,324.5975 114.4264,37.3638 203.1653,-2.3352 249.87,-84.0684 46.7046,-81.7332 30.358,-149.455 -7.0057,-186.8187 -37.3638,-37.3637 -191.4892,-151.7902 -191.4892,-151.7902 z"
       id="path984" />
    <path
       style="fill:#010000;fill-opacity:1;stroke:none;stroke-width:20;stroke-linecap:round;stroke-linejoin:round"
       d="m 1398.805,1478.2029 c 0,0 74.7275,37.3638 107.4207,88.7389 32.6933,51.3752 81.7332,116.7617 102.7503,116.7617 21.0171,0 25.6876,-37.3637 0,-39.699 -25.6876,-2.3352 -74.7275,-56.0456 -93.4093,-88.7389 -18.6819,-32.6932 -79.398,-95.7445 -79.398,-95.7445 z"
       id="path988" />
  </g>
  <path
     style="fill:#010000;fill-opacity:1;stroke:none;stroke-width:29.0019;stroke-linecap:round;stroke-linejoin:round"
     d="m 1331.0831,787.82054 c 25.7305,-16.04394 57.1786,68.18679 80.05,76.20877 22.8715,8.02196 62.8964,16.04394 60.0375,40.10986 -2.8589,24.06594 -77.191,20.05494 -97.2035,-8.02196 -20.0125,-28.07692 -42.884,-108.29667 -42.884,-108.29667 z"
     id="path990" />
  <path
     style="fill:#010000;fill-opacity:1;stroke:none;stroke-width:25.5305;stroke-linecap:round;stroke-linejoin:round"
     d="m 639.70318,320.36237 c 0,0 31.91347,18.37757 23.2098,45.94389 -8.70368,27.56633 -78.33307,64.32144 -139.25879,76.57313 -60.92573,12.25171 -98.64165,-12.25169 -98.64165,-12.25169 0,0 87.03675,-9.18878 116.04899,-39.81803 29.01225,-30.62926 55.12327,-82.69899 98.64165,-70.4473 z"
     id="path992" />
  <circle
     style="fill:#010000;fill-opacity:1;stroke:none;stroke-width:20;stroke-linecap:round;stroke-linejoin:round"
     id="path2514"
     cx="1458.3535"
     cy="697.06726"
     r="115.59407" />
</svg>
