<?xml version="1.0" encoding="UTF-8" standalone="no"?>
<svg
   width="2048"
   height="2048"
   version="1.1"
   viewBox="0 0 2048 2048"
   id="svg14"
   sodipodi:docname="tres-vieux-trucs.svg"
   inkscape:version="1.2.1 (9c6d41e410, 2022-07-14)"
   xml:space="preserve"
   xmlns:inkscape="http://www.inkscape.org/namespaces/inkscape"
   xmlns:sodipodi="http://sodipodi.sourceforge.net/DTD/sodipodi-0.dtd"
   xmlns="http://www.w3.org/2000/svg"
   xmlns:svg="http://www.w3.org/2000/svg"><defs
     id="defs18"><pattern
       id="EMFhbasepattern"
       patternUnits="userSpaceOnUse"
       width="6"
       height="6"
       x="0"
       y="0" /><pattern
       id="EMFhbasepattern-1"
       patternUnits="userSpaceOnUse"
       width="6"
       height="6"
       x="0"
       y="0" /><pattern
       id="EMFhbasepattern-2"
       patternUnits="userSpaceOnUse"
       width="6"
       height="6"
       x="0"
       y="0" /><pattern
       id="EMFhbasepattern-9"
       patternUnits="userSpaceOnUse"
       width="6"
       height="6"
       x="0"
       y="0" /></defs><sodipodi:namedview
     id="namedview16"
     pagecolor="#505050"
     bordercolor="#eeeeee"
     borderopacity="1"
     inkscape:showpageshadow="0"
     inkscape:pageopacity="0"
     inkscape:pagecheckerboard="0"
     inkscape:deskcolor="#505050"
     showgrid="false"
     inkscape:zoom="0.20678711"
     inkscape:cx="-159.58442"
     inkscape:cy="1049.3884"
     inkscape:window-width="1920"
     inkscape:window-height="1057"
     inkscape:window-x="-8"
     inkscape:window-y="-8"
     inkscape:window-maximized="1"
     inkscape:current-layer="g4168" /><circle
     cx="1024"
     cy="1024"
     r="968.2"
     fill="#fff"
     id="circle2" /><path
     d="m1024 0a1024 1024 0 00-1024 1024 1024 1024 0 001024 1024 1024 1024 0 001024-1024 1024 1024 0 00-1024-1024zm.0234 71.99a952 951.9 0 01952 951.9 952 951.9 0 01-952 951.9 952 951.9 0 01-952-951.9 952 951.9 0 01952-951.9z"
     fill="#010000"
     style="paint-order:stroke fill markers"
     id="path4" /><g
     id="g4168"
     transform="translate(2538.843,96.717827)"><path
       style="fill:none;stroke:#000000;stroke-width:50;stroke-linecap:round;stroke-linejoin:round;stroke-opacity:1"
       d="m -1692.562,1208.9728 c 0,0 -488.425,-159.5844 -464.2455,-531.94801 24.1794,-372.36363 348.1841,-614.158202 715.7119,-570.63518 367.5277,43.52302 560.96337,265.97403 565.79926,328.84061 4.83589,62.86659 29.01535,154.74853 4.83589,241.79457 -24.17945,87.04605 19.34357,164.42031 -19.34356,227.2869 -38.68713,62.86658 -82.21015,178.92801 -135.40499,232.12281 -53.1948,53.1948 -178.928,62.8666 -178.928,62.8666"
       id="path3979"
       sodipodi:nodetypes="cssssssc" /><path
       style="fill:none;stroke:#000000;stroke-width:50;stroke-linecap:round;stroke-linejoin:round;stroke-opacity:1"
       d="m -1150.9421,1184.7934 -149.9127,517.4404 c 0,0 -72.5383,-58.0307 -164.4203,-58.0307 -91.8819,0 -435.2302,-4.8359 -435.2302,-4.8359 0,0 72.5384,-164.4203 91.8819,-251.4664 19.3436,-87.046 29.0154,-203.1074 29.0154,-203.1074"
       id="path4077" /><path
       style="fill:none;stroke:#000000;stroke-width:20;stroke-linecap:round;stroke-linejoin:round;stroke-dasharray:none;stroke-opacity:1"
       d="m -1796.9428,1446.4449 518.0529,104.2945"
       id="path4079" /><path
       style="fill:none;stroke:#000000;stroke-width:20;stroke-linecap:round;stroke-linejoin:round;stroke-dasharray:none;stroke-opacity:1"
       d="m -1778.1356,1256.6632 c 0,0 210.2987,5.1292 280.3983,20.5169 70.0996,15.3877 218.8474,78.6483 234.2352,80.3581 15.3877,1.7097 44.4534,5.1292 44.4534,5.1292"
       id="path4081" /><path
       style="fill:none;stroke:#000000;stroke-width:20;stroke-linecap:round;stroke-linejoin:round;stroke-dasharray:none;stroke-opacity:1"
       d="m -1778.1356,1318.214 c 0,0 37.6144,-22.2267 95.7457,-11.9682 58.1314,10.2585 121.392,11.9682 150.4577,20.5169 29.0657,8.5488 145.3284,32.4852 167.5551,42.7437 22.2267,10.2585 119.6822,73.519 119.6822,73.519"
       id="path4083" /><path
       style="fill:none;stroke:#000000;stroke-width:20;stroke-linecap:round;stroke-linejoin:round;stroke-dasharray:none;stroke-opacity:1"
       d="m -1810.6208,1383.1843 c 0,0 174.3941,-15.3877 210.2987,-10.2584 35.9047,5.1292 124.8115,-3.4195 162.4259,11.9682 37.6144,15.3877 193.2013,70.0996 193.2013,70.0996"
       id="path4085" /><path
       style="fill:none;stroke:#000000;stroke-width:20;stroke-linecap:round;stroke-linejoin:round;stroke-dasharray:none;stroke-opacity:1"
       d="m -1709.7458,1307.9555 -13.678,-53.0021"
       id="path4087" /><path
       style="fill:none;stroke:#000000;stroke-width:20;stroke-linecap:round;stroke-linejoin:round;stroke-dasharray:none;stroke-opacity:1"
       d="m -1631.0975,1323.3432 8.5487,-70.0995"
       id="path4089" /><path
       style="fill:none;stroke:#000000;stroke-width:20;stroke-linecap:round;stroke-linejoin:round;stroke-dasharray:none;stroke-opacity:1"
       d="m -1494.3178,1342.1504 11.9682,-64.9703"
       id="path4091" /><path
       style="fill:none;stroke:#000000;stroke-width:20;stroke-linecap:round;stroke-linejoin:round;stroke-dasharray:none;stroke-opacity:1"
       d="m -1378.0551,1366.0869 25.6462,-59.8411"
       id="path4093" /><path
       style="fill:none;stroke:#000000;stroke-width:20;stroke-linecap:round;stroke-linejoin:round;stroke-dasharray:none;stroke-opacity:1"
       d="m -1282.3093,1431.0572 30.7754,-88.9068"
       id="path4095" /><path
       style="fill:none;stroke:#000000;stroke-width:20;stroke-linecap:round;stroke-linejoin:round;stroke-dasharray:none;stroke-opacity:1"
       d="m -1307.9555,1540.481 11.9682,-97.4556"
       id="path4097" /><path
       style="fill:none;stroke:#000000;stroke-width:20;stroke-linecap:round;stroke-linejoin:round;stroke-dasharray:none;stroke-opacity:1"
       d="m -1405.411,1519.964 41.0339,-102.5847"
       id="path4099" /><path
       style="fill:none;stroke:#000000;stroke-width:20;stroke-linecap:round;stroke-linejoin:round;stroke-dasharray:none;stroke-opacity:1"
       d="m -1499.4471,1507.9958 27.356,-119.6822"
       id="path4101" /><path
       style="fill:none;stroke:#000000;stroke-width:20;stroke-linecap:round;stroke-linejoin:round;stroke-dasharray:none;stroke-opacity:1"
       d="m -1605.4513,1470.3814 23.9364,-25.6462 17.0975,-73.5191"
       id="path4103" /><path
       style="fill:none;stroke:#000000;stroke-width:20;stroke-linecap:round;stroke-linejoin:round;stroke-dasharray:none;stroke-opacity:1"
       d="m -1714.875,1461.8327 25.6462,-63.2606"
       id="path4105" /><path
       style="fill:none;stroke:#000000;stroke-width:20;stroke-linecap:round;stroke-linejoin:round;stroke-dasharray:none;stroke-opacity:1"
       d="m -1364.3771,1010.4598 -32.4852,-90.61656"
       id="path4107" /><path
       style="fill:none;stroke:#000000;stroke-width:20;stroke-linecap:round;stroke-linejoin:round;stroke-dasharray:none;stroke-opacity:1"
       d="m -1480.6399,988.23307 c 0,0 17.0975,-34.19492 25.6462,-51.29238 8.5488,-17.09745 18.8072,-30.77542 18.8072,-30.77542"
       id="path4109" /><path
       style="fill:none;stroke:#000000;stroke-width:20;stroke-linecap:round;stroke-linejoin:round;stroke-dasharray:none;stroke-opacity:1"
       d="m -1955.9492,694.15679 c 5.1293,42.74365 73.5191,165.84534 99.1653,189.78178 25.6462,23.93644 87.197,100.87501 181.233,53.00212 94.036,-47.87288 136.7797,-75.22881 140.1992,-145.32839 3.4195,-70.09958 -32.4852,-232.52543 -109.4238,-283.8178 -76.9385,-51.29237 -119.6822,-39.32415 -119.6822,-39.32415"
       id="path4111" /><path
       style="fill:none;stroke:#000000;stroke-width:20;stroke-linecap:round;stroke-linejoin:round;stroke-dasharray:none;stroke-opacity:1"
       d="m -1781.5551,482.14831 -82.0678,64.97034 c 0,0 -17.0975,-3.41949 -42.7437,22.2267 -25.6461,25.64619 -46.1631,129.94068 -46.1631,129.94068"
       id="path4113" /><path
       style="fill:none;stroke:#000000;stroke-width:20;stroke-linecap:round;stroke-linejoin:round;stroke-dasharray:none;stroke-opacity:1"
       d="m -1061.7521,545.40891 c 0,0 -34.195,-80.35805 -85.4873,-112.84322 -51.2924,-32.48517 -152.1674,-75.22882 -225.6865,11.96822 -73.519,87.19703 -73.519,135.06991 -75.2288,172.68432 -1.7097,37.61441 18.8072,153.87712 59.8411,182.9428 41.0339,29.06568 92.3263,49.58263 123.1017,46.16314 30.7754,-3.4195 107.714,-41.0339 131.6504,-73.51907 23.9365,-32.48517 73.5191,-194.91102 73.5191,-194.91102 l -27.3559,-23.93644"
       id="path4115" /><path
       style="fill:none;stroke:#000000;stroke-width:10;stroke-linecap:round;stroke-linejoin:round;stroke-dasharray:none;stroke-opacity:1"
       d="m -1682.3899,928.39196 c 11.6384,-46.19368 -33.1331,-62.09989 -47.8728,-94.03601 -1.2178,-2.63854 -0.6305,-5.85057 -1.7098,-8.54873 -0.2116,-0.52916 -1.2,0.25487 -1.7097,0 -8.5635,-4.28173 -6.5508,-0.28817 -11.9683,5.12923 -1.453,1.45301 -3.8455,1.81492 -5.1292,3.4195 -4.3757,5.46966 -2.7904,11.33913 -8.5487,17.09745 -1.453,1.45301 -3.6763,1.96649 -5.1293,3.4195 -1.453,1.453 -2.0822,3.56907 -3.4194,5.12923 -7.4383,8.67793 -16.8485,15.18855 -25.6462,22.2267 -1.2588,1.00698 -1.9777,2.6986 -3.4195,3.41949 -1.0195,0.50975 -2.4,-0.50975 -3.4195,0 -0.5098,0.25487 0.403,1.30675 0,1.70975 -0.403,0.40299 -1.2,-0.25488 -1.7098,0 -0.7209,0.36044 -0.9451,1.45487 -1.7097,1.70974 -2.1627,0.72089 -6.839,-2.27966 -6.839,0 0,4.53494 17.0403,-7.60815 18.8072,-10.25847 5.3365,-8.00469 0.4766,-14.05925 8.5487,-20.51695 4.2061,-3.36486 5.4526,-2.71079 8.5488,-6.83899 6.454,-8.60535 11.5909,-17.39901 18.8072,-25.64618 2.1229,-2.42626 5.6416,-3.84564 6.839,-6.83899 0.8727,-2.18175 0.7841,-4.67915 1.7097,-6.83898 2.6924,-6.28235 7.2028,-12.69591 10.2585,-18.8072 2.7297,-5.45949 7.6771,-12.80635 11.9682,-17.09746 3.5607,-3.5607 9.0796,-4.21573 11.9682,-8.54873 2.8655,-4.2982 4.8355,-9.96468 8.5487,-13.67797 11.1681,-11.16808 -5.4591,10.24347 6.839,-5.12923 1.2837,-1.60458 1.9665,-3.67624 3.4195,-5.12924 8.9565,-8.95644 1.8769,3.71077 10.2585,-10.25848 3.1583,-5.26377 -7.317,3.89748 1.7097,-5.12923 1.4395,-1.4395 13.4676,-3.62989 15.3878,-1.70975 1.8022,1.80223 -2.0512,4.68871 -3.4195,6.83898 -33.5293,52.6889 14.9854,-22.47813 -17.0975,25.64619 -1.8433,2.76503 -3.2859,5.7837 -5.1292,8.54873 -1.5807,2.37099 -4.071,4.19322 -5.1293,6.83898 -2.3664,5.91611 -1.8741,12.62561 -3.4195,18.80721 -3.2284,12.91378 -3.7568,12.46847 -8.5487,25.64618 -0.803,2.20835 -0.048,5.17741 -1.7097,6.83899 -0.403,0.40299 -1.3068,-0.40299 -1.7098,0 -1.3219,1.32194 -0.6369,7.4759 -1.7097,8.54873 -0.403,0.40299 -1.2538,-0.34195 -1.7098,0 -5.0001,3.75006 -8.8538,10.33474 -15.3877,11.96822 -1.1058,0.27645 -2.4711,-0.63227 -3.4195,0 -1.7097,1.13983 -2.5005,3.29131 -3.4195,5.12923 -1.7559,3.5118 -1.1502,19.36671 1.7098,22.2267 2.0824,2.08244 3.8199,0.80088 5.1292,3.41949 0.2549,0.50975 -0.5097,1.45487 0,1.70975 13.0311,6.51553 -10.0095,-10.66241 8.5487,1.70974 2.0119,1.34124 3.2412,3.61876 5.1293,5.12924 1.3534,1.08271 13.7108,4.88969 15.3877,5.12924 18.1911,2.59873 36.5736,-1.27844 47.8729,-17.09746 4.8128,-6.73799 8.3134,-16.62679 11.9682,-23.93644 2.8496,-5.69915 7.2991,-10.84935 8.5487,-17.09746 1.0543,-5.27113 1.2763,-22.25092 0,-27.35593 -2.3394,-9.3577 -3.73,-7.09707 -6.839,-15.38771 -3.1956,-8.52168 -5.9321,-18.2875 -6.8389,-27.35594 -0.9083,-9.08241 4.1552,-14.17538 6.8389,-22.22669 2.3937,-7.18093 -2.3936,-16.75551 0,-23.93644 6.2866,-9.42991 1.8231,-0.67968 3.4195,-10.25848 1.0554,-6.33239 6.4638,-33.42328 3.4195,-41.0339 -0.7631,-1.90789 -2.7697,-3.17982 -3.4195,-5.12923 -0.5406,-1.62201 0.7647,-3.6 0,-5.12924 -1.632,-3.26398 -4.7618,-5.54836 -6.839,-8.54873 -8.79,-12.69674 -15.6846,-26.357 -23.9364,-39.32415 -2.2064,-3.46721 -5.1168,-6.52702 -6.839,-10.25848 -1.817,-3.93679 -5.7204,-23.37715 -6.839,-23.93644 -2.2701,-1.13509 -6.2785,-0.57466 -8.5487,-1.70975 -3.6221,-1.81103 -9.8802,-7.72663 -13.678,-10.25847 -1.7097,-1.13983 -3.2213,-2.65634 -5.1292,-3.41949 -1.0583,-0.42332 -2.5076,0.6839 -3.4195,0 -1.6439,-1.23292 -1.7756,-3.89632 -3.4195,-5.12924 -0.9118,-0.6839 -2.2796,0 -3.4195,0 -1.7097,-1.13983 -3.5246,-2.13583 -5.1292,-3.41949 -2.5175,-2.01397 -4.3215,-4.82501 -6.839,-6.83898 -13.4611,-10.76891 4.4128,4.8617 -11.9682,-6.83899 -5.3355,-3.8111 -12.0726,-15.92284 -18.8072,-13.67796 -12.0177,4.0059 -23.9535,25.68025 -29.0657,35.90466 -3.5501,7.10027 -5.5447,19.5156 -13.678,22.22669 -2.7679,0.92267 -14.5964,0.83367 -17.0974,0 -4.7845,-1.59484 -6.4492,-5.69177 -10.2585,-8.54873 -15.3054,-11.47907 -2.1916,1.05243 -15.3877,-10.25847 -3.6717,-3.14716 -7.576,-6.23477 -10.2585,-10.25848 -0.9997,-1.49954 -1.0404,-3.4559 -1.7097,-5.12923 -2.7103,-6.77575 -0.4455,-2.15521 1.7097,0"
       id="path4117" /><path
       style="fill:none;stroke:#000000;stroke-width:10;stroke-linecap:round;stroke-linejoin:round;stroke-dasharray:none;stroke-opacity:1"
       d="m -1673.8411,702.70552 c -14.8178,6.83898 -31.0488,11.20815 -44.4534,20.51695 -15.6085,10.83921 -21.7606,26.26799 -13.678,22.22669 5.8733,-2.93665 11.855,-22.28066 13.678,-25.64618 13.2056,-24.37967 32.2667,-48.0152 34.1949,-76.93856 0.4749,-7.12307 -4.0747,-16.85783 -8.5487,-22.2267 -1.548,-1.85752 -3.862,-3.06997 -5.1293,-5.12924 -7.7372,-12.57296 -20.7415,-46.57939 -23.9364,-54.71186 -1.318,-3.35486 -2.5453,-6.76163 -3.4195,-10.25848 -0.2765,-1.10579 0.806,-2.61351 0,-3.41949 -2.5487,-2.54874 -6.9455,1.99963 -10.2585,3.41949 -1.6565,0.70994 -3.3808,1.27265 -5.1292,1.70975 -0.5529,0.13823 -1.5861,-0.55634 -1.7098,0 -1.1195,5.03791 -1.4642,10.23275 -1.7097,15.38771 -1.6354,34.3435 10.3815,66.39867 18.8072,99.16526 2.122,8.25242 18.3517,76.40612 10.2585,87.19703 -0.7646,1.0195 -2.5184,0.80863 -3.4195,1.70975 -1.7727,1.7727 -8.7564,9.71504 -10.2585,11.96822 -0.3161,0.4742 0.403,1.30675 0,1.70975 -6.589,6.58898 -13.678,-24.56073 -13.678,-41.0339 0,-21.54913 8.8641,-43.70626 17.0975,-63.2606 6.5977,-15.66963 11.2981,-14.94303 0,-29.06568 -3.6388,-4.54851 -8.4735,-10.70397 -13.678,-13.67796 -7.5683,-4.32477 -14.0504,1.69296 -17.0974,8.54873 -1.1803,2.65554 -0.5295,5.89318 -1.7098,8.54873 -1.1573,2.60397 -3.7154,4.36485 -5.1292,6.83898 -3.3375,5.84057 -7.1094,14.03983 -8.5487,20.51695 -2.1163,9.52307 1.3032,19.5426 3.4195,29.06568 1.5047,6.77132 8.4553,8.26853 10.2584,13.67796 1.8267,5.47996 -3.741,3.41949 -6.839,3.41949 -0.5699,0 1.3937,0.4742 1.7098,0 5.1205,-7.68076 -0.01,-18.2784 -1.7098,-25.64618 -0.5057,-2.19171 -3.3235,-24.3026 -3.4194,-25.64619 -0.2437,-3.4108 0,-6.83898 0,-10.25847 0,-0.56992 0.5097,-1.45488 0,-1.70975 -0.5019,-0.25091 -21.1558,-0.45899 -22.2267,0 -2.6192,1.1225 -4.468,3.54858 -6.839,5.12924 -41.9234,27.94894 0.3783,0.66572 -18.8072,10.25847 -1.5293,0.76462 3.4527,0.33531 5.1292,0 6.1429,-1.22857 10.7628,-2.7183 13.678,-8.54873 2.6833,-5.36656 5.8654,-15.15038 8.5487,-20.51695 1.5465,-3.09297 13.678,-20.35433 13.678,-22.22669 0,-1.70975 -3.5073,0.54067 -5.1293,0 -3.5254,-1.17516 0.328,-5.87873 -11.9682,-3.41949 -8.2346,1.64693 -5.3472,13.35881 -5.1292,18.8072 1.1168,27.92081 5.6949,52.97687 10.2584,80.35805 3.7385,22.43058 2.482,25.24919 6.839,46.16314 2.9349,14.08722 8.9632,29.58379 6.839,44.45339 -2.2067,15.44735 -11.9378,7.08847 -20.5169,17.09746 -2.1627,2.52312 -3.1977,5.84457 -5.1293,8.54873 -0.9369,1.31171 -2.8208,1.92282 -3.4195,3.41949 -0.6349,1.58746 0.8797,3.66314 0,5.12924 -2.3063,3.84396 -13.6532,9.38508 -17.0974,11.96822 -2.5792,1.93435 -4.0087,5.29519 -6.839,6.83898 -11.9326,6.50867 -8.8003,0.98066 -17.0975,5.12924 -1.8379,0.91896 -3.2913,2.50053 -5.1292,3.41949 -0.7209,0.36044 -2.5157,1.70974 -1.7097,1.70974 0.8059,0 1.0649,-1.22615 1.7097,-1.70974 7.2167,-5.41249 3.8786,-1.61477 11.9682,-8.54873 24.6966,-21.1685 28.1712,-54.77991 39.3242,-83.77754 0.8766,-2.27915 7.706,-10.30724 8.5487,-13.67797 0.7058,-2.82333 -4.6533,-22.70265 -6.839,-20.51695 -1.8022,1.80223 1.6173,5.03675 3.4195,6.83898 6.6225,6.62251 15.626,10.65555 20.517,18.80721 3.1972,5.32878 4.8271,12.13528 8.5487,17.09745 3.2828,4.37706 8.4274,7.83722 11.9682,11.96823 2.0981,2.44778 3.9554,8.28076 6.839,6.83898 3.504,-1.75201 1.5225,-8.08348 0,-10.25848 -9.7008,-13.85826 -20.0595,-19.4678 -32.4852,-32.48517 -12.4716,-13.0655 -18.6992,-31.25537 -32.4851,-42.74364 -3.3099,-2.75819 -7.5476,0.0975 -10.2585,-1.70975 -2.3538,-1.56919 -10.1436,-6.72412 -11.9682,-8.54873 -0.9012,-0.90111 -0.8087,-2.51837 -1.7098,-3.41949 -1.453,-1.453 -3.6762,-1.96648 -5.1292,-3.41949 -3.4667,-3.46666 -5.3582,-8.24589 -8.5488,-11.96822 -7.8342,-9.13997 -19.9386,-17.07224 -23.9364,-29.06568 -1.2616,-3.78468 1.2616,-8.18353 0,-11.96822 -0.5097,-1.52924 -2.8208,-1.92282 -3.4195,-3.41949 -4.4396,-11.099 8.6926,-24.86325 17.0975,-29.06568 3.9294,-1.96472 24.8146,0.49517 29.0656,1.70975 6.2465,1.78469 15.7179,6.89908 20.517,10.25847 3.9617,2.7732 6.5434,7.16261 10.2585,10.25848 4.4344,3.69537 11.6117,7.9447 10.2584,15.38771 -1.749,9.61978 -11.1856,26.59398 -17.0974,34.19491 -1.2616,1.62201 -3.5507,2.10401 -5.1292,3.4195 -8.4399,7.03319 -15.0738,12.68946 -22.2267,22.22669 -2.1627,2.88357 -1.8076,7.03455 -3.4195,10.25848 -0.3605,0.72089 -1.1399,1.13983 -1.7098,1.70974 -0.5699,1.13983 -1.2364,2.23627 -1.7097,3.41949 -1.0323,2.58064 -7.0913,17.82618 -5.1293,18.80721 2.5897,1.29483 5.9429,-0.0824 8.5488,5.12923 1.1244,2.24881 0.8848,4.36418 1.7097,6.83899 0.8026,2.40784 16.3704,5.12924 18.8072,5.12924"
       id="path4119" /><path
       style="fill:none;stroke:#000000;stroke-width:10;stroke-linecap:round;stroke-linejoin:round;stroke-dasharray:none;stroke-opacity:1"
       d="m -1277.1801,824.09747 c 1.7097,-16.52754 0.6997,-33.56819 5.1292,-49.58263 3.1285,-11.31058 12.5661,-19.95032 17.0975,-30.77542 7.1682,-17.12405 12.3142,-35.06508 17.0974,-53.00212 4.1911,-15.71646 6.4006,-32.56171 11.9683,-47.87288 0.7022,-1.93115 2.61,-3.24053 3.4195,-5.12924 0.9256,-2.15983 0.9666,-4.60975 1.7097,-6.83898 1.6071,-4.82121 5.2319,-10.56651 6.839,-15.38772 0.3604,-1.08133 -0.2236,-2.30179 0,-3.41949 0.6019,-3.00948 2.8176,-5.53924 3.4195,-8.54873 0.3353,-1.67654 -0.4697,-3.48527 0,-5.12923 0.7002,-2.45068 2.5245,-4.45253 3.4195,-6.83899 0.825,-2.2002 0.7841,-4.67915 1.7097,-6.83898 2.2829,-5.3268 7.0801,-7.51847 10.2585,-11.96822 4.3849,-6.13881 10.276,-13.71304 13.678,-20.51695 3.0796,-6.1593 5.1726,-12.80526 8.5487,-18.8072 6.1543,-10.94098 6.7972,-5.00397 10.2585,-15.38772 0.3604,-1.08133 -0.5098,-2.39999 0,-3.41949 0.2548,-0.50974 1.3067,0.40299 1.7097,0 0.403,-0.40299 -0.3161,-1.23554 0,-1.70974 0.8942,-1.34124 2.4523,-2.12992 3.4195,-3.41949 1.3376,-1.7835 2.2854,-7.41461 3.4195,-8.54873 3.6225,-3.62254 5.9928,5.19899 6.839,11.96822 3.4917,27.93398 0.3582,6.88852 1.7097,39.32415 0.683,16.39143 3.2699,31.52347 0,47.87288 -1.8713,9.35648 -3.7698,15.01713 -10.2585,22.2267 -2.4412,2.71246 -6.0656,4.16484 -8.5487,6.83898 -2.3837,2.56708 -20.8983,26.08009 -23.9364,30.77543 -13.197,20.39538 -21.4927,44.93673 -27.356,68.38983 -0.9774,3.90958 -0.2947,8.1949 -1.7097,11.96822 -0.4475,1.19323 -2.5184,0.80863 -3.4195,1.70974 -4.2,0.60965 -0.71,3.62969 -1.7097,5.12924 -0.8942,1.34124 -2.6986,1.97771 -3.4195,3.41949 -0.6429,1.28572 -0.8165,12.58938 0,13.67797 1.7097,2.27966 4.2902,3.85487 6.839,5.12924 13.0115,6.50578 30.9238,-30.72203 37.6144,-39.32416 1.4844,-1.90861 3.9714,-3.00653 5.1292,-5.12923 8.9022,-16.3208 12.4331,-41.63155 23.9364,-56.42162 7.7757,-9.99726 18.5714,-6.60312 25.6462,-13.67796 18.2144,-18.21442 12.1003,-27.88059 3.4195,-49.58263 -5.3028,-13.25715 -10.586,-22.68528 -18.8072,-34.19492 -0.7407,-1.03699 -0.8086,-2.51837 -1.7097,-3.41949 -3.5879,-3.58783 -26.8823,20.00636 -29.0657,23.93644 -9.4,16.92004 -12.0552,37.9333 -17.0975,56.42161 -10.2704,37.65821 -0.5797,4.014 -8.5487,23.93645 -0.4233,1.0583 0.806,2.61351 0,3.41949 -0.403,0.40299 -1.3068,-0.40299 -1.7097,0 -2.5596,2.55957 -3.1396,14.11289 -5.1293,17.09746 -1.3152,1.97278 -3.814,3.15645 -5.1292,5.12923 -0.7069,1.06034 -0.6494,2.7126 -1.7098,3.41949 -0.9484,0.63227 -2.2796,0 -3.4195,0 -3.4194,0 -6.8653,-0.42413 -10.2584,0 -17.2233,2.15291 -21.3564,3.4195 -37.6144,3.4195 -15.9577,0 -31.9153,0 -47.8729,0 -5.6992,0 -11.509,1.11769 -17.0975,0 -1.2496,-0.24993 -2.1624,-1.50025 -3.4195,-1.70975 -2.2486,-0.37477 -4.6274,0.5529 -6.839,0 -3.571,-0.89277 7.9179,-21.30326 10.2585,-23.93644 2.4244,-2.72748 6.4024,-3.88771 8.5487,-6.83898 2.5529,-3.5102 3.1882,-8.0861 5.1293,-11.96822 2.6241,-5.24818 6.0503,-10.07857 8.5487,-15.38772 3.6048,-7.66018 5.2025,-16.85799 10.2585,-23.93644 2.3502,-3.29034 18.428,-6.73557 18.8072,-6.83898 10.3088,-2.81149 25.2102,-2.89801 35.9047,-1.70975 5.9137,0.65708 11.2629,3.96233 17.0974,5.12924 1.6766,0.33531 3.4428,-0.28108 5.1293,0 3.4787,-0.59383 5.5392,2.81759 8.5487,3.41949 6.0973,1.21947 16.3519,1.18302 18.8072,8.54873 0.4001,1.20033 1.9098,13.3278 1.7097,13.67797 -1.5995,2.79915 -4.4765,4.64526 -6.839,6.83898 -32.6518,30.31955 -0.8232,2.25857 -35.9046,25.64619 -8.9073,5.9382 -14.4487,14.91822 -25.6462,20.51695 -6.8048,3.4024 -13.4906,0.14832 -20.517,1.70974 -11.268,2.50401 -9.7141,5.31067 -20.5169,1.70975 -0.5407,-0.18022 -1.3068,0.40299 -1.7097,0 -2.8105,-2.81049 2.566,-14.5352 5.1292,-18.80721 1.6853,-3.75864 6.4753,-5.09311 8.5487,-8.54872 4.1983,-6.9971 6.4406,-15.01504 10.2585,-22.2267 2.1498,-4.06083 4.5593,-7.97881 6.839,-11.96822 2.2796,-3.98941 5.1325,-7.70205 6.839,-11.96822 4.2389,-10.59734 -8.1487,-22.49974 -11.9683,-30.77542 -3.9901,-8.64531 -5.5079,-21.37728 -3.4195,-30.77543 0.5529,-2.48804 2.473,-4.47254 3.4195,-6.83898 1.1006,-2.75148 -1.9594,-0.97336 1.7098,-3.41949 13.9703,-9.31354 27.809,-18.48576 41.0339,-29.06568 1.7617,-1.4094 9.8277,-8.97954 6.839,-11.96822 -3.6726,-3.67254 -14.9698,4.35668 -17.0975,6.83898 -10.3913,12.12323 -22.2663,37.13635 -23.9364,53.00212 -1.2117,11.51083 4.7966,53.33468 -3.4195,61.55085 -0.806,0.80598 -2.2797,0 -3.4195,0 -1.7098,0 3.4195,0 5.1292,0 5.864,0 4.6325,0.54067 10.2585,-1.70975 9.2183,-3.68731 12.1226,-11.1845 13.678,-20.51695 1.4764,-8.85854 3.0545,-42.76355 3.4195,-47.87288 0.3177,-4.44779 3.8355,-18.934 0,-25.64619 -3.136,-5.48799 -7.9186,-5.63032 -11.9683,-10.25847 -2.1883,-2.50092 -3.2859,-5.7837 -5.1292,-8.54873 -1.5807,-2.37099 -3.8549,-4.29024 -5.1292,-6.83898 -3.8335,-7.66691 -6.8713,-35.00137 -1.7098,-42.74365 1.7837,-2.6755 5.9347,-6.806 8.5487,-8.54873 0.4742,-0.31613 1.3068,0.40299 1.7098,0 0.403,-0.40299 -0.403,-1.30675 0,-1.70974 0.403,-0.40299 1.4549,0.50975 1.7097,0 2.2912,-4.58224 -4.0008,-3.9665 -1.7097,-8.54873 2.156,-4.31198 16.1293,9.56697 17.0974,10.25847 6.523,4.65926 5.9162,1.40212 11.9683,3.4195 8.4911,2.83037 16.7883,6.60714 23.9364,11.96822 4.5593,3.41949 9.2277,6.69824 13.678,10.25847 0.6293,0.50349 0.9037,1.70975 1.7097,1.70975 0.5699,0 0,-1.13983 0,-1.70975 0,-1.13983 0.6839,-2.50763 0,-3.41949 -1.2329,-1.64389 -3.4674,-2.21088 -5.1292,-3.41949 -4.6091,-3.35208 -8.8996,-7.15251 -13.678,-10.25848 -13.4338,-8.73199 -26.9495,-20.74272 -42.7436,-11.96822 -9.4174,5.23188 -15.7676,28.25796 -17.0975,35.90466 -1.8062,10.386 -0.7546,56.36742 0,66.68009 1.0885,14.87634 3.8182,29.59501 5.1293,44.45339 1.1174,12.66402 -4.5895,31.31518 -8.5488,27.35593 -0.806,-0.80598 0.6839,-2.50762 0,-3.41949 -1.4507,-1.93436 -3.7238,-3.16167 -5.1292,-5.12924 -4.356,-6.0984 -8.6411,-15.57234 -11.9682,-22.22669 -1.9411,-3.88212 -2.5764,-8.45803 -5.1293,-11.96822 -2.1464,-2.95127 -5.9683,-4.25858 -8.5487,-6.83899 -8.8865,-8.88653 1.6208,-1.78092 -6.839,-8.54872 -4.1983,-3.35867 -11.1522,-6.91677 -13.678,-11.96822 -2.5817,-5.16358 6.8601,-6.83899 3.4195,-6.83899 -5.1946,0 -10.2443,-0.12718 -15.3877,1.70975 -2.3501,0.83932 -21.976,14.13433 -22.2267,15.38771 -0.447,2.23539 0.3224,4.58223 0,6.83898 -0.2548,1.78412 -1.7097,3.32701 -1.7097,5.12924 0,2.34643 14.9784,-3.87227 17.0974,-6.83898 1.7839,-2.49742 2.047,-5.80366 3.4195,-8.54873 7.277,-14.55397 11.9683,-22.83212 11.9683,-39.32415 0,-1.97971 0.7209,-9.94269 -1.7098,-11.96823 -2.3577,-1.96478 -5.9951,-1.71706 -8.5487,-3.41949 -1.0604,-0.70689 -0.6494,-2.7126 -1.7098,-3.41949 -0.3247,-0.21648 -11.7666,-0.40326 -11.9682,0 -0.5097,1.0195 0.1259,2.28663 0,3.41949 -0.445,4.00526 -1.9464,7.94527 -1.7097,11.96822 0.3413,5.80199 2.464,11.36452 3.4195,17.09746 1.6652,9.99157 2.6659,24.77574 3.4195,34.19492 0.5925,7.40712 0.4365,14.90579 1.7097,22.22669 2.8532,16.40572 8.9122,18.28251 6.839,35.90466 -0.7982,6.78456 -7.0134,11.68902 -10.2585,17.09746 -1.967,3.27829 -3.103,7.01649 -5.1292,10.25848 -2.4894,3.98306 -19.0235,14.8648 -22.2267,18.8072 -8.66,10.65844 -12.6312,22.88961 -22.2267,32.48517 -3.4195,3.41949 -8.0958,5.93312 -10.2585,10.25848 -1.0195,2.03899 1.612,5.22701 0,6.83898 -0.9011,0.90111 -2.6037,0.73075 -3.4195,1.70974 -5.5692,6.68305 -8.2435,15.43363 -13.678,22.2267 -1.2836,1.60457 -3.6762,1.96649 -5.1292,3.41949 -4.5729,4.57288 -1.7631,5.16483 -6.839,8.54873 -0.4742,0.31613 -2.2796,0 -1.7097,0 10.5293,0 21.8532,-9.21688 30.7754,-13.67797 20.0833,-10.04165 38.8737,-23.19056 58.1314,-34.19491 1.7841,-1.0195 3.1798,-2.76969 5.1292,-3.41949 2.1372,-0.7124 6.1741,0.47493 8.5487,0 5.7155,-1.1431 7.7151,-3.4195 13.678,-3.4195 2.2797,0 4.5593,0 6.839,0 0.5699,0 2.0259,-0.47419 1.7097,0 -4.3175,6.47631 -8.7053,4.28648 -13.6779,8.54873 -3.6164,3.09973 -22.8154,20.04062 -23.9365,25.64619 -2.0019,10.00964 -0.4635,31.87725 1.7098,42.74365 0.9498,4.74929 -1.4248,2.84957 0,8.54872 1.988,7.95197 20.1317,-5.93005 22.2267,-8.54872 4.3159,-5.39489 5.2409,-12.41504 6.8389,-18.80721 0.272,-1.08794 9.7442,-37.55418 11.9683,-42.74364 1.1225,-2.61918 3.8548,-4.29025 5.1292,-6.83899 1.0509,-2.10174 0.7841,-4.67915 1.7097,-6.83898 2.2781,-5.31537 8.0698,-14.85417 13.678,-17.09746 8.199,-3.27958 9.8751,6.52611 11.9682,11.96822 4.9756,12.93649 14.1518,29.06568 -8.5487,29.06568 -1.7694,0 -7.5705,0.9782 -8.5487,0 -3.249,-3.24902 4.2359,-8.18191 6.839,-11.96822 3.9411,-5.73261 7.412,-11.84035 11.9682,-17.09746 2.9152,-3.36371 6.5032,-6.159 10.2585,-8.54873 2.2158,-1.41008 23.4643,-11.14309 27.3559,-8.54872 18.3979,12.26528 3.6243,17.44017 -1.7098,30.77542 -1.0792,2.69816 -1.0049,5.72949 -1.7097,8.54873 -2.865,11.45985 -7.0619,6.67539 -13.678,11.96822 -2.8618,2.28945 -4.9458,9.44401 -6.839,11.96822 -0.3419,0.45593 -1.7097,-0.56992 -1.7097,0 0,2.54874 4.4725,-2.47291 6.839,-3.41949 1.0583,-0.42332 2.3612,0.42332 3.4195,0 3.8616,-1.54466 12.8344,-10.23588 10.2584,-15.38771 -0.3604,-0.7209 -0.9037,-1.70975 -1.7097,-1.70975 -0.5699,0 0.3161,1.23555 0,1.70975 -3.1916,4.78743 -9.1429,6.76627 -6.839,13.67796 2.6656,7.99674 7.6441,8.90151 11.9682,15.38771 3.0184,4.52754 2.1466,10.91371 5.1293,15.38772 4.2911,6.43662 10.7341,10.89262 15.3877,17.09745 1.9939,2.65852 3.6431,5.57642 5.1292,8.54873 0.5098,1.0195 -0.5097,2.4 0,3.41949 3.5578,7.11556 -0.118,-1.82777 3.4195,1.70975 0.403,0.40299 -0.403,1.30676 0,1.70975 2.3467,2.34671 1.7098,-3.0172 1.7098,-3.4195"
       id="path4121" /><path
       style="fill:none;stroke:#000000;stroke-width:18.5684;stroke-linecap:round;stroke-linejoin:round;stroke-dasharray:none;stroke-opacity:1"
       d="m -1199.1176,1278.1737 c 0,0 121.9073,136.9125 132.5079,154.0267 10.6006,17.1141 43.7276,91.2751 64.9289,100.7829 21.20123,9.5078 63.60376,1.9015 76.85455,19.0156 13.25079,17.1142 50.35301,91.2751 50.35301,91.2751 0,0 -139.13336,36.1298 -193.46156,32.3266 -54.3282,-3.8031 -201.412,-1.9015 -201.412,-1.9015"
       id="path4123" /><path
       style="fill:none;stroke:#000000;stroke-width:16.1844;stroke-linecap:round;stroke-linejoin:round;stroke-dasharray:none;stroke-opacity:1"
       d="m -1871.4797,1629.3946 c 0,0 -65.393,3.2786 -105.0959,3.2786 -39.7029,0 -207.8565,37.7034 -207.8565,37.7034 0,0 8.1741,-73.7676 74.735,-154.0925 66.5607,-80.3248 156.4761,-185.2389 169.3212,-201.6317 12.8451,-16.3929 60.7221,-52.4571 78.2381,-63.9321 17.516,-11.4749 65.393,-54.0963 65.393,-54.0963"
       id="path4125" /><path
       style="fill:none;stroke:#000000;stroke-width:10;stroke-linecap:round;stroke-linejoin:round;stroke-dasharray:none;stroke-opacity:1"
       d="m -1422.5085,128.23093 -18.8072,95.74577 h 17.0975 l 6.8389,-41.0339 20.517,10.25847 -6.839,64.97034 c 0,0 -32.4852,13.67797 -29.0657,22.2267 3.4195,8.54873 23.9365,71.80932 15.3877,78.64831 -8.5487,6.83898 -22.2267,-1.70975 -22.2267,-1.70975 0,0 0,95.74576 -15.3877,83.77754 -15.3877,-11.96822 -18.8072,-47.87288 -18.8072,-47.87288 0,0 -5.1292,34.19492 -17.0974,13.67797 -11.9682,-20.51695 6.839,-18.80721 6.839,-49.58263 0,-30.77542 20.5169,-95.74576 20.5169,-95.74576 0,0 -27.3559,42.74364 -42.7436,80.35805 -15.3878,37.61441 -32.4852,0 -32.4852,0 0,0 11.9682,46.16313 3.4195,54.71186 -8.5487,8.54873 -17.0975,56.42161 -27.356,41.0339 -10.2584,-15.38771 -6.8389,-90.61652 5.1293,-111.13347 11.9682,-20.51695 -10.2585,10.25847 -10.2585,-8.54873 0,-18.80721 30.7754,-41.0339 53.0021,-56.42161 22.2267,-15.38772 39.3242,-37.61441 47.8729,-49.58263 8.5487,-11.96822 23.9365,-92.32627 23.9365,-92.32627 z"
       id="path4127" /><path
       style="fill:none;stroke:#000000;stroke-width:10;stroke-linecap:round;stroke-linejoin:round;stroke-dasharray:none;stroke-opacity:1"
       d="m -1469.5265,212.86335 71.8093,26.50106"
       id="path4129" /><path
       style="fill:none;stroke:#000000;stroke-width:10;stroke-linecap:round;stroke-linejoin:round;stroke-dasharray:none;stroke-opacity:1"
       d="m -1452.429,472.74471 c 0,0 -28.2109,7.69386 -25.6462,-9.4036 2.5646,-17.09746 4.2743,-20.51695 14.5328,-11.11335 10.2585,9.4036 11.1134,20.51695 11.1134,20.51695 z"
       id="path4131" /><path
       style="fill:none;stroke:#000000;stroke-width:10;stroke-linecap:round;stroke-linejoin:round;stroke-dasharray:none;stroke-opacity:1"
       d="m -1464.3973,508.64937 c 0,0 -16.2426,54.71187 -28.2108,42.74365 -11.9682,-11.96822 -8.5487,-29.92055 0,-38.46928 8.5488,-8.54873 6.839,-20.51695 13.678,-18.80721 6.839,1.70975 14.5328,14.53284 14.5328,14.53284 z"
       id="path4133" /><path
       style="fill:none;stroke:#000000;stroke-width:10;stroke-linecap:round;stroke-linejoin:round;stroke-dasharray:none;stroke-opacity:1"
       d="m -1507.9958,454.79238 -17.9523,49.58263 c 0,0 -10.2585,-5.98411 -10.2585,-18.80721 0,-12.82309 3.4195,-44.45339 10.2585,-43.59851 6.839,0.85487 17.9523,12.82309 17.9523,12.82309 z"
       id="path4135" /></g></svg>
