<svg xmlns="http://www.w3.org/2000/svg" viewBox="0 -0.5 64 64" shape-rendering="crispEdges">
<metadata>Made with Pixels to Svg https://codepen.io/shshaw/pen/XbxvNj</metadata>
<path stroke="#9bb7f8" d="M29 32h1M25 33h3M35 33h1M22 34h1M24 34h3M36 34h1M20 35h2M23 35h4M36 35h1M17 36h4M22 36h4M37 36h1M15 37h2M21 37h2M37 37h1M44 37h3M12 38h1M17 38h1M38 38h1M47 38h4M13 39h1M38 39h1M51 39h4M8 40h1M39 40h1M56 40h2" />
<path stroke="#cddcff" d="M30 32h2M29 33h6M28 34h1M35 34h1M17 37h3M13 38h4M10 39h3M7 40h1" />
<path stroke="#5674b8" d="M32 32h3M28 33h1M36 33h3M27 34h1M37 34h3M41 34h1M27 35h1M37 35h4M42 35h3M26 36h1M38 36h4M43 36h4M26 37h1M39 37h4M47 37h3M25 38h1M45 38h2M51 38h2M25 39h1M50 39h1M24 40h1M55 40h1" />
<path stroke="#2d4069" d="M23 34h1M29 34h6M40 34h1M22 35h1M28 35h2M34 35h2M41 35h1M21 36h1M27 36h2M35 36h2M42 36h1M20 37h1M23 37h3M27 37h2M35 37h2M38 37h1M43 37h1M18 38h7M26 38h3M35 38h3M39 38h6M14 39h11M26 39h3M35 39h3M39 39h11M9 40h9M23 40h1M25 40h4M35 40h4M40 40h1M46 40h9M5 41h12M24 41h5M35 41h5M47 41h13M0 42h13M15 42h2M24 42h5M35 42h5M47 42h2M51 42h13M0 43h13M15 43h2M24 43h5M35 43h5M47 43h2M51 43h13M1 44h6M11 44h2M15 44h2M24 44h5M35 44h5M47 44h2M51 44h2M57 44h6M12 45h6M23 45h2M26 45h3M35 45h3M39 45h2M46 45h6M17 46h7M26 46h3M35 46h3M40 46h7M27 47h2M35 47h2M28 48h2M34 48h2M29 49h6M29 50h6M30 51h4M31 52h2" />
<path stroke="#ff0000" d="M30 35h4M29 36h1M34 36h1M29 37h1M34 37h1M29 46h1M34 46h1M29 47h1M34 47h1M30 48h4" />
<path stroke="#ff9600" d="M30 36h1M33 36h1M29 38h1M34 38h1M29 39h1M34 39h1M29 40h1M34 40h1M29 41h1M34 41h1M29 42h1M34 42h1M29 43h1M34 43h1M29 44h1M34 44h1M29 45h1M34 45h1M30 47h1M33 47h1" />
<path stroke="#ffde00" d="M31 36h2M30 37h1M33 37h1M30 38h1M33 38h1M30 39h1M33 39h1M30 40h1M33 40h1M30 41h1M33 41h1M30 42h1M33 42h1M30 43h1M33 43h1M30 44h1M33 44h1M30 45h1M33 45h1M30 46h1M33 46h1M31 47h2" />
<path stroke="#ffffff" d="M31 37h2M31 38h2M31 39h2M31 40h2M18 41h5M31 41h2M41 41h5M18 42h5M31 42h2M41 42h5M14 43h1M18 43h5M31 43h2M41 43h5M49 43h1M18 44h5M31 44h2M41 44h5M31 45h2M31 46h2" />
<path stroke="#00ff62" d="M18 40h5M41 40h5M17 41h1M23 41h1M40 41h1M46 41h1M13 42h2M17 42h1M23 42h1M40 42h1M46 42h1M49 42h2M13 43h1M17 43h1M23 43h1M40 43h1M46 43h1M50 43h1M13 44h2M17 44h1M23 44h1M40 44h1M46 44h1M49 44h2M18 45h5M41 45h5" />
</svg>