<?xml version="1.0" encoding="UTF-8" standalone="no"?>
<svg
   width="2048"
   height="2048"
   version="1.1"
   viewBox="0 0 2048 2048"
   id="svg14"
   sodipodi:docname="vieilles-bedes.svg"
   inkscape:version="1.2.1 (9c6d41e410, 2022-07-14)"
   xmlns:inkscape="http://www.inkscape.org/namespaces/inkscape"
   xmlns:sodipodi="http://sodipodi.sourceforge.net/DTD/sodipodi-0.dtd"
   xmlns="http://www.w3.org/2000/svg"
   xmlns:svg="http://www.w3.org/2000/svg">
  <defs
     id="defs18">
    <pattern
       id="EMFhbasepattern"
       patternUnits="userSpaceOnUse"
       width="6"
       height="6"
       x="0"
       y="0" />
  </defs>
  <sodipodi:namedview
     id="namedview16"
     pagecolor="#505050"
     bordercolor="#eeeeee"
     borderopacity="1"
     inkscape:showpageshadow="0"
     inkscape:pageopacity="0"
     inkscape:pagecheckerboard="0"
     inkscape:deskcolor="#505050"
     showgrid="false"
     inkscape:zoom="0.20678711"
     inkscape:cx="26.597403"
     inkscape:cy="923.65525"
     inkscape:window-width="1920"
     inkscape:window-height="1027"
     inkscape:window-x="-8"
     inkscape:window-y="-8"
     inkscape:window-maximized="1"
     inkscape:current-layer="svg14" />
  <circle
     cx="1024"
     cy="1024"
     r="968.2"
     fill="#fff"
     id="circle2" />
  <path
     d="m1024 0a1024 1024 0 00-1024 1024 1024 1024 0 001024 1024 1024 1024 0 001024-1024 1024 1024 0 00-1024-1024zm.0234 71.99a952 951.9 0 01952 951.9 952 951.9 0 01-952 951.9 952 951.9 0 01-952-951.9 952 951.9 0 01952-951.9z"
     fill="#010000"
     style="paint-order:stroke fill markers"
     id="path4" />
  <path
     style="fill:#000000;fill-opacity:1;fill-rule:nonzero;stroke:none;stroke-width:18.6602"
     d="m 1336.5192,1074.6695 c 0,-18.6603 6.2194,-43.5399 6.2194,-68.4214 6.2213,-6.2195 6.2213,-18.66017 6.2213,-31.09907 55.9806,-12.4407 111.9612,-43.5417 161.7205,-87.08151 93.301,-93.30105 124.4019,-230.14189 74.6407,-354.54383 -49.7592,-124.40195 -161.7204,-255.02334 -304.7825,-242.58258 -80.8603,6.21944 -155.5011,37.32039 -223.9224,80.86023 -18.6602,12.44076 -55.9806,37.3204 -74.64081,62.20191 -31.101,-55.9806 -80.8603,-105.74175 -130.62146,-130.62139 -55.98059,-37.32039 -155.50103,-18.6602 -211.48163,0 -68.42135,24.87964 -130.62139,62.20004 -174.16309,111.96119 -93.301,105.73988 -111.9612,267.46223 -31.09909,385.64287 68.41948,87.0816 167.94178,130.62141 273.68167,130.62141 62.20191,130.62137 68.42134,273.68357 18.66019,410.52437 -24.87964,74.6408 -55.9806,149.2816 -43.53984,230.1437 6.21945,68.4195 31.10096,155.501 99.52044,199.0409 118.18251,87.0816 279.90302,111.9611 422.96522,49.7611 55.9806,-24.8797 118.1806,-55.9806 149.2815,-111.9612 43.5399,-68.4213 18.6603,-149.2816 -6.2194,-217.7029 -31.1009,-87.0797 -37.3204,-180.3807 -31.1009,-273.6817 6.2194,-49.7612 12.4408,-93.301 18.6602,-143.0621 z M 1006.855,906.72768 c 43.5418,37.32035 99.5224,55.98065 155.503,68.42135 0,6.2195 6.2194,12.4389 6.2194,18.6602 12.4407,24.87967 12.4407,55.98057 12.4407,87.07967 0,31.1009 6.2194,62.2019 -6.2213,93.301 -6.2194,24.8815 -24.8796,49.7611 -49.7593,62.2019 -24.8815,12.4389 -55.9806,18.6602 -80.8621,24.8796 -24.8797,6.2195 -62.20001,12.4408 -87.07971,-6.2194 -49.7612,-37.3204 -31.1009,-118.1825 -24.8815,-167.9418 0,-37.3204 6.2214,-74.6407 18.6602,-111.96117 6.2213,-18.6601 6.2213,-37.3204 12.4407,-55.98056 6.2196,-6.22137 6.2196,-18.6602 18.6603,-18.6602 0,-6.22134 6.2194,-6.22134 6.2194,-6.22134 6.2214,6.22134 12.44081,6.22134 18.66021,12.44075 z M 739.39274,863.18783 c -12.44076,0 -18.66019,0 -31.10095,0 0,0 -6.21945,0 -6.21945,0 -6.21944,0 -6.21944,6.21942 -6.21944,6.21942 -68.42135,-6.21942 -136.8427,-31.10092 -186.60199,-87.08154 -68.42135,-87.07967 -68.42135,-205.26218 -6.22131,-292.34186 12.44076,-12.44076 18.6602,-18.6602 31.10095,-31.10096 12.44075,-18.66019 24.87965,-37.3204 43.53984,-49.76115 49.76116,-43.53984 118.18251,-68.41948 186.602,-74.64079 31.10095,0 62.2019,6.22131 87.08154,24.88151 18.66021,6.21944 43.53986,31.09909 49.76116,55.98059 31.0991,43.53984 62.2,105.73988 68.4196,149.28159 18.6601,62.20004 24.8815,136.84083 -12.439,192.82143 -37.3204,43.53985 -93.301,74.64085 -149.2816,93.30101 -12.44075,6.21942 -31.10096,12.44075 -43.5417,12.44075 0,0 0,0 -6.21945,0 -6.21945,0 -12.44075,0 -18.6602,0 z m 566.02546,802.38857 c -12.4389,31.0991 -37.3204,49.7593 -62.2001,62.2 -62.2,37.3204 -130.6213,62.2 -199.0427,55.9806 -74.64071,0 -136.84091,-24.8796 -199.04091,-62.2 -31.10095,-18.6602 -49.76115,-37.3204 -62.20191,-74.6408 -12.43888,-37.3204 -24.87964,-74.6408 -24.87964,-118.1825 6.21945,-68.4195 43.53984,-136.8409 62.20004,-205.2622 37.3204,-130.6214 24.88151,-273.6817 -31.09909,-404.30303 6.21945,0 12.43889,0 18.6602,0 37.3204,-12.44079 74.64079,-31.10095 105.74,-49.76122 -6.2196,6.21941 -6.2196,12.44075 -12.439,24.87968 -12.44072,37.3204 -18.66021,80.8621 -24.88152,124.40197 -6.21943,74.6408 -24.87964,174.1612 18.66022,242.5825 49.7612,74.6408 136.84271,55.9806 211.48361,31.101 31.0991,-12.4408 68.4194,-24.8815 87.0797,-55.9806 24.8815,-31.1009 31.1009,-68.4214 31.1009,-105.7417 6.2194,-43.5399 6.2194,-93.301 -6.2194,-136.84087 -6.2214,0 -6.2214,0 -6.2214,-6.2213 24.8815,0 55.9806,0 80.8621,0 0,0 0,6.2213 0,6.2213 -6.2213,37.32037 -12.4407,74.64087 -18.6601,111.96117 -6.2214,74.6408 -6.2214,155.501 -6.2214,230.1418 6.2214,74.6409 18.6602,149.2816 37.3204,217.703 6.2213,37.3204 18.6602,80.8603 0,111.9612 z m -31.099,-746.40793 c -49.7612,6.21942 -99.5224,-6.22137 -149.2817,-24.88154 -18.6601,-12.43893 -43.5416,-24.87968 -62.2019,-43.53985 -6.2194,-6.21941 -18.6602,-12.44075 -24.8796,-24.87968 0,0 -6.2195,-6.22128 -12.4407,-12.44073 0,0 0,0 0,0 0,-12.44075 -6.2196,-31.10096 -12.439,-37.32039 31.0991,-55.9806 31.0991,-124.40196 24.8797,-192.82144 -6.2195,-24.88151 -12.4407,-55.9806 -24.8797,-87.08154 0,-12.44076 6.2194,-18.66021 12.439,-31.10096 18.6601,-18.66021 43.5416,-37.3204 62.2018,-49.75929 49.7594,-24.8815 105.74,-43.54171 161.7205,-49.76115 55.9806,-12.44076 105.7417,-6.21944 149.2816,31.10095 43.5418,37.3204 74.6407,74.6408 99.5224,124.40008 43.5397,87.08155 55.9806,186.60199 0,273.68354 -49.7612,74.64078 -136.8428,124.402 -223.9224,124.402 z"
     id="path8263" />
  <path
     style="fill:#000000;fill-opacity:1;fill-rule:nonzero;stroke:none;stroke-width:18.6602"
     d="m 739.39274,608.16448 c 0,0 0,-6.21944 -6.21945,-6.21944 0,-6.22131 0,-6.22131 -6.22131,-12.44075 0,0 0,0 0,0 0,0 -6.21943,0 -6.21943,0 -6.21945,0 -6.21945,0 -12.44076,0 0,0 -6.21945,0 -6.21945,0 -6.21944,0 -6.21944,6.21944 -6.21944,6.21944 0,0 0,0 -6.22131,0 0,0 0,6.22131 0,6.22131 -6.21945,6.21944 -6.21945,12.43889 -6.21945,24.87964 0,0 6.21945,6.21945 6.21945,6.21945 0,0 0,0 0,6.22131 0,0 6.22131,0 6.22131,6.21945 6.21944,0 6.21944,6.21943 6.21944,6.21943 6.21945,0 6.21945,0 6.21945,0 6.22131,0 6.22131,0 12.44076,0 0,0 0,0 6.21943,0 0,0 0,0 6.22131,-6.21943 0,0 0,0 0,0 0,-6.21945 6.21945,-6.21945 6.21945,-12.44076 0,0 0,0 0,0 0,0 0,0 0,0 0,0 0,0 0,0 0,-6.21945 0,-6.21945 0,-6.21945 0,0 0,0 0,-6.21944 0,0 0,0 0,0 0,0 0,0 0,0 0,0 0,0 0,-6.22131 0,0 0,0 0,-6.21945 z"
     id="path8265" />
  <path
     style="fill:#000000;fill-opacity:1;fill-rule:nonzero;stroke:none;stroke-width:18.6602"
     d="m 1305.4182,595.72373 c 0,-6.21944 -6.2195,-6.21944 -6.2195,-12.43889 0,0 -6.2194,-6.22131 -6.2194,-6.22131 -6.2213,0 -6.2213,0 -12.4407,-6.21944 0,0 -6.2194,0 -12.4408,0 -6.2194,6.21944 -6.2194,6.21944 -12.4389,6.21944 0,0 0,0 -6.2213,0 0,6.22131 -6.2195,6.22131 -12.4389,12.44076 0,6.21944 0,6.21944 -6.2213,12.44075 0,0 0,6.21944 -6.2194,6.21944 0,6.21945 0,12.44076 0,18.6602 0,0 0,6.21945 0,6.21945 0,6.22131 6.2194,6.22131 6.2194,12.44076 0,0 6.2213,0 6.2213,6.21943 0,0 6.2194,0 6.2194,0 6.2195,0 6.2195,0 6.2195,0 0,6.22131 6.2213,6.22131 6.2213,6.22131 0,0 6.2195,-6.22131 6.2195,-6.22131 0,0 0,0 6.2194,0 0,0 0,0 0,0 6.2214,0 6.2214,0 12.4408,-6.21943 0,0 0,0 0,0 0,0 6.2194,0 6.2194,0 0,0 0,0 0,0 0,-6.21945 6.2213,-6.21945 6.2213,-6.21945 0,0 6.2194,-6.22131 6.2194,-6.22131 0,-6.21945 6.2195,-12.43889 6.2195,-12.43889 0,-6.22131 0,-12.44076 0,-12.44076 0,-6.21944 0,-6.21944 0,-12.44075 z"
     id="path8267" />
  <path
     style="fill:#000000;fill-opacity:1;fill-rule:nonzero;stroke:none;stroke-width:18.6602"
     d="m 1230.7774,1416.7725 c 0,-6.2194 -6.2194,-6.2194 -12.4388,-12.4389 0,0 -6.2214,0 -6.2214,0 0,0 0,0 0,0 -6.2194,0 -6.2194,-6.2213 -12.4389,-6.2213 0,0 0,0 0,0 -6.2212,0 -6.2212,0 -12.4408,-6.2195 -6.2194,0 -12.4407,-6.2194 -18.6601,-12.4407 -6.2194,0 -6.2194,-6.2195 -12.4408,-6.2195 0,0 -6.2194,0 -6.2194,-6.2194 -6.2195,0 -12.4407,0 -12.4407,0 -6.2196,0 -6.2196,0 -6.2196,0 -6.2194,0 -18.6601,12.4389 -18.6601,18.6602 0,0 0,0 0,0 0,6.2194 0,12.4389 0,18.6602 6.2194,0 6.2194,6.2195 6.2194,6.2195 6.2213,6.2194 6.2213,12.4407 12.4407,18.6601 12.4408,6.2195 18.6603,12.4408 31.1011,18.6602 0,6.2195 0,12.4408 0,18.6603 -6.2214,18.6601 -12.4408,37.3203 -18.6603,49.7611 -18.6602,31.0991 -49.7611,55.9806 -80.8621,68.4195 -37.3203,12.4407 -80.86021,12.4407 -111.96121,-6.2194 -18.6602,-12.4408 -24.8796,-24.8797 -37.3203,-37.3205 -6.2196,-12.4407 -6.2196,-18.6601 -12.439,-31.1009 0,-6.2195 0,-6.2195 0,-12.4389 0,-6.2213 0,-12.4408 0,-18.6602 6.2194,-6.2213 12.439,-6.2213 18.6602,-12.4407 6.2195,-6.2195 18.6603,-12.4408 24.8797,-18.6603 6.2194,-12.4407 -6.2194,-18.6602 -12.4408,-24.8796 -6.2194,0 -6.2194,0 -12.4389,6.2194 0,0 -6.2212,0 0,0 -6.2212,0 -12.4408,0 -18.6602,0 0,0 -6.2213,0 -12.44072,0 0,6.2195 0,6.2195 -6.21949,6.2195 6.21949,0 0,0 0,0 -6.22131,0 -18.66019,0 -24.8815,0 -12.43889,0 -18.6602,0 -31.09909,0 -6.22131,0 -18.6602,12.4407 -18.6602,18.6602 0,12.4408 6.21945,18.6602 12.43889,24.8815 6.22131,6.2194 12.44075,6.2194 24.88151,6.2194 -6.22131,0 -6.22131,6.2195 -6.22131,6.2195 -6.21945,24.8815 6.22131,55.9806 18.6602,74.6408 24.8815,37.3204 62.20191,68.4214 105.74171,80.8621 87.08171,24.8796 186.60211,-18.6602 230.14201,-99.5223 12.4407,-18.6602 18.6601,-43.5399 24.8815,-68.4195 0,-6.2213 0,-18.6602 0,-24.8815 6.2194,-6.2195 6.2194,-6.2195 12.4388,-6.2195 6.2213,0 12.4407,-6.2194 12.4407,-12.4407 0,-12.4389 0,-18.6602 -12.4407,-18.6602 z"
     id="path8269" />
</svg>
