<svg width="2048" height="2048" version="1.1" viewBox="0 0 2048 2048" xmlns="http://www.w3.org/2000/svg">
 <circle cx="1024" cy="1024" r="968.2" fill="#fff"/>
 <path d="m1024 0a1024 1024 0 00-1024 1024 1024 1024 0 001024 1024 1024 1024 0 001024-1024 1024 1024 0 00-1024-1024zm.023 71.99a952 951.9 0 01952 951.9 952 951.9 0 01-952 951.9 952 951.9 0 01-952-951.9 952 951.9 0 01952-951.9z"/>
 <path d="m1013.9 189.53a834.53 834.53 0 0 0-824.39 841.21 834.53 834.53 0 0 0 195.74 528.54l243.56-213.97a510.19 510.19 0 0 1-114.96-317.18 510.19 510.19 0 0 1 503.99-514.27 510.19 510.19 0 0 1 375.21 160.05l244.29-214.61a834.53 834.53 0 0 0-623.43-269.77zm721.83 401.96-259.92 199.36a510.19 510.19 0 0 1 58.322 224.91l0.0684 8.2441a510.19 510.19 0 0 1-508.13 510.18 510.19 510.19 0 0 1-344.57-134.1l-259.65 199.16a834.53 834.53 0 0 0 605.54 259.29 834.53 834.53 0 0 0 831.16-834.53l-0.1094-13.484a834.53 834.53 0 0 0-122.71-419.03z"/>
 <path d="m1298.4 766.49 50.777 507.77s-199.34 185.5-251.47 45.941c-74.362-199.09 175.88-146.72 186.18-132.99l-38.687-355.44c-135.47 47.964-274.39 6.7963-411.05 91.882l77.374 362.69s-138.92 151.38-195.85 58.031c-100.63-165 115.88-155.12 130.57-125.73l-106.39-447.32c302.04-13.22 416.45-27.102 558.55-4.8359z"/>
</svg>
