<svg width="2048" height="2048" version="1.1" viewBox="0 0 2048 2048" xmlns="http://www.w3.org/2000/svg">
  <circle cx="1024" cy="1024" r="968.2" fill="#fff"/>
  <path d="m1024 0a1024 1024 0 00-1024 1024 1024 1024 0 001024 1024 1024 1024 0 001024-1024 1024 1024 0 00-1024-1024zm.0234 71.99a952 951.9 0 01952 951.9 952 951.9 0 01-952 951.9 952 951.9 0 01-952-951.9 952 951.9 0 01952-951.9z" fill="#010000" style="paint-order:stroke fill markers"/>
  <path d="m692.3 412.5c109.5-43.82 564.6-182.1 916.7 234.9 352.1 417-180.7 1107-607.1 1093-426.4-13.76-697.7-233-598.7-602 98.99-369 665.3-729.5 919.2-262.7 253.9 466.9-121.8 616.3-263.3 552.2-141.6-64.06-290.5-117.2-220.6-248.1 164.5-308.2 221.2 309.7 408.1 120.7 202.1-204.4-399.6-728-577.9-397.7-196.1 363.3-88.29 672.9 204.8 742 295.7 69.76 517-120.5 614.4-235.4s232.1-454.3-167.9-804.4c-400.1-350-695.4 209.6-836.7 89.92-199.2-168.7 99.76-239 209.2-282.8z"/>
  <circle cx="351.1" cy="828.1" r="110.7" fill="#010000" style="paint-order:stroke fill markers"/>
</svg>
