<svg version="1.1" id="facebook" xmlns="http://www.w3.org/2000/svg" width="83px" height="100px" viewBox="0 0 83 100">
<metadata xmlns:rdf="http://www.w3.org/1999/02/22-rdf-syntax-ns#"
		xmlns:cc="http://creativecommons.org/ns#"
		xmlns:dc="http://purl.org/dc/elements/1.1/">
    <rdf:RDF>
        <rdf:Description rdf:about="">
            <dc:title>Facebook bilouté</dc:title>
			<dc:creator>BilouMaster Joke</dc:creator>
			<dc:rights rdf:resource="http://creativecommons.org/licenses/by-nc/4.0/"/>
        </rdf:Description>
		<cc:Work rdf:about="">
		    <cc:attributionName>BilouMaster Joke</cc:attributionName>
			<cc:attributionURL>https://biloumaster.fr</cc:attributionURL>
			<cc:license rdf:resource="http://creativecommons.org/licenses/by-nc/4.0/"/>
		</cc:Work>
    </rdf:RDF>
</metadata>
<style type="text/css">
	.st0{opacity:0.33;fill:#020202;}
	.st1{fill:#39537C;}
	.st2{fill:#4267B2;}
	.st3{fill:#FFFFFF;stroke:#2A3542;stroke-width:0.719;stroke-miterlimit:10;}
	.st4{fill:#CCB6AE;}
	.st5{fill:#FFFFFF;}
	.st6{fill:none;stroke:#000000;stroke-width:2.9792;stroke-linecap:round;stroke-miterlimit:10;}
</style>
<polygon class="st0" points="26.85,97.7 29.68,98.42 76.47,91.16 41.19,81.56 2.32,84.61 0.81,86.07 "/>
<path class="st1" d="M76.61,72.22c0.16-2.93,2.22-2.92,2.79-5c0.18-0.14,0.08-0.41,0-0.61c0.03-0.16-0.03-0.33-0.14-0.41
	c-7.62-21.3-15.53-42.5-23.19-63.78C41.1,3.53,22.56,9.83,6.42,12.62c-3.1,2.9-4.65,9.52-3.49,14C10.66,50.05,16.27,76.7,28.8,97.57
	c16.66-6.12,33.71-12.06,50.14-19.07C79.94,77.8,76.82,73.27,76.61,72.22z"/>
<path class="st2" d="M6.54,13.4c16.3-3.45,32.7-6.42,48.82-10.75C62.24,24.2,71.03,45,78.5,66.32c0,0,0,0.01,0,0.01
	C62.45,72,46.43,77.72,30.38,83.35C22.53,60.01,14.01,36.87,6.54,13.4z"/>
<path class="st3" d="M44.62,52.81l-6.66-17.26l-4.19,1.7l-3.24-6.18l4.95-1.9c-4.4-10.83-6.75-13.98,6.67-17.12l1.83,6.23
	c-7.51,1.22-4.67,4.02-2.72,9.05l5.72-2.24l0.64,6.88l-3.57,1.57l7.24,17.48L44.62,52.81z"/>
<path class="st4" d="M31.94,85.28c15.16-3.88,31.93-9.83,46.18-16.51c-1.8,2.5-2.57,5.68-0.85,8.42
	c-15.42,6-32.38,12.75-47.81,18.73C27.47,92.41,28.12,88.87,31.94,85.28z M24.19,31.71c-7.77-0.11-7.77,11.72,0,11.61
	C31.96,43.42,31.96,31.59,24.19,31.71z M55.87,22.58c-7.45-0.11-7.45,11.32,0,11.21C63.32,33.89,63.32,22.47,55.87,22.58z
	 M66.93,56.01c-11.37-4.7-24.65-2.33-32.01,7.08c-4.38,5.79,0.41,12.41,4.86,7.68c7.47-7.06,16-8.68,25.15-7.08
	C69.69,64.19,72.07,58,66.93,56.01z"/>
<path class="st5" d="M50.9,27.72c-0.08-5.32,8.47-5.32,8.39,0C59.37,33.04,50.82,33.04,50.9,27.72z M58.8,30.52
	c-0.01,0.94,1.39,0.94,1.38,0C60.19,29.59,58.78,29.59,58.8,30.52z M27.57,39.21c-0.08,0-0.14,0.03-0.21,0.05
	c4.24-5.95-7.24-9.77-7.51-2.48c-0.12,3.5,4.49,5.47,6.99,3.05C26.7,42.36,29.83,39.83,27.57,39.21z M48.47,57.52
	c-0.02-1.3-1.47-1.72-2.53-1.35c-1.02,0.89-1.05,3.26,0.15,4.04C47.6,61.07,49.65,58.93,48.47,57.52z M53.91,58.12
	c1.99-2.55-2.94-4.73-3.57-1.67C49.87,58.54,52.76,60.25,53.91,58.12z M56.24,55.12c-1.97,0.39-1.03,3.47,0.79,2.93
	C58.57,57.45,57.93,54.77,56.24,55.12z M60.76,56.05c-0.47-0.33-1.6-0.26-1.57,0.47c0-0.03,0.01-0.07,0.01-0.1
	c-0.01,0.05-0.02,0.1-0.01,0.16c0-0.01,0-0.03-0.01-0.04c-0.12,0.5,0.11,1.27,0.74,1.18C60.97,58.36,61.76,56.58,60.76,56.05z
	 M59.19,56.54c0-0.02,0-0.04-0.01-0.06C59.19,56.5,59.19,56.52,59.19,56.54z M60.38,57.85c0.05,0,0.09-0.02,0.14-0.02
	C60.47,57.84,60.42,57.85,60.38,57.85z M59.19,56.52c0,0,0,0.01,0,0.01C59.19,56.53,59.19,56.52,59.19,56.52z M43.85,60.81
	c0.26-0.03,0.45-0.25,0.51-0.5c1.28-0.94-0.15-3.23-1.57-2.24C41.4,58.88,42.32,61.13,43.85,60.81z M40.7,61.46
	c0.19-0.39,0.16-0.86-0.04-1.24c0.91-0.99-0.86-1.29-1.33-0.44C38.12,60.83,39.56,63.17,40.7,61.46z M42.27,63.17
	c-0.31-0.58-1.01-0.43-1.22,0.14c-3.65,2.21,1.44,6.6,0.78,1.22C42.49,64.47,42.58,63.63,42.27,63.17z M44.68,63.06
	c0.3-0.28,0.02-0.94-0.41-0.82c-0.16-0.23-0.5-0.14-0.5,0.16C40.24,64.97,46.08,68.21,44.68,63.06z M47.84,62.2
	c-1.11-2.81-4.05,1.28-1.42,2.17C47.57,64.68,48.58,63.14,47.84,62.2z M49.22,61.52c0.02-0.04,0.04-0.08,0.05-0.12
	C49.25,61.44,49.23,61.48,49.22,61.52z M50.76,60.75c-1.67-0.48-2.24,2.06-0.73,2.59C51.69,63.84,52.46,61.19,50.76,60.75z
	 M55.91,59.8c-1.26-1.03-3.45-0.1-2.09,1.48C54.36,63.46,58.48,61.1,55.91,59.8z M60.13,59.23c-1.81-1.01-3.13,2.2-1.01,2.51
	C61,62.6,61.84,60.01,60.13,59.23z M63.15,59.67c-0.03-0.04-0.08-0.08-0.11-0.11c0.06-0.09-0.26-0.56-0.11-0.32
	c-1.59-1.08-1.28,1.92-0.2,2.35C63.75,61.93,63.64,60.14,63.15,59.67z M65.62,59.65c-0.02-0.04-0.05-0.07-0.06-0.1
	c0.07-0.26-0.14-0.6-0.44-0.55c-0.43-0.41-0.76,0.14-0.43,0.53C64.35,61.39,66.59,61.81,65.62,59.65z M38.39,65.93
	c0.32-1.25-1.37-1.4-1.56-0.22C36.58,67.49,38.88,68.12,38.39,65.93z M36.92,63.1c0.25-0.77-1.03-1.21-1.07-0.29
	C35.82,63.36,36.73,63.69,36.92,63.1z"/>
<path class="st1" d="M35.92,72.37c-2.47-1.05-2.75-3.72-2.14-7.03l1.5,1.27l0.29,3.14c1.28,1.27,2.53,1.05,3.72-1.27
	c0.31,0.84,1.14,1,2.5,0.45C39.76,71.08,37.76,72.93,35.92,72.37z M67.75,63.24c3.06-2.19,2.44-6.61-1.61-7.59l-0.29,2.66
	C66.91,59.55,67.49,61.25,67.75,63.24 M31.69,40.73c-1.51-0.29-1.32,1.81-2.26,2.5c-1.14,1.58-2.99,2.23-4.66,3
	c-0.47,0.13-0.87,0.45-1,0.92c0.66,4.12,7.72-0.96,8.09-3.66C32.29,42.67,32.97,41.15,31.69,40.73z M23.91,48.06
	C23.91,48.06,23.91,48.06,23.91,48.06C23.97,48.13,23.96,48.12,23.91,48.06z M23.91,48.06c-0.01-0.02-0.03-0.04-0.05-0.06
	C23.9,48.04,23.9,48.04,23.91,48.06z M64.55,33.77c-0.04,2.62-6.22,7.57-6.43,3.07c0.71-1.37,2.39-1.77,3.24-3.05
	C61.9,31.69,64.75,31.07,64.55,33.77z M39.33,75.15c-0.04,1.93-3.54,3.72-4.98,2.33c-0.35-0.56-0.06-1.44,0.69-1.34
	c0.4-0.16,0.87-0.25,1.27-0.45c0,0,0,0,0,0c0.05-0.02,0.18-0.08,0.05-0.03c0.56-0.25,1.49-0.93,1.87-0.95
	C38.63,74.51,39.31,74.59,39.33,75.15z M36.35,75.67c-0.02,0.01-0.04,0.02-0.05,0.02C36.32,75.68,36.34,75.68,36.35,75.67z
	 M73.45,62.4c-0.48-3.21-4.22,2.08-4.62,3.2C70.04,67.87,73.65,64.15,73.45,62.4z"/>
<path class="st2" d="M4.56,22.55c-0.32-1.2,1.99-5.75-0.18-5.23c-2.69,1.11-1,12.19,0.74,10.11C4.63,25.88,4.52,24.19,4.56,22.55z"
	/>
<path d="M79.06,68.65c0.01-0.01,0.02-0.03,0.03-0.04c0.88-0.21,1.24-1.66,0.64-2.29C72.4,44.71,63.58,23.6,56.17,2.02
	C41.55,4.12,22.34,9.25,6.23,12.44c-8.19,6.96-1.92,19.44,0.64,28.18c6.49,18.75,10.8,41.27,21.91,57
	c16.89-5.66,34.27-11.85,50.78-18.97c-0.07-1.97-2.17-4.39-2.82-6.52C76.97,70.67,77.78,69.41,79.06,68.65z M22.65,83.94
	C14.86,65.71,9.99,46.47,3.57,27.76c-1.17-5.06-0.15-10.23,2.6-14.82c16.63-3.06,33.31-6.3,49.61-10.8
	C62.09,24.09,71.8,45,79.24,66.56C63,72.81,46.33,77.96,29.97,83.92c-2.27,1.9-3.25,5.46-3.48,8.37
	C25.1,89.57,23.86,86.76,22.65,83.94z M76.91,74.17c0.58,1.34,1.28,2.64,2.14,3.83c-16.47,7-33.64,12.33-50.12,19.28
	c-3.12-4.29-0.95-8.82,1.17-13.06c16.51-5.35,33.13-10.63,49.17-17.23c0.02,0.32-0.04,0.67-0.25,0.93
	c-14.85,7.42-31.25,12.73-47.29,17.25c-3.03,2.38-5.35,7.44-2.44,10.71c15.18-5.55,34.87-10.98,48.07-18.84
	c-0.67-1.08-0.81-2.36-0.77-3.6C76.69,73.67,76.8,73.92,76.91,74.17z M76.24,72.27c-0.25,1.62-0.12,3.37,0.72,4.81
	c-15.51,6.72-31.27,13.01-47.3,18.35c-0.73-1.05-1-2.25-0.92-3.45c16.69-4.34,17.17-5.79,0.05-0.49c0.11-0.82,0.39-1.65,0.78-2.39
	c11.22-1.84,11.77-3.1,0.15-0.3c0.65-1.2,1.46-2.28,2.28-3.37c15.72-3.65,30.8-9.9,45.58-16.29C76.8,70.01,76.42,71.13,76.24,72.27z
	 M39.26,89.81c-2.26,0.94-5.35,2.76-7.35,3C34.18,92.01,37.33,89.79,39.26,89.81z M75.07,79.35c0.06,0,0.06,0.1,0,0.1
	C75.01,79.45,75.01,79.35,75.07,79.35z M26.28,43.21c6.58-2.55,4.21-12.47-2.63-12.14C14.82,32.83,16.45,47.28,26.28,43.21z
	 M18.59,38.5c-0.05-6.98,9.29-8.85,10.93-1.73C30.44,43.25,18.57,45.92,18.59,38.5z M58.63,33.83c6-2.07,3.59-11.13-1.99-11.93
	C45.78,21.39,48.24,37.16,58.63,33.83z M50.51,26.55c0.88-2.54,3.52-3.57,5.97-4.04c4.12,1.31,7.05,7.64,2.7,10.36
	C55.08,35.15,48.53,31.46,50.51,26.55z M28.17,45.25c-0.89,0.8-5.79,2.54-5.66,1.13c1.86-0.18,3.68-0.66,5.26-1.67
	c1.61-1.03,2.91-2.5,3.78-4.18C33.03,40.67,29.14,44.85,28.17,45.25z M62.06,33.83c2.88-6.05,1.63,1.3-1.37,2.21
	c-1.55,0.9-3.47,1.42-5.24,0.95c-0.2-0.05-0.15-0.34,0.05-0.35C57.9,36.54,60.5,35.74,62.06,33.83z M19.59,30.68
	c-5.21,5.14-4.69,3.29-0.21-0.48c1.02-0.72,4.27-2.28,4.72-1.27C22.43,29.03,20.92,29.73,19.59,30.68z M49.46,21.49
	c2.22-2.27,6-2.56,8.83-1.38c0.26,0.11,0.16,0.53-0.12,0.43c-2.84-0.98-5.93-0.22-8.4,1.34C49.51,22.04,49.26,21.7,49.46,21.49z
	 M23.84,39.41c1.54-2.67-3.19-2.7-1.26-0.22c-0.01-0.01-0.03-0.02-0.04-0.04C22.83,39.66,23.45,39.88,23.84,39.41z M22.71,39.3
	c-0.01-0.01-0.02-0.01-0.03-0.02c0,0,0,0,0,0C22.69,39.29,22.7,39.3,22.71,39.3L22.71,39.3z M22.6,39.16
	c0.06,0.04,0.11,0.1,0.18,0.12C22.72,39.24,22.64,39.23,22.6,39.16z M22.58,39.15c0,0.01,0.01,0.02,0.01,0.03
	c-0.02-0.02-0.05-0.04-0.06-0.07C22.55,39.12,22.57,39.13,22.58,39.15z M22.48,39.07c0.01,0.01,0.02,0.01,0.02,0.02
	C22.49,39.09,22.48,39.08,22.48,39.07z M22.5,39.1C22.5,39.09,22.5,39.09,22.5,39.1c0.02,0.01,0.04,0.02,0.05,0.05
	C22.53,39.13,22.52,39.11,22.5,39.1z M22.59,39.2c0.01,0.01,0.01,0.01,0.02,0.02C22.6,39.21,22.59,39.2,22.59,39.2z M57.16,28.17
	c-0.01,0.09,0.07,0.15,0.1,0.23c0,0,0,0,0-0.01c0.79,1.76,3.2-0.37,1.43-1.33c0.02,0.01,0.03,0.01,0.05,0.02
	C58.04,26.17,56.65,27.1,57.16,28.17z M58.82,27.27c0.02,0.05,0.04,0.1,0.06,0.15c-0.02-0.08-0.06-0.15-0.1-0.21
	C58.79,27.23,58.8,27.25,58.82,27.27z M58.74,27.14C58.74,27.14,58.74,27.14,58.74,27.14c0.02,0.01,0.04,0.02,0.06,0.02
	c0,0,0,0.01,0.01,0.01C58.78,27.17,58.76,27.15,58.74,27.14z M58.69,27.07c0.02,0.02,0.04,0.04,0.07,0.05
	c-0.03-0.02-0.06-0.04-0.08-0.06C58.68,27.06,58.69,27.06,58.69,27.07z M37.1,72.86c1.04-0.1,1.87-0.71,2.53-1.46
	c6.18-6.27,15.65-9.34,24.45-7.56c6.04,1.66,8.82-6.92,2.21-8.31c-0.05-0.24-0.41-0.5-0.55-0.2c-0.78-0.27-1.57-0.5-2.39-0.69
	c-0.04-0.08-0.13-0.15-0.19-0.05C45.01,47.97,23.46,67.32,37.1,72.86z M33.91,66.05c0.24,0.34,0.62,0.6,1.03,0.77
	c-0.14,1.39,0.17,2.9-0.15,4.22C33.71,69.66,33.55,67.74,33.91,66.05z M39.74,58.62c0.08,0.01,0.21,0.02,0.26,0.03
	c0.05,0.01,0.1,0.01,0.15,0.02c0.28,0.04,0.69,0.17,0.99,0.32c0.12,1.11,0.63,2.12,1.17,3.09c-1.26,0.39-2.47,0.89-3.68,1.4
	C37.04,61.52,37.59,59.76,39.74,58.62z M48.7,55.76c0.5,1.35,1.03,2.69,1.61,4.01c-1.54,0.34-3.07,0.77-4.59,1.21
	c-0.17-1.6-0.77-3.5-1.84-4.76c1.44-0.63,2.94-1.13,4.47-1.52C48.4,55.06,48.58,55.43,48.7,55.76z M42.57,61.99
	c-0.91-1.72-1.97-5.38,1.17-5.13c0.79,1.31,1.17,2.82,1.73,4.19C44.5,61.34,43.53,61.66,42.57,61.99z M43.61,56.45
	c-0.03-0.02-0.07-0.04-0.1-0.06c0.03-0.01,0.06-0.03,0.09-0.04C43.6,56.38,43.61,56.42,43.61,56.45z M41.14,58.54
	c-0.22-0.2-0.51-0.31-0.79-0.39c0.39-0.27,0.81-0.5,1.22-0.75C41.32,57.74,41.17,58.12,41.14,58.54z M38.89,64.72
	c-0.3,1.39,0.08,2.77-0.06,4.18c-0.32,1.46-2.31,2.09-3,0.56c-0.05-2.51,0.16-5.2,3.2-5.68C38.96,64.09,38.93,64.42,38.89,64.72z
	 M37.14,60.94c0.08,0.97,0.55,1.91,1.16,2.67c-0.71,0.31-1.41,0.63-2.12,0.93c-0.28-0.57-0.51-1.16-0.72-1.75
	C35.98,62.13,36.52,61.49,37.14,60.94z M35.08,63.31c0.21,0.49,0.46,0.96,0.78,1.4c-0.51,0.33-0.68,0.96-0.82,1.5
	c-0.05-0.03-0.09-0.06-0.13-0.09c-0.25-0.17-0.65-0.64-0.57-1.01c0-0.01,0.02-0.24,0.02-0.14c0.01-0.03,0.02-0.05,0.03-0.08
	c-0.01,0.04,0.12-0.28,0.03-0.34C34.6,64.12,34.82,63.71,35.08,63.31z M40.39,69.99c-1.38,0.91-3.29,3.5-5.22,1.48
	c0.31-0.4,0.45-0.9,0.56-1.35c1.05,1.53,3.33,0.38,3.55-1.21c0.31,0.79,2.2,0.51,1.97-0.15c-2.96,1.26-1.63-3.64-1.72-5.19
	c0.94-0.37,1.89-0.73,2.85-1.05c-0.06,1.62-0.69,3.79,0.64,5.05C42.05,68.28,41.14,69.06,40.39,69.99z M43.35,67.33
	c-1-1.49-0.16-3.35-0.64-4.93c0.75-0.25,1.5-0.5,2.25-0.72c-0.08,1.41,0.23,2.89,0.89,4.14C44.99,66.28,44.14,66.76,43.35,67.33z
	 M46.23,65.63c-0.37-1.34-0.67-2.69-0.88-4.06c2.33-0.67,4.71-1.22,7.09-1.68c0.19,1.14,0.45,2.46,1.3,3.29
	c-1.25,0.23-2.49,0.53-3.7,0.91c-1.41-4.34-2.54-4.03-0.56,0.19C48.37,64.66,47.27,65.11,46.23,65.63z M53.91,63.14
	c0.03-1.09-0.79-2.22-0.94-3.36c1.26-0.23,2.5-0.47,3.77-0.64c0.36,1.18,0.62,2.38,0.74,3.61C56.29,62.8,55.09,62.92,53.91,63.14z
	 M57.7,62.74c0.25-1.21-0.01-2.57-0.58-3.65c1.28-0.18,2.56-0.34,3.83-0.52c0.61,1.35,1.09,2.78,0.94,4.28
	c-0.08,0-0.15,0.04-0.19,0.11C60.38,62.76,59.04,62.69,57.7,62.74z M64.4,63.56c-0.68-0.21-1.37-0.37-2.07-0.5
	c0.17-1.55-0.12-3.2-0.93-4.55c0.8-0.11,1.6-0.23,2.39-0.37c0.43,1.83,1.02,3.67,1.91,5.34C65.27,63.55,64.83,63.58,64.4,63.56z
	 M66,58.68c0.95,1.17,1.3,2.74,1.38,4.2c-0.42,0.23-0.87,0.41-1.34,0.52c-0.84-1.72-1.3-3.59-1.95-5.38
	C64.8,57.76,65.57,58.1,66,58.68z M68.67,57.55c1.32,1.65,0.89,3.97-0.89,5.09c-0.09-1.63-0.5-3.35-1.68-4.57
	c0.29-0.66,0.4-1.38,0.3-2.1C67.28,56.34,68.12,56.8,68.67,57.55z M64.56,55.29c0.38,0.14,0.79,0.28,1.2,0.43
	c0.17,0.68,0.14,1.39,0.02,2.08c-0.59-0.44-1.55-0.57-2.14-0.06c-0.08,0-0.15,0.01-0.23,0.01c0.23-0.92,0.29-1.92,0.09-2.84
	C63.85,55.03,64.21,55.16,64.56,55.29z M63.11,54.8c-0.05,0.99,0.1,2-0.08,2.98c-1.33,0.07-2.67,0.23-4,0.42
	c0.47-1,0.45-2.17,0.18-3.23c0.11-0.17,0.15-0.39,0.31-0.59c-0.04,0.03,0.13-0.13,0.09-0.1c0.13-0.04,0.16-0.2,0.05-0.27
	C60.84,54.16,61.99,54.44,63.11,54.8z M55.6,53.79c1.35-0.04,2.68,0.04,4.02,0.22c-0.25-0.01-0.45,0.25-0.58,0.44
	c-1.34-2.11,0.33,3.05-0.4,3.81c-1.11,0.17-2.2,0.33-3.3,0.52c-0.04-1.34-0.27-4.53-1.55-4.75c0.5,1.58,1.09,3.14,1.14,4.82
	c-0.73,0.13-1.46,0.26-2.19,0.4c-0.11-0.05-0.24-0.03-0.31,0.07c-0.57,0.11-1.14,0.23-1.7,0.36c-0.7-1.68-1.28-3.4-1.96-5.08
	C51,54,53.3,53.8,55.6,53.79z M43.87,69.67c-1.15,4.6-8.36,9.17-12.06,4.55C37.58,77.32,40.33,73.88,43.87,69.67z M72.05,60.58
	c0.17-1.11-0.37-2.12-0.74-3.13c-0.07-0.21,0.21-0.34,0.36-0.21c2.14,2.11,0.99,5.61-1.33,7.11c-0.94,0.75-4.68,2.6-5.03,1.42
	C68.07,65.06,71.52,63.7,72.05,60.58z M31.95,62.28c-0.24,1.89-2.06,4.9-2.06,7.39C29.11,68.29,30.94,64.18,31.95,62.28z
	 M64.7,52.78c0.93-1.03,3.67,0.99,4.68,1.9c0.17,0.16-0.08,0.38-0.25,0.25C67.85,53.86,66.23,53.39,64.7,52.78z"/>
<path class="st6" d="M79.06,68.65c0.01-0.01,0.02-0.03,0.03-0.04c0.88-0.21,1.24-1.66,0.64-2.29C72.4,44.71,63.58,23.6,56.17,2.02
	C41.55,4.12,22.34,9.25,6.23,12.44c-8.19,6.96-1.92,19.44,0.64,28.18c6.49,18.75,10.8,41.27,21.91,57
	c16.89-5.66,34.27-11.85,50.78-18.97c-0.07-1.97-2.17-4.39-2.82-6.52C76.97,70.67,77.78,69.41,79.06,68.65z"/>
</svg>
