<svg width="2048" height="2048" version="1.1" viewBox="0 0 2048 2048" xmlns="http://www.w3.org/2000/svg">
  <circle cx="1024" cy="1024" r="968.2" fill="#fff"/>
  <path d="m1024 0a1024 1024 0 00-1024 1024 1024 1024 0 001024 1024 1024 1024 0 001024-1024 1024 1024 0 00-1024-1024zm.023 71.99a952 951.9 0 01952 951.9 952 951.9 0 01-952 951.9 952 951.9 0 01-952-951.9 952 951.9 0 01952-951.9z" fill="#010000" style="paint-order:stroke fill markers"/>
  <path d="m784 344v80h320v80h80v-80h80v-80zm480 80v80h160v-80zm160 80v80h80v-80zm80 80v160h80v-160zm80 160v80h80v-80zm80 80v240h80v-240zm0 240h-80v80h80zm-80 80h-1120v80h80v400h80v-400h240v240h80v-240h160v240h80v-240h240v400h80v-400h80zm-160 480h-80v80h80zm-80 80h-160v-80h-320v80h-160v80h640zm-640 0v-80h-80v80zm160-80v-80h-80v80zm-80-80v-80h-80v80zm400 80h80v-80h-80zm80-80h80v-80h-80zm-800-400v-80h-80v80zm-80-80v-240h-80v240zm0-240h80v-80h-80zm80-80h80v-160h-80zm80-160h80v-80h-80zm80-80h160v-80h-160zm160 0v80h80v-80zm80 80v240h80v-240zm0 240h-80v80h80zm-80 80h-240v80h240zm-240 0v-80h-80v80zm720-400h-80v80h80zm0 240v80h160v-80zm160 80v160h80v-160zm0 160h-160v80h160zm-160 0v-160h-80v160z" stroke="#000" stroke-linecap="round" stroke-linejoin="round" stroke-width="2" style="paint-order:stroke fill markers"/>
</svg>
