<?xml version="1.0" encoding="UTF-8"?>
<svg width="2048" height="2048" version="1.1" viewBox="0 0 2048 2048" xmlns="http://www.w3.org/2000/svg">
 <circle cx="1024" cy="1024" r="968.2" fill="#fff"/>
 <path d="m1024 0a1024 1024 0 00-1024 1024 1024 1024 0 001024 1024 1024 1024 0 001024-1024 1024 1024 0 00-1024-1024zm.023 71.99a952 951.9 0 01952 951.9 952 951.9 0 01-952 951.9 952 951.9 0 01-952-951.9 952 951.9 0 01952-951.9z" fill="#010000" style="paint-order:stroke fill markers"/>
 <path d="m758.24 226.73v88.585h354.34v88.585h88.585v-88.585h88.585v-88.585zm531.51 88.585v88.585h177.17v-88.585zm177.17 88.585v88.585h88.585v-88.585zm88.585 88.585v177.17h88.585v-177.17zm88.585 177.17v88.585h88.585v-88.585zm88.585 88.585v265.76h88.585v-265.76zm0 265.76h-88.585v88.585h88.585zm-88.585 88.585h-1240.2v88.585h88.585v442.93h88.585v-442.93h265.76v265.76h88.585v-265.76h177.17v265.76h88.585v-265.76h265.76v442.93h88.585v-442.93h88.585zm-177.17 531.51h-88.585v88.585h88.585zm-88.585 88.585h-177.17v-88.585h-354.34v88.585h-177.17v88.585h708.68zm-708.68 0v-88.585h-88.585v88.585zm177.17-88.585v-88.585h-88.585v88.585zm-88.585-88.585v-88.585h-88.585v88.585zm442.93 88.585h88.585v-88.585h-88.585zm88.585-88.585h88.585v-88.585h-88.585zm-885.85-442.93v-88.585h-88.585v88.585zm-88.585-88.585v-265.76h-88.585v265.76zm0-265.76h88.585v-88.585h-88.585zm88.585-88.585h88.585v-177.17h-88.585zm88.585-177.17h88.585v-88.585h-88.585zm88.585-88.585h177.17v-88.585h-177.17zm177.17 0v88.585h88.585v-88.585zm88.585 88.585v265.76h88.585v-265.76zm0 265.76h-88.585v88.585h88.585zm-88.585 88.585h-265.76v88.585h265.76zm-265.76 0v-88.585h-88.585v88.585zm797.27-442.93h-88.585v88.585h88.585zm0 265.76v88.585h177.17v-88.585zm177.17 88.585v177.17h88.585v-177.17zm0 177.17h-177.17v88.585h177.17zm-177.17 0v-177.17h-88.585v177.17z" stroke="#000" stroke-linecap="round" stroke-linejoin="round" stroke-width="2" style="paint-order:stroke fill markers"/>
</svg>
