<svg width="2048" height="2048" version="1.1" viewBox="0 0 2048 2048" xmlns="http://www.w3.org/2000/svg"><path d="m765.89 118.82c-156.3 55.424-765.5 332.9-753.72 1110.8 11.78 777.92 1211.9 1020.8 1650.3 606.46 438.64-414.04 523.67-903.73 78.671-1207.7-444.99-303.96-1376.8-161.23-1215.1 578.28 161.73 739.62 697.13 548.43 787.81 347.04 90.816-201.44 199.43-397.98 4.7544-473.24-458.27-177.27 51.404 540.02-320.67 511.86-402.37-30.485-248.24-1156.7 245.01-968.6 542.52 206.91 713.85 640.65 467.33 989.35-248.67 351.86-658.32 354.55-867.35 322.24-209.03-32.312-664.52-271.02-563.92-1021.9 100.8-750.85 929.3-425.81 968.52-686.76 55.308-367.86-325.94-163.5-482.16-108.11z" fill="#b8c2e7" fill-opacity=".33" stroke-width="1.4146"/><ellipse transform="matrix(-.749 .66257 .65104 .75904 0 0)" cx="-110.61" cy="1445.6" rx="78.219" ry="78.384" fill="#b8c2e7" fill-opacity=".33" stroke-width=".70733" style="paint-order:stroke fill markers"/></svg>
