<svg width="32" height="32" version="1.1" viewBox="0 0 32 32" xmlns="http://www.w3.org/2000/svg"><path d="m13.954 31.466c3.4105-3.9122 1.5044-6.2452-4.2804-9.6874-5.785-3.4424-6.1055-8.2702 0-11.592 6.1053-3.322 8.3219-5.8972 4.2804-9.6874-2.0207-1.8952-4.7613 1.9728-7.7468 5.472-2.9854 3.499-6.2157 6.6292-6.2076 10.011 0.015311 3.382 3.2225 6.623 6.2828 10.137 3.0603 3.5144 5.9664 7.302 7.6716 5.346z" stroke-width=".98396"/><path d="m19.875 16a3.875 3.875 0 0 1-3.8593 3.875 3.875 3.875 0 0 1-3.8905-3.8437 3.875 3.875 0 0 1 3.8279-3.906 3.875 3.875 0 0 1 3.9215 3.8121"/></svg>
