<svg width="2048" height="2048" version="1.1" viewBox="0 0 2048 2048" xmlns="http://www.w3.org/2000/svg">
  <circle cx="1024" cy="1024" r="968.2" fill="#fff"/>
  <path d="m1024 0a1024 1024 0 00-1024 1024 1024 1024 0 001024 1024 1024 1024 0 001024-1024 1024 1024 0 00-1024-1024zm.023 71.99a952 951.9 0 01952 951.9 952 951.9 0 01-952 951.9 952 951.9 0 01-952-951.9 952 951.9 0 01952-951.9z" fill="#010000" style="paint-order:stroke fill markers"/>
  <path d="m936.6 140.9s-83.42 150.3-99.42 248.3c-17.31 106-58.11 396.4 160.5 348 47.42-10.07 103.9-29.12 115-132.6 19.63-182.9-137.6-249.2-154.6-322.6-18.21-78.72-21.46-141.1-21.46-141.1zm-528.4 337-24.24 2.693 21.54 183.1s32.32 43.09 72.72 32.32c40.4-10.77 21.55-51.17 21.55-51.17l-91.57-167zm670.8 258.2s-15.22 40.78-72.92 52.77c-43.49 9.035-94.59-28.09-94.59-28.09 0 0-4.31 53.44-5.375 128.9 32.09 9.645 78.08 17.82 130 9.324 39.59-6.484 73.7-28.35 95.52-45.71-31.23-84.45-52.59-117.2-52.59-117.2zm615.7 59.38-199.1 13.26-157 956.8 46.45 59.66 170.3-48.61 212.3-903.8-72.99-77.34zm-1020 116s16.16 61.56-6.691 74.89c-22.85 13.33-1.387 65.15-1.387 65.15s-21.55-45.78-80.8-18.85c-59.25 26.93-67.33 67.33-67.33 67.33s-29.63-40.4-72.72-56.56c-43.09-16.16-61.94-51.17-61.94-51.17l306.2 869.8a904.4 904.3 0 00329.8 65.81l-345.1-1016zm479.8 8.992c-18.05 15.57-53.4 33.35-122.6 41.6-61.57 7.332-101 1.885-125.7-6.316 1.159 73.36 6.152 157 20.21 233.6 18.31 99.85 81.92 436.3 147.8 735.2a904.4 904.3 0 00208.9-34.66c-13-279.1-34.9-601-70.65-756.1-20.43-88.68-40.03-157.6-57.91-213.4z" fill="#010000"/>
</svg>
